<svg xmlns="http://www.w3.org/2000/svg" width="561.33" height="168" viewBox="0 0 561.33 168"><path d="M68.1 89.2c0 3.42-.32 6.63-.95 9.64-.63 3.02-1.8 5.67-3.5 7.97s-4.05 4.2-7.07 5.5c-3 1.4-6.9 2-11.7 2-4.25 0-7.84-.5-10.76-1.7-2.92-1.1-5.27-2.7-7.08-4.9-1.8-2.1-3.1-4.8-3.88-7.9-.8-3.1-1.18-6.7-1.18-10.7 0-8.5 1.9-14.8 5.7-18.9 3.8-4.1 9.83-6.2 18.1-6.2 4.18 0 7.7.6 10.56 1.8 2.85 1.2 5.14 2.9 6.88 5.1 1.73 2.3 2.98 5 3.73 8.1.76 3.2 1.14 6.6 1.14 10.4zm-8.18.4c0-3.2-.22-6.03-.68-8.45-.46-2.42-1.27-4.44-2.4-6.05-1.16-1.6-2.68-2.82-4.58-3.64-1.9-.8-4.33-1.22-7.27-1.22-3.3 0-5.9.5-7.8 1.52-2 1.02-3.5 2.4-4.5 4.18-1.1 1.77-1.8 3.82-2.2 6.14-.4 2.33-.6 4.8-.6 7.42 0 2.56.2 4.95.6 7.18.4 2.23 1.2 4.16 2.2 5.8 1 1.64 2.5 2.95 4.3 3.93 1.8 1 4.1 1.5 7 1.5 3.1 0 5.7-.3 7.7-1.1 2-.7 3.6-1.8 4.8-3.3 1.1-1.5 2-3.4 2.4-5.7.4-2.3.6-5 .6-8.1zM108 113v-7.27c-.46.98-1 1.98-1.63 3-.62 1-1.5 1.93-2.65 2.75-1.15.82-2.6 1.5-4.33 2-1.8.54-4 .8-6.6.8-4 0-7.1-.54-9.3-1.62-2.2-1.1-3.8-2.46-4.9-4.13-1.1-1.68-1.7-3.43-2-5.26-.3-1.84-.4-3.57-.4-5.2V65.1H84v29.8c0 2.02.1 3.82.25 5.4.16 1.57.53 2.9 1.12 4.03.6 1.1 1.5 1.98 2.8 2.6 1.26.63 3.02.93 5.24.93 3.2 0 5.8-.47 7.6-1.42s3.3-2.15 4.2-3.6c1-1.43 1.5-3 1.8-4.66.2-1.67.4-3.2.4-4.57V65.1h7.9V113H108zm27.72-41.4v29.8c0 1.24.03 2.24.1 3 .06.75.24 1.3.53 1.67.3.36.76.6 1.38.7.62.08 1.53.13 2.7.13.53 0 1.05 0 1.58-.05.6-.03 1.1-.08 1.6-.14v6.3c-1.9.2-3.9.3-6 .3-2.4 0-4.3-.3-5.6-1-1.3-.6-2.2-1.5-2.9-2.5-.6-1-1-2.2-1.1-3.6-.1-1.4-.1-2.8-.1-4.2V71.6h-6.8v-6.48h6.8V50.68h7.9v14.44h9.1v6.5h-9zm38.92-.08c-1.1 0-2.54.06-4.27.2-1.74.12-3.43.67-5.06 1.6-1.6.96-3 2.46-4.2 4.5-1.2 2.02-1.7 4.87-1.7 8.54V113h-7.8V65.12h7.7v9.34c.7-2.68 1.6-4.75 2.9-6.2 1.3-1.43 2.6-2.5 4-3.18 1.4-.7 2.8-1.07 4.2-1.13 1.4-.07 2.7-.1 3.7-.1.5 0 1.1 0 2 .05.9.03 1.7.08 2.4.14v7.48H175zm49.86 16.5c0 .6-.03 1.2-.06 1.83-.04.62-.05 1.23-.05 1.82h-36.1c0 1.77.1 3.6.4 5.5s.8 3.64 1.7 5.2c.9 1.58 2.3 2.9 4.3 3.94 1.9 1.1 4.6 1.6 8.1 1.6 2.3 0 4.2-.2 5.8-.6 1.5-.4 2.8-.9 3.8-1.7.9-.7 1.7-1.7 2.2-2.9s.9-2.5 1.3-4h7.3c-.1 1.9-.5 3.8-1.1 5.7-.7 1.9-1.8 3.6-3.3 5-1.6 1.5-3.7 2.7-6.4 3.6-2.7 1-6.1 1.4-10.3 1.4-3.4 0-6.4-.4-9.2-1.3-2.8-.8-5.1-2.2-7.1-4.1-2-1.9-3.5-4.3-4.6-7.4-1.1-3-1.7-6.8-1.7-11.2 0-4.8.5-8.9 1.4-12.3s2.44-6 4.44-8.1c2-2.1 4.5-3.6 7.4-4.5 2.9-.9 6.36-1.3 10.3-1.3.9 0 2.07.1 3.45.1 1.33.1 2.8.3 4.4.8 1.6.5 3.1 1.2 4.7 2.1 1.5 1 2.9 2.4 4.2 4.2 1.2 1.8 2.2 4.1 3 6.9.8 2.8 1.2 6.2 1.2 10.2zm-8.37-2.74c0-2.23-.17-4.28-.5-6.15-.32-1.87-.97-3.45-1.96-4.76-.98-1.32-2.35-2.33-4.13-3.05-1.76-.72-4.06-1.08-6.88-1.08-2.88 0-5.23.42-7.02 1.27-1.8.9-3.22 2-4.23 3.4-1 1.4-1.7 3-2.1 4.8-.4 1.8-.7 3.7-.9 5.6h27.9zm16.5 6.98V84.2h23.9v8.06h-23.9zM322.2 113V81.83c0-2.22-.13-4.06-.4-5.5-.26-1.44-.7-2.62-1.32-3.54-.63-1-1.48-1.6-2.56-2-1.08-.4-2.47-.6-4.18-.6-3.4 0-6.14 1-8.2 2.9-2.07 1.9-3.1 4.8-3.1 8.6V113h-7.86V80.36c0-1.18-.04-2.36-.1-3.54-.07-1.18-.35-2.26-.84-3.24-.5-.98-1.3-1.78-2.4-2.4-1.12-.63-2.66-.94-4.63-.94-1.6 0-3.1.3-4.6.93-1.4.63-2.7 1.52-3.8 2.7-1 1.18-1.8 2.56-2.4 4.13-.6 1.58-.9 3.3-.9 5.2V113H267V65.12h7.27v7.38c.45-1 1-2 1.67-3 .66-1.02 1.55-1.97 2.66-2.85 1.1-.9 2.46-1.57 4.07-2.07 1.6-.5 3.56-.73 5.85-.73 2.55 0 4.6.3 6.14.88 1.54.6 2.73 1.36 3.58 2.3.86.96 1.45 1.98 1.78 3.06.33 1 .56 2 .7 3 .25-1 .63-2.1 1.12-3.2.5-1.1 1.27-2.2 2.3-3.1 1.06-1 2.47-1.7 4.24-2.2 1.77-.6 4.03-.9 6.78-.9 3.08 0 5.6.3 7.57 1.1 1.97.7 3.5 1.8 4.57 3.2 1.1 1.4 1.8 3.2 2.16 5.3.36 2.1.54 4.6.54 7.3V113h-7.76zm60.06-24.97c0 .6 0 1.2-.05 1.82v1.82h-36.1c0 1.77.2 3.6.4 5.5s.9 3.64 1.8 5.2c.9 1.58 2.4 2.9 4.3 3.94 2 1.1 4.7 1.6 8.2 1.6 2.3 0 4.3-.2 5.8-.6 1.6-.4 2.9-.9 3.9-1.7 1-.7 1.7-1.7 2.3-2.9.5-1.2 1-2.5 1.3-4h7.4c-.1 1.9-.5 3.8-1.1 5.7-.6 1.9-1.7 3.6-3.3 5-1.6 1.5-3.7 2.7-6.3 3.6-2.6 1-6 1.4-10.2 1.4-3.3 0-6.4-.4-9.1-1.3-2.7-.8-5.1-2.2-7.1-4.1s-3.5-4.3-4.5-7.4c-1.1-3-1.6-6.8-1.6-11.2 0-4.8.5-8.9 1.44-12.3s2.4-6 4.4-8.1c2-2.1 4.46-3.6 7.4-4.5 2.9-.9 6.3-1.3 10.25-1.3.9 0 2.05.1 3.43.1 1.36.1 2.84.3 4.4.8 1.55.5 3.1 1.2 4.65 2.1 1.53 1 2.9 2.4 4.16 4.2 1.3 1.8 2.3 4.1 3.1 6.9.8 2.8 1.2 6.2 1.2 10.2zm-8.35-2.75c0-2.23-.1-4.28-.4-6.15s-1-3.45-1.9-4.76c-1-1.32-2.3-2.33-4.1-3.05-1.7-.72-4-1.08-6.9-1.08-2.9 0-5.2.42-7 1.27-1.8.9-3.2 2-4.2 3.4s-1.7 3-2.1 4.8c-.4 1.8-.7 3.7-.9 5.6H374zm40.2-13.76c-1.1 0-2.5.06-4.2.2-1.7.12-3.4.67-5 1.6-1.6.96-3 2.46-4.2 4.5-1.2 2.02-1.7 4.87-1.7 8.54V113h-8V65.12h7.7v9.34c.7-2.68 1.6-4.75 2.9-6.2 1.3-1.43 2.6-2.5 4-3.18 1.4-.7 2.8-1.07 4.2-1.13 1.4-.07 2.7-.1 3.7-.1.5 0 1.1 0 2 .05.9.03 1.7.08 2.4.14v7.48h-3.5z" fill="#8D7E74"/><path fill="#FDC600" d="M539.35 15.58c0-2.35-1.36-2.94-3.82-2.4l-82.9 17.9c-3.03.68-4.18 1.93-4.18 5.32v95.26c0 3.4 1.15 4.64 4.17 5.3l82.9 17.9c2.52.58 3.8-.63 3.83-2.82V15.58z"/><path fill="#FFF" d="M501.2 44.95c-2.63 6.06-5.8 7.65-9.5 9.38-2.53 1.18-7.47 1.86-14.77 2.06v15h20.85V114h-20.85v18.1h62.35V114h-21.6V44.9h-16.5zm6.04-6.92c0 .3.04.6.1.9.07.28.2.54.36.76.15.2.38.4.68.5.3.1.68.2 1.14.2 1.07 0 1.76-.5 2.1-1.5h3.57c-.1.4-.3.9-.4 1.4-.2.5-.5.9-.9 1.3-.4.3-1 .7-1.7.9-.7.2-1.7.3-2.9.3-2.1 0-3.5-.6-4.5-1.6-.9-1.1-1.4-2.6-1.4-4.7 0-.9.1-1.8.3-2.6.2-.8.5-1.5 1-2 .4-.6 1-1 1.8-1.3.7-.3 1.7-.5 2.8-.5 1.3 0 2.4.2 3.1.6.8.4 1.4 1 1.8 1.7.4.7.6 1.5.7 2.4.1.9.1 1.8.1 2.7h-8zm1.56-8.38l-2.1-3.57h3.3l1.23 3.57h-2.43zm2.8 6.14c.02-.4-.02-.7-.1-1-.08-.4-.2-.6-.38-.9s-.4-.5-.67-.6c-.26-.2-.58-.2-.95-.2-.36 0-.68 0-.95.2-.25.1-.46.3-.64.5-.1.2-.3.5-.4.8l-.1 1h4.3zm11.68-2c-.4 0-.73 0-.98.2-.27.1-.45.3-.6.5-.12.2-.22.5-.28.8-.04.3-.06.6-.06 1v6.4h-3.7V30.8h3.3v1.5c.2-.42.42-.74.64-.98.2-.25.4-.43.63-.54.22-.1.45-.18.68-.22.3-.03.5-.04.8-.04s.6 0 .8.03l1.1.1v3.17h-2.2zm6.47 4.2c0 .3.02.6.1.9.07.3.2.5.35.7.16.2.4.4.7.5.3.1.67.2 1.13.2 1.06 0 1.76-.5 2.1-1.5h3.56c-.1.4-.3.9-.4 1.4-.2.5-.5.9-.9 1.3-.4.3-1 .7-1.7.9-.7.2-1.7.3-2.9.3-2.1 0-3.5-.6-4.5-1.6-.9-1.1-1.4-2.6-1.4-4.7 0-.9.1-1.8.3-2.6.2-.8.5-1.5 1-2 .5-.6 1.1-1 1.8-1.3.7-.3 1.7-.5 2.8-.5 1.3 0 2.4.2 3.1.6.8.4 1.4 1 1.7 1.7.4.7.6 1.5.7 2.4.1.9.1 1.8.1 2.7h-8.1zm4.34-2.3c0-.4-.1-.7-.1-1-.1-.4-.3-.6-.4-.9-.2-.3-.4-.5-.7-.6-.3-.2-.6-.2-1-.2s-.7 0-1 .2-.5.3-.7.5c-.2.2-.3.5-.4.8-.1.3-.2.6-.2 1h4.3z"/></svg>