<svg xmlns="http://www.w3.org/2000/svg" width="110" height="100" viewBox="0 0 110 100"><g fill="#FFF"><path d="M41.632 61.954l10.426-10.427-5.014-5.014c-2.292-2.292-6.042-2.292-8.333 0L16.72 68.507c-2.29 2.29-2.29 6.04 0 8.333L28.16 88.28c2.29 2.293 6.04 2.293 8.332 0l21.994-21.99c2.292-2.293 2.292-6.043 0-8.334l-5.014-5.015L43.046 63.37l-1.414-1.414zM93.282 23.16L81.84 11.72c-2.292-2.293-6.042-2.293-8.334 0L51.512 33.713c-2.29 2.29-2.29 6.04 0 8.332l5.015 5.015 10.427-10.427 1.414 1.414-10.426 10.426 5.014 5.014c2.29 2.292 6.04 2.292 8.333 0L93.28 31.495c2.29-2.293 2.29-6.043 0-8.334z"/></g></svg>