<svg xmlns="http://www.w3.org/2000/svg" width="110" height="100" viewBox="0 0 110 100">
    <g fill="none" stroke="#FFF" stroke-width="2" stroke-miterlimit="8">
        <path
            d="M58.486 66.288L36.493 88.28c-2.292 2.292-6.042 2.292-8.333 0L16.72 76.84c-2.293-2.293-2.293-6.043 0-8.334l21.99-21.993c2.292-2.292 6.042-2.292 8.335 0l11.44 11.442c2.292 2.29 2.292 6.04 0 8.333zM93.28 31.494L71.29 53.486c-2.292 2.29-6.042 2.29-8.332 0l-11.442-11.44c-2.292-2.293-2.292-6.043 0-8.334L73.506 11.72c2.292-2.293 6.042-2.293 8.333 0l11.44 11.44c2.292 2.292 2.292 6.042 0 8.334zM42.338 62.66L67.66 37.34"/>
    </g>
</svg>