<svg xmlns="http://www.w3.org/2000/svg" width="203.31" height="44.37" viewBox="0 0 203.31 44.37"><path fill="#0AA8E5" d="M183.5 13.05V24.5c0 .18-.1.24-.32.2l-6.74-1.46c-.25-.05-.34-.16-.34-.43v-8c0-.2.1-.3.34-.4l6.74-1.4c.2-.05.3 0 .3.2z"/><path fill="#017FAF" d="M184.54 12.85l6.74 1.44c.24 0 .34.1.34.4v8.1c0 .2-.1.4-.34.4l-6.74 1.4c-.2 0-.3-.06-.3-.2V13c0-.2.1-.24.3-.2z"/><path d="M20.67 31.8c-6.48 0-8.95-3.48-8.98-9.83-.1-5.87 2.7-9.4 8.7-9.4 6.2 0 7.4 3.3 7.8 5.98h-3.5c-.4-1.5-.9-3.06-4.1-3.06-4 0-5.3 1.9-5.3 6.9 0 5.2 2 6.3 5.14 6.3 3.43 0 3.72-2.1 4.13-3.7h3.64c-.35 3.4-2.02 6.66-7.7 6.66zm16.5 0c-5.4 0-7.46-2.4-7.46-6.4V12.95h3.7v12.58c.1 2.2 1 3.34 4.1 3.34 2.8 0 3.6-1.2 3.6-3.22v-12.7h3.7v12.52c0 4.53-2.7 6.35-7.5 6.35zm9.9-.4V12.94h3.7v15.4h9.15v3.06H47.06zm18.56-15.45V31.4h-3.7V15.95H56.4v-3h14.73v3h-5.5zM79.58 31.8c-5.4 0-7.45-2.4-7.45-6.4V12.95h3.7v12.58c0 2.2.93 3.34 4.04 3.34 2.72 0 3.57-1.2 3.57-3.22v-12.7h3.7v12.52c0 4.53-2.72 6.35-7.56 6.35zm21.55-.4c-.77-1.18-.44-4.8-1.13-6.4-.3-.67-.9-.98-1.9-.98h-4.92v7.38h-3.7V12.94h9.18c2.8 0 6.17.57 6.17 5.25 0 2.9-1.47 4.2-3.34 4.3 2.8.5 2.2 2.4 2.8 7 0 .6.3 1.3.5 1.8H101zm-2.7-15.45h-5.25v5.17h4.9c2.56 0 2.97-.98 2.97-2.8 0-2.04-.72-2.37-2.62-2.37zm8.22 15.45V12.94h14.2v3h-10.5v4.23h9.67v2.98h-9.66v5.2h10.77v3.05h-14.48zm23.9 0h-8.06V12.94h8.9c4.5 0 5.5 2.63 5.5 4.9-.1 2.35-1 3.48-3.1 3.72 2 0 3.8 1 3.8 4.26 0 4.86-3.7 5.58-7.1 5.58zm.9-15.45h-5.26v4.32h4.8c1.6 0 2.2-.95 2.2-2.34 0-1.4-.4-1.98-1.8-1.98zm.27 7.15h-5.53v5.24h5.1c1.8 0 2.6-.7 2.6-2.5 0-2.38-1.2-2.74-2.2-2.74zm15.75 8.7c-4.93 0-8.58-3.05-8.58-9.5 0-7.3 3.8-9.74 9.2-9.74 6 0 8.7 3.65 8.7 9.66 0 6.54-3.1 9.6-9.47 9.6zm.67-16.3c-4.47 0-5.52 2.46-5.52 6.8 0 4.04 1.54 6.58 5.1 6.58 4.95 0 5.5-3.4 5.5-6.8 0-4.9-1.94-6.6-5.08-6.6zm20.36 15.9l-3.87-6.68-3.9 6.68h-4.3l6.06-9.74-5.5-8.72h4.2l3.3 5.76 3.35-5.76h4.2l-5.4 8.72 6.05 9.74h-4.3z"/></svg>