<svg version="1.1" id="Calque_1" xmlns="http://www.w3.org/2000/svg" xmlns:xlink="http://www.w3.org/1999/xlink" x="0px" y="0px"
    width="90px" height="60px" viewBox="0 0 90 60" enable-background="new 0 0 90 60" xml:space="preserve">
<g>
    <path fill="#FFFFFF" d="M88,35.525C88,34.683,87.317,34,86.475,34h-7.949C77.683,34,77,34.683,77,35.525v18.949
        C77,55.317,77.683,56,78.525,56h7.949C87.317,56,88,55.317,88,54.475V35.525z M84.061,36.632c0,0.133-0.108,0.241-0.241,0.241
        h-1.353c-0.133,0-0.241-0.108-0.241-0.241v-0.435c0-0.133,0.108-0.241,0.241-0.241h1.353c0.133,0,0.241,0.108,0.241,0.241V36.632z
        M87,53h-9V37h9V53z"/>
    <path fill="#FFFFFF" d="M86.209,25H45.124c-0.529,0-0.957,0.429-0.957,0.957v25.086c0,0.529,0.429,0.957,0.957,0.957h32.479
        c0.403-1.08,0.403-1.92,0-3H47.167V28h37v7c1.08,0,1.92,0,3,0v-9.043C87.167,25.429,86.738,25,86.209,25z"/>
    <g>
        <path fill="#FFFFFF" d="M43.326,51.183c0,0-1.088-0.921-1.686-1.519c-0.599-0.599-0.761-1.46-0.761-1.46L40.406,43H27.218
            l-0.475,5.205c0,0-0.163,0.84-0.762,1.438c-0.598,0.599-1.687,1.536-1.687,1.536s-0.979,0.54,0.49,0.757
            C25.625,52.061,29.377,52,32.391,52h2.846c3.076,0,6.763,0.067,7.604-0.058C44.311,51.725,43.326,51.183,43.326,51.183z"/>
        <path fill="#FFFFFF" d="M63.466,4H3.777C2.922,4,2.167,4.432,2.167,5.296V40.35C2.167,41.213,2.922,43,3.777,43h22.082h1.269
            h13.035h1.329h4.675c0-1.346,0-2.713,0-4h-41V7h57v19c1.019,0,2.016,0,3,0V5.296C65.167,4.432,64.321,4,63.466,4z"/>
    </g>
</g>
</svg>
