<svg version="1.0" xmlns="http://www.w3.org/2000/svg"
    width="110.000000pt" height="131.000000pt" viewBox="0 0 110.000000 131.000000"
    preserveAspectRatio="xMidYMid meet">
    <g transform="translate(0.000000,131.000000) scale(0.100000,-0.100000)"
        fill="#000000" stroke="none">
        <path d="M1004 1300 c-80 -12 -177 -48 -241 -89 -131 -85 -221 -223 -323 -492
-102 -270 -195 -404 -313 -447 -32 -12 -73 -22 -92 -22 l-35 0 0 -125 0 -125
58 0 c128 0 271 59 362 150 64 64 137 177 190 293 l35 76 153 1 152 0 0 130 0
130 -95 0 c-63 0 -95 4 -95 11 0 21 68 124 111 166 49 50 111 82 176 91 l48 7
3 128 c3 145 13 133 -94 117z"/>
    </g>
</svg>
