<svg xmlns="http://www.w3.org/2000/svg" width="160" height="25" viewBox="0 0 160 25"><path d="M101.03 19.95c-6.25 0-5.9-3.5-5.5-5.54h4.18c0 .5-.1 1.2.1 1.6.2.3.6.8 2 .8 1.1 0 2.4-.2 2.6-1.5.1-.4-.1-.7-.5-.8-.8-.2-1.8-.4-2.6-.6-3.2-.7-4.7-1.6-4.2-4.3.7-3.6 3.9-4.4 6.9-4.4 2.8 0 5.3.9 5.3 3.8 0 .5 0 .3-.1 1H105c.06-1.02-.15-1.42-1.65-1.42-.76 0-1.72.2-1.9 1-.04.34-.1.55.36.7.9.36 2.2.63 3.1.84 2.9.6 4.5 1.6 3.9 4.4-.6 3.3-3.4 4.7-7.5 4.7zm15.35-.08c-1.45 0-2.44-.34-2.95-1.26l-1.05 5.4h-4.34l3.65-18.7h4.1l-.3 1.4c.7-1 2.1-1.7 3.8-1.7 4.4 0 5.3 3.5 4.4 7.7-.8 3.9-2.8 7.3-7.5 7.3zm1.6-11.6c-1.63 0-2.9 1.1-3.45 4.08-.5 2.6-.16 4.34 1.82 4.34 1.42 0 2.55-1.8 3.03-4.3.5-2.6-.1-4.2-1.4-4.2zm12.56 11.68c-4.64 0-6.65-2.33-5.65-7.4 1.1-5.9 4.6-7.6 8.7-7.6 4.7 0 6.6 2.38 5.6 7.48-.9 4.4-3.3 7.52-8.7 7.52zm2.57-11.8c-2 0-3.1.93-3.7 4.25-.6 3.1-.1 4.4 1.7 4.4 2.5 0 3.3-1.62 3.9-4.67.5-2.65.1-4-1.7-4z" fill="#E80E8A"/><path d="M16.28 7.4c-1.3 0-4.5 0-4.5 4.38v7.78h-2.3V5.53h2.24v2.73c.8-3.13 3.1-3.1 4.32-3.1.27 0 .86.02 1.28.08V7.4h-1.04zm13.7 12.2c-1.78 0-2.26-.4-2.58-1.77-.78 1.07-1.66 2.12-4.9 2.12-3.5 0-4.7-1.42-4.7-4.2 0-2.82 1.24-3.84 8.63-4.8.8-.1.8-1.32.8-1.72 0-1.88-.9-2.2-3.2-2.2-3 0-3.44.78-3.44 2.84h-2.3c0-1.95 0-4.7 5.9-4.7 3.8 0 5.2 1.2 5.2 4.54v7c0 1.2.5 1.2 1.3 1.2v1.8l-1 .1zm-2.7-7.2c-1.3.42-2.3.58-3.14.7-3.85.5-3.96 1.35-3.96 2.88 0 1.6 1.17 2.1 2.78 2.1 2.8 0 4.3-1.27 4.3-4.03V12.4zm14.88 7.16v-8.9c0-2.13-.2-3.57-2.84-3.57-2.15 0-4.08.8-4.08 4.3v8.1h-2.3v-14h2.3v2.2c.5-1.1 1.34-2.6 4.5-2.6 4.6 0 4.72 2.8 4.72 4.8v9.6h-2.3zm11.22.4c-3.16 0-6.64-1.14-6.64-7.35 0-5.2 2.46-7.4 6.83-7.4 4.8 0 5.7 2.8 5.84 4.8h-2.2c-.2-1.3-.7-2.9-3.6-2.9-3.1 0-4.4 1.7-4.4 5.7 0 3.6 1 5.4 4.4 5.4 3.5 0 3.6-1.7 3.8-3.3h2.3c0 1.9-.8 5.3-6.1 5.3zm20.84-6.63H63.67c0 2.04.24 4.74 4.28 4.74 2.74 0 3.54-.9 3.86-2.7H74c-.16 2.2-1.23 4.58-6.16 4.58-3.94 0-6.6-1.85-6.6-7.05 0-5.7 2.34-7.74 6.9-7.74 1.65 0 6.13-.03 6.13 7.1l-.03 1.07zm-6.35-6.3c-3.43 0-3.96 2.15-4.2 4.42h8.14c0-2.65-.6-4.42-3.9-4.42zm13.2 12.54c-1 0-2.4-.02-3.1-.7-.72-.66-.75-1.98-.75-2.84V8h-1.85V5.53h1.85V1.08h3.73v4.45h2.3V8h-2.3v7.26c0 .7 0 1.02.24 1.26.2.2.5.2.8.2h1.2v2.85h-2.1zm9.83 0h-3.53l-5.1-14.04h4.06l2.87 9.97 2.83-9.97h3.94L90.9 19.56z" fill="#231F20"/><path d="M149.25 5.33c-1.2 0-2.78.24-3.65 1.74l.35-1.77h-3.9l-2.8 14.28h4.42l1.5-7.7c.32-1.68.94-2.98 2.9-2.98h.86l.7-3.57h-.38zm7.27 3.57h2.2l.7-3.6h-2.2l.8-4.23h-4.4l-.8 4.25h-1.96l-.68 3.58h1.9l-1.36 6.96c-.6 3.16.35 3.8 3.38 3.8h2.5l.66-3.46h-1.58c-.56 0-.56-.13-.4-1l1.22-6.3z" fill="#E80E8A"/><path fill="#231F20" d="M4.83 7.9v11.65H2.5V7.9H.58V5.52H2.5V4.5c0-1.9.42-3.5 3.57-3.5.43 0 .9.03 1.35.05V3l-.7-.03c-1.9 0-1.9.64-1.9 1.64v1h2.6v2.3h-2.6z"/></svg>