<!--
    The MIT License (MIT)

    Copyright (c) 2016 France Télévisions

    Permission is hereby granted, free of charge, to any person obtaining a copy of this software and associated
    documentation files (the "Software"), to deal in the Software without restriction, including without limitation
    the rights to use, copy, modify, merge, publish, distribute, sublicense, and/or sell copies of the Software, and
    to permit persons to whom the Software is furnished to do so, subject to the following conditions:

    The above copyright notice and this permission notice shall be included in all copies or substantial portions of
    the Software.

    THE SOFTWARE IS PROVIDED "AS IS", WITHOUT WARRANTY OF ANY KIND, EXPRESS OR IMPLIED, INCLUDING BUT NOT LIMITED TO
    THE WARRANTIES OF MERCHANTABILITY, FITNESS FOR A PARTICULAR PURPOSE AND NONINFRINGEMENT. IN NO EVENT SHALL THE
    AUTHORS OR COPYRIGHT HOLDERS BE LIABLE FOR ANY CLAIM, DAMAGES OR OTHER LIABILITY, WHETHER IN AN ACTION OF CONTRACT,
    TORT OR OTHERWISE, ARISING FROM, OUT OF OR IN CONNECTION WITH THE SOFTWARE OR THE USE OR OTHER DEALINGS IN THE
    SOFTWARE.
-->

<svg xmlns="http://www.w3.org/2000/svg" width="152" height="59.5" viewBox="0 0 152 59.5"><path fill="#0078BF" d="M145.04 33.06V20.8c-3.8 3.1-8.1 6.25-8.1 6.25 4.12.46 7.07 2.4 8.1 6zM132.1 47.18c-8.97 0-12.75-4.42-12.58-10.6h8.73c0 1.82.73 4.36 4.28 4.36 2.94 0 4.4-1.4 4.4-4.6 0-2.93-1.23-4.23-4.33-4.23-1.76 0-3.7 1.1-3.7 1.1l-3.24-4.8 8.67-6.7H120.5v-7.6h24.54V4.4c0-.9-.5-1.13-1.43-.93l-31.1 6.73c-1.1.25-1.5.72-1.5 2v35.7c0 1.27.5 1.73 1.6 2l31.1 6.7c1 .22 1.5-.24 1.5-1.06v-16c-1.3 5.23-6 7.65-12.9 7.65z"/><path fill="#FFF" d="M145.04 14.04v6.77zm-24.54 0v7.53h13.83l-8.67 6.7 3.24 4.85s1.94-1 3.7-1c3.1 0 4.32 1.3 4.32 4.23 0 3.18-1.45 4.6-4.4 4.6-3.54 0-4.27-2.55-4.27-4.37h-8.73c-.17 6.18 3.6 10.6 12.6 10.6 6.94 0 11.58-2.42 12.92-7.64v-6.48c-1.02-3.62-3.98-5.55-8.1-6 0 0 4.3-3.16 8.1-6.26v-6.76H120.5z"/><path d="M23.93 22.96c-1.65 0-5.67 0-5.67 5.5v9.83h-2.9V20.6h2.83v3.44c1-3.94 3.9-3.9 5.4-3.9.3 0 1.1.02 1.6.1v2.72h-1.3zm17.25 15.36c-2.23 0-2.84-.5-3.25-2.22-.97 1.35-2.1 2.66-6.17 2.66-4.4 0-5.9-1.8-5.9-5.3 0-3.54 1.55-4.82 10.86-6.04 1-.13 1-1.65 1-2.16 0-2.36-1.13-2.77-4.04-2.77-3.78 0-4.32.9-4.32 3.5h-2.8c0-2.5 0-6 7.53-6 4.8 0 6.6 1.5 6.6 5.7v8.7c0 1.5.6 1.5 1.7 1.5v2.2h-1.3zm-3.38-9.08c-1.62.54-2.87.75-3.95.88-4.86.64-5 1.72-5 3.64 0 2.03 1.5 2.64 3.52 2.64 3.54 0 5.43-1.6 5.43-5.07v-2.1zm18.73 9.06V27.04c0-2.67-.23-4.5-3.58-4.5-2.7 0-5.13 1.12-5.13 5.48V38.3h-2.9V20.6h2.9v2.73c.6-1.38 1.7-3.2 5.67-3.2 5.8 0 5.9 3.55 5.9 6.1V38.3h-2.9zm14.14.46c-3.98 0-8.37-1.42-8.37-9.25 0-6.6 3.1-9.3 8.6-9.3 6.05 0 7.2 3.6 7.37 6H75.4c-.3-1.7-.9-3.6-4.6-3.6-3.97 0-5.53 2.2-5.53 7.1 0 4.5 1.22 6.8 5.5 6.8 4.32 0 4.5-2.2 4.73-4.2h2.87c0 2.3-1.02 6.6-7.7 6.6zm26.26-8.34h-13.3c0 2.57.3 5.98 5.4 5.98 3.45 0 4.46-1.15 4.86-3.4h2.7c-.2 2.76-1.6 5.76-7.8 5.76-5 0-8.3-2.33-8.3-8.88 0-7.2 2.9-9.75 8.7-9.75 2.1 0 7.7-.03 7.7 8.94l-.1 1.35zm-8-7.93c-4.32 0-5 2.7-5.3 5.5H93.9c0-3.4-.82-5.6-4.97-5.6zm-79.1 1v14.7h-2.9V23.5H4.5v-2.97h2.43V19.3c0-2.4.5-4.4 4.46-4.4.5 0 1.1.03 1.6.06v2.44c-.3 0-.6-.04-.9-.04-2.4 0-2.4.82-2.4 2.07v1.14H13v2.97H9.8z" fill="#0078BF"/></svg>