<svg xmlns="http://www.w3.org/2000/svg" width="152" height="59.5" viewBox="0 0 152 59.5"><path fill="#F07F13" d="M134.4 22.66c-4.37 0-6.16 1.92-6.16 8.72 0 6.36 1.57 9 5.37 9 5.2 0 6.1-3.3 6.1-9.55 0-5.43-1.5-8.17-5.3-8.17z"/><path fill="#F07F13" d="M133.83 47.08c-9.36 0-14.34-4.85-14.34-15.37 0-12.2 6.3-15.8 14.6-15.8 4.9 0 8.5 1.3 10.9 4V4.4c0-.9-.5-1.1-1.5-.9l-31.1 6.72c-1.2.24-1.6.7-1.6 2v35.7c0 1.27.4 1.73 1.5 2l31.1 6.7c.9.22 1.4-.24 1.4-1.06V42.9c-2.3 2.63-5.9 4.18-11.2 4.18zm-1.9-37.47h3.76l6.5 5.1H137l-3.3-2.8-3.17 2.8h-5l6.32-5z"/><path fill="#FFF" d="M145.04 19.9v23-23zm-10.94-4c-8.22 0-14.6 3.56-14.6 15.8 0 10.53 4.97 15.38 14.33 15.38 5.33 0 8.92-1.55 11.2-4.2V19.92c-2.38-2.7-6-4-10.93-4zm-.5 24.47c-3.8 0-5.36-2.63-5.36-9 0-6.8 1.8-8.7 6.15-8.7 3.7 0 5.3 2.73 5.3 8.16 0 6.25-1 9.54-6.1 9.54zm.2-28.47l3.28 2.78h5.13l-6.5-5.07H132l-6.34 5.1h5z"/><path d="M23.93 22.96c-1.65 0-5.67 0-5.67 5.5v9.83h-2.9V20.6h2.83v3.44c1-3.94 3.9-3.9 5.4-3.9.3 0 1.1.02 1.6.1v2.72h-1.3zm17.25 15.36c-2.23 0-2.84-.5-3.25-2.22-.97 1.35-2.1 2.66-6.17 2.66-4.4 0-5.9-1.8-5.9-5.3 0-3.54 1.55-4.82 10.86-6.04 1-.13 1-1.65 1-2.16 0-2.36-1.13-2.77-4.04-2.77-3.78 0-4.32.9-4.32 3.5h-2.8c0-2.5 0-6 7.53-6 4.8 0 6.6 1.5 6.6 5.7v8.7c0 1.5.6 1.5 1.7 1.5v2.2h-1.3zm-3.38-9.08c-1.62.54-2.87.75-3.95.88-4.86.64-5 1.72-5 3.64 0 2.03 1.5 2.64 3.52 2.64 3.54 0 5.43-1.6 5.43-5.07v-2.1zm18.73 9.06V27.04c0-2.67-.23-4.5-3.58-4.5-2.7 0-5.13 1.12-5.13 5.48V38.3h-2.9V20.6h2.9v2.73c.6-1.38 1.7-3.2 5.67-3.2 5.8 0 5.9 3.55 5.9 6.1V38.3h-2.9zm14.14.46c-3.98 0-8.37-1.42-8.37-9.25 0-6.6 3.1-9.3 8.6-9.3 6.05 0 7.2 3.6 7.37 6H75.4c-.3-1.7-.9-3.6-4.6-3.6-3.97 0-5.53 2.2-5.53 7.1 0 4.5 1.22 6.8 5.5 6.8 4.32 0 4.5-2.2 4.73-4.2h2.87c0 2.3-1.02 6.6-7.7 6.6zm26.26-8.34h-13.3c0 2.57.3 5.98 5.4 5.98 3.45 0 4.46-1.15 4.86-3.4h2.7c-.2 2.76-1.6 5.76-7.8 5.76-5 0-8.3-2.33-8.3-8.88 0-7.2 2.9-9.75 8.7-9.75 2.1 0 7.7-.03 7.7 8.94l-.1 1.35zm-8-7.93c-4.32 0-5 2.7-5.3 5.5H93.9c0-3.4-.82-5.6-4.97-5.6zm-79.1 1v14.7h-2.9V23.5H4.5v-2.97h2.43V19.3c0-2.4.5-4.4 4.46-4.4.5 0 1.1.03 1.6.06v2.44c-.3 0-.6-.04-.9-.04-2.4 0-2.4.82-2.4 2.07v1.14H13v2.97H9.8z" fill="#F07F13"/></svg>