<svg xmlns="http://www.w3.org/2000/svg" width="372.85" height="71.52" viewBox="0 0 372.85 71.52"><path d="M254.72 57.55v-35.1h5.77v35.1h-5.8zm36.88 0v-22.3c0-5.3-.5-8.92-7.12-8.92-5.36 0-10.2 2.2-10.2 10.85v20.37h-5.75v-35.1h5.76v5.42c1.2-2.75 3.3-6.37 11.2-6.37 11.5 0 11.8 7.04 11.8 12.13v23.92h-5.8zm20.02-29.23v29.23h-5.76V28.32h-4.83v-5.88h4.83V19.9c0-4.76 1-8.72 8.85-8.72 1.1 0 2.3.07 3.4.14v4.82c-.5 0-1.2-.07-1.7-.07-4.7 0-4.7 1.62-4.7 4.1v2.27h6.45v5.88h-6.44zM337.9 58.5c-12.47 0-16.83-6.84-16.83-18.5 0-12.54 5.36-18.5 17.5-18.5 12.26 0 16.35 7.3 16.35 18.63 0 10-3.02 18.36-17.03 18.36zm.06-32.3c-9.45 0-11 6.5-11 14.13 0 7.44 2.16 13.48 10.47 13.48 9.18 0 11.52-4.2 11.52-13.4 0-9.4-2.4-14.2-11-14.2z" fill="#0E51D1"/><path d="M55.9 27.15c-3.24 0-11.1 0-11.1 10.75v19.2h-5.67V22.55h5.55v6.72c1.96-7.72 7.64-7.65 10.62-7.65.65 0 2.1.07 3.16.2v5.33H55.9zm33.7 30c-4.38 0-5.56-1-6.36-4.34-1.9 2.7-4.08 5.3-12.06 5.3-8.57 0-11.54-3.5-11.54-10.35 0-6.92 3.04-9.42 21.23-11.8 1.98-.26 1.98-3.23 1.98-4.22 0-4.6-2.24-5.4-7.92-5.4-7.37 0-8.43 1.9-8.43 7h-5.47c0-4.8 0-11.6 14.7-11.6 9.43 0 12.93 2.95 12.93 11.2v17c0 2.9 1.18 2.95 3.3 2.95v4.3c-.8 0-1.6.06-2.37.06zm-6.62-17.73c-3.16 1.05-5.6 1.45-7.7 1.72-9.5 1.24-9.77 3.36-9.77 7.1 0 3.97 2.9 5.16 6.9 5.16 6.9 0 10.6-3.1 10.6-9.9v-4.08zm36.6 17.68V35.14c0-5.2-.47-8.78-7-8.78-5.27 0-10 2.18-10 10.7V57.1h-5.7V22.55h5.67v5.33c1.2-2.7 3.3-6.26 11.08-6.26 11.34 0 11.6 6.92 11.6 11.93V57.1h-5.67zm27.62.92c-7.78 0-16.35-2.77-16.35-18.07 0-13 6.06-18.33 16.8-18.33 11.82 0 14.06 6.92 14.4 11.73h-5.6c-.62-3.36-1.8-7.12-9-7.12-7.77 0-10.8 4.15-10.8 13.85 0 8.7 2.38 13.32 10.74 13.32 8.4 0 8.7-4.35 9.2-8.25h5.6c0 4.55-2 12.87-15 12.87zm51.3-16.3h-26c0 5.02.6 11.68 10.57 11.68 6.72 0 8.7-2.23 9.5-6.66h5.33c-.4 5.4-3.04 11.28-15.17 11.28-9.7 0-16.2-4.55-16.2-17.35 0-14.05 5.72-19.05 16.94-19.05 4.08 0 15.1-.07 15.1 17.48 0 .85-.08 1.77-.08 2.62zm-15.63-15.5c-8.44 0-9.77 5.3-10.36 10.9h20.1c0-6.53-1.6-10.9-9.7-10.9zm32.5 30.88c-2.5 0-5.87-.07-7.65-1.72-1.78-1.65-1.85-4.88-1.85-7V28.62h-4.54v-6.05h4.54V11.6h9.17v10.95h5.67v6.06h-5.6v17.9c0 1.7 0 2.5.6 3.1.5.6 1.3.6 2.1.6h3v7h-5.33zm24.2 0h-8.7l-12.53-34.55h9.95l7 24.52 7-24.52h9.7L239.52 57.1zM28.37 28.27v28.8h-5.7v-28.8h-4.74V22.5h4.75v-2.52c0-4.7 1-8.6 8.7-8.6 1.06 0 2.26.08 3.3.15v4.75c-.52 0-1.17-.07-1.7-.07-4.62 0-4.62 1.6-4.62 4.1v2.27h6.33v5.8h-6.4z" fill="#231F20"/><path fill="#0E51D1" d="M254.72 11.42h5.77v5.77h-5.8z"/></svg>