<svg class="france45rereer" xmlns="http://www.w3.org/2000/svg" width="152" height="59.5" viewBox="0 0 152 59.5"><path d="M129.04 27.48c.02 0 .1.06.1.06 1.04-.92 3.48-1.67 5.35-1.67 4.5 0 9.1 1.63 10.5 6.77v-11.1h-15.4l-.7 5.94zM143.6 3.42l-31.1 6.73c-1.14.25-1.57.72-1.57 2v35.73c0 1.28.43 1.74 1.57 2l31.1 6.7c.95.23 1.43-.23 1.44-1.05V39.47C143.68 44.6 139.07 47 132.2 47c-9 0-12.55-4.35-12.55-9.76h8.6c.2 1.65 1.2 3.55 4.34 3.55 2.6 0 4.3-1.1 4.3-4.7 0-3.3-1.9-4.3-4.5-4.3-2 0-3.2.8-4.1 1.9l-7.4-1.2 1.9-18.6H145V4.3c0-.9-.5-1.1-1.42-.9z"/><path fill="#fff" d="M121 32.62l7.4 1.2c.92-1.1 2.1-1.9 4.1-1.9 2.64 0 4.47.93 4.47 4.25 0 3.55-1.77 4.62-4.38 4.62-3.2 0-4.2-1.9-4.4-3.6h-8.6c0 5.4 3.5 9.7 12.5 9.7 6.9 0 11.5-2.4 12.8-7.6v-6.8c-1.4-5.2-6.1-6.8-10.6-6.8-1.9 0-4.3.7-5.4 1.6 0 0-.1-.04-.1 0l.6-5.97H145V14h-22.1L121 32.6z"/><path d="M23.93 22.96c-1.65 0-5.67 0-5.67 5.5v9.83h-2.9V20.6h2.83v3.44c1-3.94 3.9-3.9 5.4-3.9.3 0 1.1.02 1.6.1v2.72h-1.3zm17.25 15.36c-2.23 0-2.84-.5-3.25-2.22-.97 1.35-2.1 2.66-6.17 2.66-4.4 0-5.9-1.8-5.9-5.3 0-3.54 1.55-4.82 10.86-6.04 1-.13 1-1.65 1-2.16 0-2.36-1.13-2.77-4.04-2.77-3.78 0-4.32.9-4.32 3.5h-2.8c0-2.5 0-6 7.53-6 4.8 0 6.6 1.5 6.6 5.7v8.7c0 1.5.6 1.5 1.7 1.5v2.2h-1.3zm-3.38-9.08c-1.62.54-2.87.75-3.95.88-4.86.64-5 1.72-5 3.64 0 2.03 1.5 2.64 3.52 2.64 3.54 0 5.43-1.6 5.43-5.07v-2.1zm18.73 9.06V27.04c0-2.67-.23-4.5-3.58-4.5-2.7 0-5.13 1.12-5.13 5.48V38.3h-2.9V20.6h2.9v2.73c.6-1.38 1.7-3.2 5.67-3.2 5.8 0 5.9 3.55 5.9 6.1V38.3h-2.9zm14.14.46c-3.98 0-8.37-1.42-8.37-9.25 0-6.6 3.1-9.3 8.6-9.3 6.05 0 7.2 3.6 7.37 6H75.4c-.3-1.7-.9-3.6-4.6-3.6-3.97 0-5.53 2.2-5.53 7.1 0 4.5 1.22 6.8 5.5 6.8 4.32 0 4.5-2.2 4.73-4.2h2.87c0 2.3-1.02 6.6-7.7 6.6zm26.26-8.34h-13.3c0 2.57.3 5.98 5.4 5.98 3.45 0 4.46-1.15 4.86-3.4h2.7c-.2 2.76-1.6 5.76-7.8 5.76-5 0-8.3-2.33-8.3-8.88 0-7.2 2.9-9.75 8.7-9.75 2.1 0 7.7-.03 7.7 8.94l-.1 1.35zm-8-7.93c-4.32 0-5 2.7-5.3 5.5H93.9c0-3.4-.82-5.6-4.97-5.6zm-79.1 1v14.7h-2.9V23.5H4.5v-2.97h2.43V19.3c0-2.4.5-4.4 4.46-4.4.5 0 1.1.03 1.6.06v2.44c-.3 0-.6-.04-.9-.04-2.4 0-2.4.82-2.4 2.07v1.14H13v2.97H9.8z"/></svg>