<svg xmlns="http://www.w3.org/2000/svg" width="20" height="20" viewBox="0 0 20 20">
    <g fill="none" stroke="#FFF" stroke-width="2" stroke-miterlimit="8">
        <path
            d="M10.697 13.258L6.3 17.656c-.46.46-1.21.46-1.668 0l-2.288-2.288c-.46-.458-.46-1.208 0-1.667l4.398-4.397c.458-.46 1.208-.46 1.667 0l2.287 2.29c.46.456.46 1.206 0 1.665zM17.656 6.3l-4.398 4.397c-.46.46-1.21.46-1.666 0L9.302 8.41c-.458-.46-.458-1.21 0-1.668l4.4-4.398c.458-.46 1.208-.46 1.665 0l2.29 2.288c.458.458.458 1.208 0 1.667zM7.468 12.532l5.064-5.064"/>
    </g>
</svg>