<svg xmlns="http://www.w3.org/2000/svg" width="311.921" height="47.02" viewBox="0 0 311.921 47.02"><path fill="#0B0817" class="logoPartFranceTv" d="M30.992 19.49v-4.974h-4.1v25.532h4.195v-14.17c0-7.95 5.803-7.95 8.194-7.95h1.9v-3.95c-.77-.097-1.85-.145-2.34-.145-2.19 0-6.38-.05-7.84 5.657m32.52 15.217V22.123c0-6.097-2.58-8.29-9.56-8.29-10.87 0-10.87 5.022-10.87 8.582h4.05c0-3.755.78-5.17 6.25-5.17 4.2 0 5.858.585 5.858 4 0 .732 0 2.927-1.466 3.12-13.46 1.757-15.705 3.61-15.705 8.73 0 5.072 2.2 7.66 8.54 7.66 5.9 0 7.51-1.903 8.927-3.854.588 2.49 1.46 3.22 4.68 3.22.588 0 1.17-.05 1.76-.05V36.9c-1.56 0-2.44-.047-2.44-2.193m-4.195-4.683c0 5.023-2.73 7.317-7.85 7.317-2.927 0-5.07-.88-5.07-3.8 0-2.78.19-4.34 7.214-5.27 1.56-.19 3.36-.48 5.7-1.26v3.03zM82 13.834c-5.756 0-7.316 2.633-8.194 4.63v-3.95H69.61V40.05h4.196V25.245c0-6.29 3.51-7.903 7.415-7.903 4.83 0 5.17 2.636 5.17 6.49v16.216h4.19V22.66c0-3.706-.19-8.827-8.58-8.827m24.97 23.507c-6.19 0-7.95-3.414-7.95-9.85 0-7.17 2.25-10.244 8-10.244 5.32 0 6.2 2.78 6.64 5.267h4.15c-.24-3.56-1.9-8.68-10.64-8.68-7.94 0-12.43 3.95-12.43 13.558 0 11.32 6.34 13.37 12.1 13.37 9.66 0 11.12-6.14 11.12-9.51h-4.15c-.34 2.88-.583 6.1-6.824 6.1m26.67-23.51c-8.29 0-12.534 3.71-12.534 14.1 0 9.46 4.82 12.83 11.99 12.83 8.97 0 10.923-4.34 11.22-8.34h-3.95c-.59 3.27-2.05 4.93-7.027 4.93-7.366 0-7.805-4.92-7.805-8.63h19.216c0-.63.05-1.31.05-1.95 0-12.97-8.15-12.92-11.17-12.92m-8.095 11.46c.44-4.14 1.413-8.05 7.656-8.05 6 0 7.17 3.22 7.17 8.05h-14.82zm51.64-10.78l-5.17 18.14-5.22-18.14H157v-8.1h-6.78v8.1h-3.36v4.49h3.362v14.63c0 1.564.05 3.954 1.368 5.17 1.32 1.22 3.81 1.27 5.66 1.27h3.954v-5.2H159c-.585 0-1.17 0-1.56-.39-.44-.437-.44-1.02-.44-2.29V19.003h4.066l7.636 21.046h6.437l9.22-25.532h-7.18zM14.23 12.65v1.87H10.7v4.3h3.53v21.23h4.22V18.81h4.703v-4.3h-4.71v-1.67c0-1.816 0-2.994 3.43-2.994.397 0 .88.048 1.276.048v-3.53c-.788-.05-1.67-.098-2.456-.098-5.732 0-6.47 2.895-6.47 6.374"/><g transform="scale(1.96,1.89) translate(97.3,7.3)"><path fill="#FF5B50" fill-rule="evenodd" class="logoPartZoom" d="M53.14 13.98v-8c0-1.46-1.14-2.65-2.54-2.65-1.38 0-2.5 1.16-2.54 2.6V14h-3.38v-8c0-1.46-1.14-2.65-2.54-2.65-1.4 0-2.5 1.17-2.54 2.6V14h-3.4V.28h3.4v2.24C40.33 1.02 41.83 0 43.57 0c1.7 0 3.15.96 3.92 2.4C48.28.95 49.95 0 51.95 0c2.48 0 4.6 2.1 4.6 4.68v9.3h-3.4zM35.5 8.04l-.1.55-.15.52c-.05.18-.1.35-.17.52l-.22.5-.25.47c-.08.17-.17.32-.27.47-.1.14-.2.3-.32.42-.1.13-.2.26-.33.4-.12.12-.24.25-.37.36-.12.12-.26.24-.4.35-.13.12-.27.22-.4.32-.15.1-.3.18-.46.27l-.46.23c-.16.07-.32.14-.5.2-.15.06-.32.1-.5.16-.16.04-.33.08-.5.1-.18.05-.36.07-.54.1L29 14c-.23 0-.44 0-.66-.02-.22-.02-.44-.05-.66-.1-.2-.03-.43-.08-.64-.14l-.6-.2-.6-.28c-.18-.1-.36-.2-.54-.33-.18-.12-.35-.24-.5-.38.84-.7 1.53-1.6 1.98-2.64.12.1.25.2.38.27.18.1.38.2.58.28.2.08.42.13.64.17.22.04.43.05.65.04l.53-.07c.18-.03.34-.08.5-.14.18-.07.34-.15.5-.23.15-.1.3-.18.43-.3.13-.1.26-.2.38-.34.12-.13.24-.26.34-.4.1-.15.2-.3.28-.46.08-.16.15-.33.2-.5.07-.18.1-.36.14-.54.04-.18.06-.37.06-.56 0-.2 0-.38-.02-.57l-.1-.55c-.06-.18-.12-.35-.2-.5-.06-.18-.15-.33-.24-.48-.1-.15-.2-.3-.32-.42-.12-.14-.24-.26-.37-.38s-.27-.23-.42-.32c-.16-.1-.3-.18-.47-.25-.16-.07-.33-.13-.5-.17-.17-.05-.35-.08-.53-.1h-.55c-.18 0-.36.04-.53.08-.17.05-.34.1-.5.17-.16.07-.32.15-.47.24l-.43.3c-.14.12-.26.24-.38.37s-.23.27-.33.42c-.1.14-.2.3-.26.46-.08.16-.14.33-.2.5-.04.18-.08.36-.1.54-.03.18-.05.37-.05.56v.3c0 .22-.03.45-.06.68-.03.23-.07.45-.12.67-.05.22-.1.44-.18.65l-.24.62c-.1.2-.18.4-.3.6-.1.18-.2.36-.33.54-.12.18-.25.36-.38.52-.07.1-.15.18-.23.27l-.55.52-.6.48c-.2.14-.43.27-.65.4-.22.1-.45.22-.7.3-.22.1-.47.2-.7.25s-.5.12-.75.15c-.26.04-.5.06-.76.07-.2 0-.4 0-.6-.02-.2 0-.37-.03-.56-.06l-.52-.1-.5-.15c-.18-.06-.35-.12-.5-.2l-.5-.2-.45-.27-.44-.3c-.14-.1-.27-.2-.4-.33-.14-.1-.27-.23-.4-.36-.1-.13-.23-.26-.35-.4l-.33-.42-.3-.45-.25-.46c-.08-.16-.16-.32-.23-.5l-.2-.5-.14-.53c-.05-.18-.1-.36-.12-.54l-.06-.56-.03-.57c0-.2 0-.38.02-.58l.06-.57.1-.55.14-.54c.05-.17.1-.34.18-.5l.2-.5c.1-.17.18-.33.26-.5l.3-.44.3-.43.35-.4.38-.37.4-.34.43-.3c.15-.1.3-.2.45-.28.16-.1.3-.17.47-.24.16-.07.32-.14.5-.2.15-.06.32-.1.5-.16.17-.05.34-.1.52-.12l.54-.08.55-.03c.22 0 .44 0 .65.03.22.02.44.05.66.1.2.03.43.08.64.14.2.06.4.14.6.22l.6.28c.2.1.37.22.55.34.18.1.35.24.52.38-.85.7-1.54 1.6-2 2.63-.1-.1-.24-.18-.37-.26-.2-.1-.38-.2-.58-.27-.2-.07-.42-.13-.64-.16-.2-.03-.42-.04-.64-.04-.18 0-.36.03-.54.07-.17.04-.35.08-.5.15-.18.06-.33.13-.5.22-.14.08-.3.18-.43.3-.14.1-.27.2-.4.34-.1.14-.22.27-.32.42-.1.14-.2.3-.28.46-.08.16-.15.32-.2.5-.06.17-.1.34-.14.53-.03.2-.04.4-.05.57 0 .2 0 .38.02.57l.1.55c.06.16.12.34.2.5.07.16.15.32.25.47l.3.43c.12.14.25.26.38.37.13.1.27.22.42.3.14.1.3.18.46.25.16.08.33.13.5.18.17.05.35.08.53.1.2 0 .38.02.56 0 .18 0 .36-.03.53-.07.16-.04.33-.1.5-.16.15-.07.3-.14.46-.24.15-.1.3-.2.42-.3l.38-.37c.12-.13.22-.27.32-.42.1-.14.2-.3.26-.46.08-.17.14-.34.2-.5.05-.2.1-.37.12-.55.03-.2.04-.38.04-.57v-.3l.07-.68c.03-.22.07-.45.12-.67.04-.2.1-.42.17-.63l.23-.6c.1-.2.18-.4.3-.6.1-.18.2-.36.33-.54.1-.18.24-.35.38-.52l.34-.36c.17-.18.36-.36.55-.53l.6-.45c.22-.14.43-.26.66-.38.23-.12.46-.22.7-.3.24-.1.48-.17.73-.23.23-.06.5-.1.74-.14.25-.03.5-.05.76-.05.15 0 .3 0 .44.02l.54.06.53.1.52.16c.16.05.33.1.5.18l.46.23.46.27.43.3c.14.1.28.2.4.33l.4.36.35.4.33.4.3.45.25.48.23.48.2.5.14.54c.04.18.08.36.1.54l.1.56.02.57c0 .2 0 .4-.02.58 0 .2-.03.38-.06.56zM0 10.7l7-7.1H.23V.32h11.62V3.6l-7 7.1h7v3.28H0V10.7z"/></g></svg>