<svg xmlns="http://www.w3.org/2000/svg" viewBox="0 0 200.485 97.087"><g fill="#FFF"><path class="placehoderTop" d="M29.383 20.13v-5.3H25.02v27.195h4.465v-15.09c0-8.467 6.182-8.467 8.727-8.467h2.025V14.26c-.83-.103-1.974-.156-2.493-.156-2.335 0-6.806-.05-8.36 6.026M64.024 36.337V22.935c0-6.494-2.752-8.83-10.18-8.83-11.583 0-11.583 5.35-11.583 9.142h4.307c0-4 .834-5.508 6.652-5.508 4.468 0 6.23.625 6.23 4.26 0 .78 0 3.117-1.556 3.324-14.336 1.87-16.727 3.845-16.727 9.298 0 5.4 2.34 8.156 9.092 8.156 6.282 0 7.997-2.027 9.503-4.104.624 2.65 1.557 3.428 4.987 3.428.624 0 1.247-.053 1.87-.053v-3.376c-1.658 0-2.596-.05-2.596-2.337m-4.47-4.987c0 5.35-2.907 7.794-8.36 7.794-3.115 0-5.4-.938-5.4-4.054 0-2.96.208-4.623 7.687-5.61 1.66-.207 3.583-.52 6.075-1.352v3.222zM83.707 14.105c-6.13 0-7.792 2.804-8.727 4.932v-4.205h-4.47v27.194h4.47V26.26c0-6.702 3.738-8.417 7.897-8.417 5.143 0 5.506 2.807 5.506 6.913v17.27h4.465v-18.52c0-3.95-.21-9.4-9.14-9.4M110.297 39.143c-6.597 0-8.47-3.637-8.47-10.493 0-7.638 2.392-10.91 8.523-10.91 5.66 0 6.595 2.962 7.063 5.61h4.416c-.26-3.792-2.026-9.244-11.328-9.244-8.46 0-13.244 4.208-13.244 14.44 0 12.05 6.753 14.232 12.882 14.232 10.286 0 11.843-6.544 11.843-10.13h-4.414c-.364 3.067-.626 6.495-7.273 6.495M138.704 14.104c-8.828 0-13.35 3.95-13.35 15.012 0 10.076 5.14 13.662 12.774 13.662 9.56 0 11.64-4.625 11.95-8.88h-4.207c-.623 3.478-2.182 5.245-7.48 5.245-7.84 0-8.31-5.246-8.31-9.197h20.462c0-.674.055-1.4.055-2.077 0-13.816-8.673-13.766-11.893-13.766m-8.62 12.208c.467-4.416 1.503-8.573 8.153-8.573 6.386 0 7.636 3.43 7.636 8.572h-15.79zM185.082 14.832l-5.503 19.323-5.56-19.323H163.58V6.208h-7.22v8.624h-3.582v4.78h3.582v15.58c0 1.665.053 4.21 1.454 5.505 1.403 1.3 4.056 1.35 6.024 1.35h4.21v-5.504h-2.34c-.62 0-1.244 0-1.657-.415-.47-.466-.47-1.09-.47-2.44V19.61h4.332l8.134 22.416h6.856l9.82-27.194h-7.64zM11.523 12.834v1.987H7.765v4.58h3.758v22.617h4.493V19.4h5.014v-4.58h-5.014v-1.776c0-1.933 0-3.186 3.652-3.186.424 0 .94.05 1.362.05V6.15c-.84-.054-1.78-.104-2.613-.104-6.108 0-6.894 3.085-6.894 6.79"/><polygon points="48.253 59.606 48.253 49.688 11.634 49.688 11.634 59.606 32.92 59.606 10.876 81.017 10.867 81.017 10.867 90.935 48.253 90.935 48.253 81.017 26.2 81.017"/><path class="placehoderBottom" d="M189.108 62.84c0-7.82-6.676-14.15-14.492-14.15-6.298 0-11.582 2.92-14.013 7.25-2.424-4.33-7.052-7.25-12.357-7.25-5.46 0-10.198 3.096-12.56 7.627v-6.74h-10.674V90.93h10.675V66.657c.083-4.36 3.637-7.868 8.013-7.868 4.427 0 8.018 3.588 8.018 8.013l.004 24.136h10.68v-24.29c.085-4.354 3.633-7.86 8.006-7.86 4.423 0 8.007 3.576 8.018 7.992v24.157h10.682V62.84zM101.855 48.75c-.806 0-1.612.046-2.41.138-.798.09-1.59.226-2.37.404-.774.178-1.54.404-2.294.668-.75.272-1.492.578-2.208.93-.705.348-1.388.732-2.055 1.156-.67.426-1.315.89-1.935 1.386-.617.494-1.206 1.032-1.76 1.597-.36.364-.71.74-1.046 1.13-.424.5-.83 1.017-1.206 1.555-.382.538-.73 1.094-1.067 1.667-.325.573-.628 1.164-.905 1.766-.277.608-.525 1.228-.74 1.858-.22.637-.406 1.282-.564 1.937-.158.665-.285 1.34-.382 2.012-.097.69-.156 1.38-.184 2.075-.01.29-.018.578-.018.867h-.002c0 .575-.044 1.142-.132 1.713-.084.55-.215 1.1-.387 1.634-.168.525-.374 1.036-.616 1.53-.242.486-.516.956-.832 1.404-.31.448-.652.867-1.02 1.263-.375.392-.774.756-1.198 1.095-.428.336-.876.646-1.346.916-.477.276-.973.51-1.482.71-.518.2-1.05.365-1.594.483-.55.125-1.12.2-1.684.24-.58.032-1.16.03-1.737-.02-.56-.06-1.117-.153-1.666-.29-.54-.133-1.067-.31-1.577-.528-.503-.21-.99-.46-1.456-.744-.465-.28-.904-.6-1.323-.948-.415-.345-.806-.718-1.166-1.127-.357-.408-.693-.837-.99-1.29-.295-.458-.563-.932-.792-1.433-.23-.496-.428-1.015-.58-1.548-.152-.538-.266-1.09-.34-1.65-.068-.572-.097-1.15-.084-1.727.018-.57.077-1.14.182-1.702.103-.55.248-1.09.433-1.616.18-.52.4-1.02.656-1.51.257-.48.547-.942.872-1.377.32-.437.672-.846 1.056-1.234.382-.383.79-.74 1.225-1.064.436-.325.895-.62 1.378-.874.483-.26.984-.485 1.498-.672.53-.182 1.07-.33 1.614-.437.558-.108 1.13-.17 1.702-.19.68-.023 1.362.016 2.03.115.684.105 1.354.27 2.006.5.637.225 1.254.51 1.838.847.415.242.817.505 1.2.797 1.422-3.136 3.594-5.86 6.282-7.954-.53-.41-1.072-.8-1.636-1.153-.562-.362-1.146-.696-1.74-1-.6-.306-1.218-.583-1.843-.834-.63-.247-1.277-.462-1.93-.65-.662-.19-1.336-.348-2.008-.467-.687-.132-1.384-.217-2.08-.275-.685-.06-1.375-.077-2.062-.07-.578.01-1.15.04-1.73.097-.563.053-1.125.13-1.685.23-.55.1-1.102.22-1.643.363-.538.14-1.072.305-1.594.487-.518.182-1.034.38-1.535.604-.503.22-.99.462-1.476.715-.483.26-.95.538-1.41.835-.457.294-.903.602-1.337.93-.43.326-.85.673-1.26 1.03-.405.36-.794.73-1.174 1.12-.376.39-.742.79-1.087 1.204-.348.422-.677.848-.994 1.29-.312.445-.613.9-.892 1.367-.28.467-.545.945-.79 1.433-.24.494-.47.99-.675 1.5-.207.514-.398 1.037-.56 1.56-.172.532-.317 1.07-.442 1.615-.127.547-.23 1.098-.31 1.66-.083.564-.145 1.133-.184 1.702-.04.582-.053 1.16-.042 1.74.01.58.042 1.154.1 1.727.054.57.13 1.13.23 1.687.1.556.222 1.102.365 1.647.138.535.303 1.07.485 1.593.182.518.39 1.034.61 1.537.22.5.462.993.72 1.476.258.477.535.95.83 1.406.293.46.6.903.93 1.335.33.433.672.852 1.03 1.258.362.406.73.797 1.122 1.173.39.382.79.74 1.208 1.087.42.347.845.68 1.29.995.445.314.9.606 1.367.892.465.28.943.54 1.43.784.493.246.998.47 1.5.676.515.204 1.038.393 1.565.562.527.165 1.07.31 1.612.435.55.124 1.102.232 1.658.313.57.08 1.138.143 1.706.178.63.04 1.255.054 1.885.038.802-.02 1.6-.083 2.396-.19.79-.107 1.57-.263 2.342-.458.78-.2 1.544-.44 2.29-.727.744-.28 1.47-.606 2.172-.973.698-.356 1.377-.76 2.025-1.19.658-.444 1.292-.922 1.9-1.43.598-.507 1.17-1.045 1.712-1.616.253-.268.5-.54.738-.82.428-.497.832-1.02 1.214-1.552.378-.54.73-1.096 1.058-1.667.33-.575.635-1.164.907-1.768.276-.608.524-1.228.743-1.858.217-.638.404-1.288.564-1.94.156-.665.283-1.335.378-2.012.1-.687.158-1.377.187-2.07.01-.293.015-.583.015-.873h.004c0-.57.045-1.146.133-1.71.09-.552.213-1.097.384-1.633.17-.525.373-1.04.62-1.528.238-.49.517-.957.83-1.405.31-.447.65-.868 1.024-1.268.37-.39.77-.76 1.196-1.09.424-.34.876-.644 1.346-.917.474-.272.968-.51 1.48-.707.52-.202 1.054-.365 1.592-.485.556-.123 1.12-.204 1.69-.24.577-.036 1.154-.025 1.73.025.57.055 1.124.15 1.67.285.54.136 1.068.31 1.573.525.505.215.995.463 1.463.75.466.28.905.596 1.322.948.417.347.804.72 1.166 1.124.36.404.692.837.988 1.293.303.455.57.93.797 1.427.228.498.424 1.017.575 1.548.154.545.272 1.09.343 1.65.074.574.098 1.154.082 1.73-.015.572-.077 1.14-.18 1.7-.1.55-.25 1.088-.433 1.617-.18.518-.398 1.023-.658 1.507-.255.485-.55.947-.867 1.38-.323.436-.68.85-1.06 1.233-.38.382-.794.738-1.23 1.063-.436.327-.89.617-1.372.876-.483.26-.986.483-1.507.668-.525.19-1.06.332-1.61.44-.562.106-1.13.17-1.7.19-.68.02-1.362-.015-2.038-.116-.678-.1-1.35-.272-2-.498-.635-.224-1.252-.507-1.836-.843-.42-.242-.817-.512-1.2-.804-1.428 3.14-3.594 5.867-6.284 7.962.527.406 1.072.795 1.636 1.153.564.358 1.144.69 1.74.997.6.303 1.218.582 1.844.828.63.25 1.276.472 1.93.657.66.19 1.33.347 2.01.468.69.127 1.38.217 2.08.277.682.053 1.37.077 2.057.066.578-.007 1.155-.042 1.73-.092.565-.057 1.128-.134 1.69-.235.55-.098 1.098-.22 1.643-.355.538-.147 1.07-.31 1.59-.494.523-.18 1.034-.383 1.54-.603.5-.217.994-.46 1.475-.72.48-.255.95-.53 1.408-.826.46-.293.906-.605 1.338-.935.43-.325.854-.668 1.256-1.03.404-.354.802-.73 1.177-1.113.376-.393.743-.793 1.088-1.212.347-.415.68-.848.99-1.287.314-.446.615-.9.894-1.366.28-.466.542-.944.786-1.434.246-.492.47-.993.683-1.502.205-.508.392-1.03.557-1.558.167-.53.316-1.065.442-1.61.126-.55.227-1.105.313-1.662.084-.567.145-1.13.178-1.704.04-.578.056-1.16.047-1.744-.01-.575-.042-1.153-.1-1.724-.054-.567-.133-1.13-.232-1.687-.1-.552-.22-1.1-.362-1.644-.145-.536-.305-1.067-.487-1.592-.184-.52-.387-1.034-.608-1.54-.222-.5-.46-.99-.723-1.473-.255-.478-.534-.948-.826-1.407-.295-.46-.607-.9-.934-1.335-.33-.433-.672-.85-1.03-1.258-.36-.402-.734-.795-1.127-1.173-.385-.378-.79-.738-1.205-1.085-.422-.35-.85-.676-1.29-.993-.442-.317-.897-.612-1.365-.895-.47-.277-.947-.542-1.436-.782-.492-.248-.993-.472-1.5-.68-.512-.205-1.032-.396-1.557-.56-.536-.166-1.072-.317-1.616-.434-.546-.128-1.104-.236-1.66-.315-.563-.08-1.134-.145-1.705-.18-.458-.03-.92-.045-1.38-.045"/></g></svg>