<svg xmlns="http://www.w3.org/2000/svg" width="21" height="17" viewBox="0 0 26 20"><g fill="none" stroke="#7B7B7B" stroke-miterlimit="10" stroke-linecap="round" stroke-linejoin="round"><path d="M2.5 12.6l.7 2.8 20.2 1.5-4-14.8L2.5 12.6zm11.1 3.7l-.1 1.3c-.1.9-.8 1.6-1.7 1.5L9.7 19c-.9-.1-1.6-.8-1.5-1.7l.1-1.2m15.2.8c.1.5.7.8 1.2.7.5-.1.8-.7.7-1.2l-4-14.8c-.1-.5-.7-.8-1.2-.7-.5.1-.8.7-.7 1.2l4 14.8z"/><path d="M1.4 15.8c.1.5.7.8 1.2.7.5-.1.8-.7.7-1.2l-.7-2.8c-.1-.5-.7-.8-1.2-.7-.5.1-.8.7-.7 1.2l.7 2.8z"/></g></svg>