<svg xmlns="http://www.w3.org/2000/svg" xmlns:xlink="http://www.w3.org/1999/xlink" preserveAspectRatio="xMidYMid" width="21" height="18" viewBox="0 0 21 18">
    <path class="speaker" d="M18.120,16.163
    C8.219,17.406 7.889,17.134 7.461,16.775
    C7.461,16.775 3.731,13.676 3.731,13.676
    C3.731,13.676 1.244,13.676 1.244,13.676
    C0.560,13.676 0.000,13.116 0.000,12.432
    C0.000,12.432 0.000,4.971 0.000,4.971
    C0.000,4.287 0.560,3.728 1.244,3.728
    C1.244,3.728 3.731,3.728 3.731,3.728
    C3.731,3.728 7.461,0.629 7.461,0.629
    C7.888,0.270 8.219,-0.002 8.705,-0.002
    C9.462,-0.002 9.948,0.609 9.948,1.241
    C9.948,1.241 9.948,16.163 9.948,16.163
    C9.948,16.794 9.462,17.406 8.705,17.406 Z"/>
    <g>
        <path class="wave" d="
        M18.120,16.163
        C17.599,17.264 17.108,17.406 16.671,17.406
        C15.932,17.406 15.427,16.785 15.427,16.163
        C15.427,15.123 17.409,13.345 17.409,8.702
        C17.409,4.058 15.427,2.281 15.427,1.241
        C15.427,0.619 15.932,-0.002 16.671,-0.002
        C17.108,-0.002 17.601,0.140 18.122,1.241
        C18.691,2.446 19.896,4.874 19.896,8.702
        C19.896,12.529 18.691,14.958 18.120,16.163 ZM12.435,14.919 Z" />
        <path class="wave" d="
        M18.120,16.163
        C11.658,14.919 11.191,14.268 11.191,13.676
        C11.191,12.792 12.435,11.947 12.435,8.702
        C12.435,5.457 11.191,4.612 11.191,3.728
        C11.191,3.135 11.658,2.485 12.435,2.485
        C13.066,2.485 13.445,2.824 13.853,3.728
        C14.617,5.420 14.922,7.041 14.922,8.702
        C14.922,10.363 14.617,11.984 13.853,13.676
        C13.445,14.579 13.066,14.919 12.435,14.919 ZM8.705,17.406 Z" />
    </g>
    <g>
        <path class="cross" d="M20.293,3.199 C20.293,3.199 21.707,4.613 21.707,4.613 C21.707,4.613 12.707,13.613 12.707,13.613 C12.707,13.613 11.293,12.199 11.293,12.199 C11.293,12.199 20.293,3.199 20.293,3.199 " />
        <path class="cross" d="M11.293,4.613 C11.293,4.613 12.707,3.199 12.707,3.199 C12.707,3.199 21.707,12.199 21.707,12.199 C21.707,12.199 20.293,13.613 20.293,13.613 C20.293,13.613 11.293,4.613 11.293,4.613 " />
    </g>
</svg>
