<svg width="120px" height="120px" viewBox="5.433 -0.386 113.386 113.386">
    <g>
        <path fill="none" stroke="#FFFFFF" stroke-linecap="round" stroke-linejoin="round" stroke-miterlimit="10" d="M99.971,89.366
            c-9.165,10.385-22.578,16.94-37.523,16.94c-27.625,0-50.018-22.393-50.018-50.021V43.778l18.755,18.76" ng-attr-style="{{getStyleFillColor('stroke')}}"/>
        <path fill="none" stroke="#FFFFFF" stroke-linecap="round" stroke-linejoin="round" stroke-miterlimit="10" d="M12.822,62.539
            h18.365H12.822z" ng-attr-style="{{getStyleFillColor('stroke')}}"/>
        <path fill="none" stroke="#FFFFFF" stroke-linecap="round" stroke-linejoin="round" stroke-miterlimit="10" d="M99.971,89.366
            c-9.165,10.385-22.578,16.94-37.523,16.94c-27.625,0-50.018-22.393-50.018-50.021V43.778l18.755,18.76" ng-attr-style="{{getStyleFillColor('stroke')}}"/>
        <path fill="none" stroke="#FFFFFF" stroke-linecap="round" stroke-linejoin="round" stroke-miterlimit="10" d="M24.28,23.249
            C33.445,12.862,46.859,6.308,61.804,6.308c27.625,0,50.018,22.392,50.018,50.022v12.506L93.067,50.075" ng-attr-style="{{getStyleFillColor('stroke')}}"/>
        <path fill="none" stroke="#FFFFFF" stroke-linecap="round" stroke-linejoin="round" stroke-miterlimit="10" d="M111.43,50.074
            H93.064H111.43z" ng-attr-style="{{getStyleFillColor('stroke')}}"/>
    </g>
</svg>
