<?xml version="1.0" encoding="utf-8"?>
<!-- Generator: Adobe Illustrator 17.0.0, SVG Export Plug-In . SVG Version: 6.00 Build 0)  -->
<!DOCTYPE svg PUBLIC "-//W3C//DTD SVG 1.1//EN" "http://www.w3.org/Graphics/SVG/1.1/DTD/svg11.dtd">
<svg version="1.1" id="Calque_1" xmlns="http://www.w3.org/2000/svg" xmlns:xlink="http://www.w3.org/1999/xlink" x="0px" y="0px"
    width="110px" height="100px" viewBox="0 0 110 100" enable-background="new 0 0 110 100" xml:space="preserve">
<path fill="none" stroke-width="2" stroke-miterlimit="10" d="M77.912,58.644
    c-1.548,1.542-2.246,3.711-1.895,5.841L80.292,90L58.375,78.207c-1.053-0.568-2.21-0.849-3.376-0.849
    c-1.16,0-2.324,0.283-3.374,0.849L29.703,90l4.278-25.515c0.356-2.13-0.345-4.299-1.892-5.841L13.668,40.253l25.139-3.746
    c2.296-0.34,4.273-1.775,5.262-3.827L55.001,10L65.93,32.685c0.991,2.051,2.963,3.483,5.26,3.826l25.142,3.744L77.912,58.644z"/>
</svg>
