<svg xmlns="http://www.w3.org/2000/svg" width="325" height="165" viewBox="0 0 490.695 236.965"><g fill="#FFF"><path d="M225.288 128.92c-1.092-.82-14.38-.454-14.38-.454s-1.186-1.184-2.186-2.73c-1-1.547-4.277-4.097-9.648-6.918-5.37-2.82-14.836-3.914-22.027-2.548-7.19 1.365-15.11 11.195-15.11 11.195s-6.28-.546-13.014-1.092c-6.736-.546-12.652-1.184-13.29-.364-.637.817-1 5.46-.818 6.55.182 1.095 6.098 1.822 15.29 2.37 9.195.544 29.49 1.728 46.422 1.27 16.93-.453 29.218-2.91 29.582-3.002.36-.09.27-3.457-.822-4.278zm-42.69-12.013c5.646 0 13.29 3.914 13.29 3.914s-8.738-1.456-12.924-1.546c-4.188-.09-11.925 3.276-11.925 3.276s5.917-5.643 11.56-5.643zm6.008 11.65c-9.1 0-21.207-.638-21.207-.638s3.913-1.64 7.28-3.37c3.37-1.728 8.92-3.457 12.743-3.64 3.822-.182 12.472 2.55 15.84 3.915 3.366 1.365 4.275 3.73 4.275 3.73l-18.932.002zM149.836 203.116s-10.83-7.093-10.448-8.437c.383-1.343.862-.19 1.63-2.013.767-1.82 1.438-2.78 1.438-3.163 0-.385.767-2.108 1.724-2.108.96 0 6.998 2.49 11.31 5.174 4.315 2.686 5.465 4.89 7.958 4.41 2.49-.48 18.21-8.914 20.512-7.285 2.3 1.63 8.914 8.627 11.695 9.778l2.778 1.15s16.392 1.533 19.842 2.395c3.45.864 7.19 2.78 7.573 6.614.382 3.834.48 5.464-.096 7.572-.574 2.108-2.588 4.217-3.067 4.314-.48.095-1.15-.192-1.15.287s-1.054 1.055-1.726 1.247c-.673.19-1.343.478-1.343.19s-.48-.67-.672-.096c-.19.574-1.055.862-2.204.862s-1.245-.957-1.628-.575c-.384.385.096 1.055-1.054 1.15-1.15.097-1.534.097-1.534.097s-.48-.672-.767-.672-.575.96-.575.96l-2.398.094s-.382-.86-.765-.86c-.386 0-.577 1.148-.577 1.148l-2.204-.096s0-.67-.288-.67-1.055.862-1.055.862l-2.014-.097s0-.863-.48-.863c-.477 0-1.054.672-1.054.672l-2.3-.1s0-.86-.48-.86-.575.767-.575.767l-2.972-.095s.098-.48-.19-.48c-.29 0-.863.383-.863.383l-3.45-.862s-.096-.574-.48-.574h-.382l-2.014-.193s.192-.575-.095-.575c-.29 0-.673.288-.673.288l-2.014-1.247s-3.643-.382-8.147-.48c-4.505-.094-6.52 1.056-7.955 2.11-1.437 1.056-2.97 1.15-2.97 1.15l-.29.575-2.778.095s0-.574-.67-.574-.67.67-.67.67h-3.55s-.094-.478-.478-.478c-.383 0-.862.67-.862.67h-3.258s.287-.67-.575-.67c-.865 0-.865.67-.865.67l-3.45-.096s.287-.957-.095-.957c-.385 0-.864.574-.864.574l-3.45-1.44s-.096-.573-.383-.573-1.054.288-1.054.288-3.164-2.49-4.41-4.89c-1.247-2.396-1.535-9.68.095-11.31 1.63-1.63 6.71-2.876 9.873-3.066 3.16-.192 3.928-.766 3.928-.766z"/></g><g fill="#FFF"><path d="M17.89 133.93l3.316.214s-.642-30.183 2.248-32.11c2.89-1.927 7.92-.32 12.63 8.134 4.71 8.455 10.595 21.084 16.803 24.19 6.208 3.103 12.522 2.032 22.797 0 10.274-2.036 22.154-4.07 21.727-7.923-.427-3.852-6.635-5.993-13.163-7.92-6.53-1.925-9.205-2.996-11.346-2.996-2.14 0-11.13 2.032-16.16-1.606-5.03-3.64-16.91-20.764-22.69-31.253-5.78-10.487-12.95-18.408-13.914-18.408-.963 0-5.993 6.1-8.99 12.843s-2.89 10.168-2.354 11.452c.535 1.284 5.672 8.776 6.85 15.626 1.176 6.852 2.247 29.756 2.247 29.756zM9.608 210.908s-2.133 1.133-2.133 1.932c0 .8.333 1.732.333 1.732s0 6.46.268 6.926c.266.466 3.462 1.532 4.128 1.532s.268-.8 1-.8 1.398 1 1.398 1l2.796.2s.135-.6.934-.6.866.866.866.866h.73s.068-.732 1.067-.732c.998 0 .998.666.998.666s3.93.2 5.462.133c1.532-.067 4.13-.067 4.13-.067s.066.533.532.533c.465 0 3.264-.467 3.264-.467s.134.733.933.733 3.93-.467 3.93-.467-.2.732.333.732.932-.733 1.465-.733.734.6 1.267.798c.53.2 1.532.2 2.13.133.6-.065 1.934-.865 2.6-.732.665.133 0 1.066.53 1.066.533 0 2.53.133 2.6-.067s-.2-.8.665-.8 2.064-.2 2.33 0c.268.2-.065.934.333 1 .4.066 2.266-.066 2.266-.066s.2-1.065.867-1.065 1 .866 1.332.866c.33 0 1.596-.2 1.863-.2.266 0 .4-.332.4-.332s.864.333 1.863.333 2.465-.398 2.73-.398 1.4.066 2.466.066c1.064 0 1.064-.333 1.064-.333s2.132 0 5.13-.267c2.995-.266 5.126-.666 5.394-1 .266-.332.73 0 .73 0s1.467.134 2-.066c.53-.2.6-.8.932-.732.333.066.6.533 1.2.533s3.195-.466 3.46-.732c.27-.266.47-1.198 1.135-1.065.666.134.8.8 1.064.8.27 0 7.86-2.33 7.926-4.462.067-2.132-.133-3.13-.133-3.13s.666-1.666-.133-2.597c-.798-.933-1.53-.8-1.53-.8s-.667-5.394-5.328-7.525c-4.664-2.13-14.12-4.328-22.244-8.324-8.126-3.997-14.92-6.66-14.92-6.66s.067-.866-.332-1.065c-.4-.2-1.265-.266-1.265-.266s.532-10.59.665-13.32c.135-2.73.468-5.793.067-5.793-.398 0-4.73-1.264-9.988-1.264-5.263 0-11.19 3.063-15.253 2.13-4.062-.93-13.318-3.73-15.05-3.196-1.733.534-2.4 3.264-2.4 4.862s1.067 8.392 1.333 11.455c.268 3.064 1.2 6.194 1 8.06-.2 1.863-3.728 14.65-3.596 17.248.134 2.596.4 3.793.4 3.793z"/></g><g fill="#FFF"><path d="M295.057 87.09s2.28-.598 3.475.326c1.192.924 1.192 2.388 1.192 2.388s.49.325.49 1.195v2.656s1.573-.378 2.116.544c.543.923.543 2.063.543 2.063s1.084.054 1.084.65c0 .6-.434 1.304-.434 1.304l1.194 1.79s2.28-.325 2.495.162c.22.488.11 1.412.11 1.412s.977 0 1.194.54c.216.544.216 2.39.216 2.39s1.465-.597 2.226-.38c.76.217 1.736 1.574 1.736 1.574s.868-.108 1.41.597.163 1.792.163 1.792l.435.106s1.412-.433 2.172-.16c.76.27 1.03 2.17 1.03 2.17s1.195.163 1.195.65c0 .49 1.083.435 1.083.435s.543-.76 1.52-.434c.978.327 1.846 1.52 1.846 1.52s.27-.107 1.465.382c1.193.487 1.14.868 1.14.868s1.193-1.193 1.846-.922c.65.27 1.03 2.062 1.03 2.062s1.793.977 2.932 1.464c1.14.49 1.736 1.033 1.736 1.033l.978.053s-.543-.92 1.248-.92c1.792 0 6.62.16 8.52.54 1.9.38 2.606.76 2.878.76.27 0 1.52.217 2.714 1.085 1.192.87 2.93 2.39 3.038 4.938.108 2.553 1.14 3.854-1.03 5.646-2.17 1.79-13.243 5.806-21.113 6.674-7.867.868-17.147-.705-18.83-.814s-15.47-1.25-24.313-.652c-8.847.6-16.227.38-19.376-.487-3.146-.867-4.286-1.572-4.502-2.334-.218-.76-1.41-6.348-1.032-7.65.38-1.303.543-2.17.76-2.28.217-.108.217-.434.217-.434s.163-8.52 1.63-12.59c1.464-4.07 4.177-8.414 4.07-11.94-.11-3.528-2.01-11.724-1.63-12.05.38-.324 2.66.436 4.343.76 1.683.327 5.75.22 8.086.272 2.335.055 3.583 0 3.583 0s3.092-3.744 3.853-3.744c.76 0 3.473 3.42 3.473 3.42s.706-.055 1.74.27c1.027.324 2.057 1.3 2.057 1.3zM280.64 197.644c5.702-.56 10.508-4.526 10.508-4.526s.28-1.286 2.29-2.516c2.013-1.23 3.02-1.452 3.97-.95.95.503 3.465 1.117 4.694 1.454 1.23.335 6.764 2.96 9.613 4.86s13.357 4.64 19.002 6.204c5.645 1.565 16.32 4.19 19.897 6.764 3.575 2.57 3.017 6.428 2.402 6.93-.614.502-6.93 2.85-7.6 3.855-.67 1.006-.394 2.348-.895 2.683-.503.335-2.514 1.173-3.073.783-.56-.393-.894-2.85-1.677-2.795-.782.057-.727.057-2.963.503-2.235.447-3.688.168-4.526.95-.837.783-1.006 3.41-1.285 3.465-.28.058-4.19.28-4.47 0-.28-.277-.727-2.515-1.564-3.13-.84-.614-4.862-1.117-5.366-.503-.503.616-.894 2.852-1.063 3.074-.165.223-3.24-.112-3.352-.615-.11-.504-.056-2.347-1.06-2.96-1.008-.617-5.703-2.126-13.695-2.126-7.99 0-12.464.334-13.245 1.452-.782 1.117-.614 3.073-.782 3.466-.17.39-.95.502-1.677.56-.73.055-1.9-.336-1.9-.895s-.226-2.963-.95-3.466c-.728-.504-4.75-.56-5.924.335-1.176.894-1.734 2.124-1.734 2.738s.224 1.453-.224 1.566c-.446.11-4.638-.17-4.693-.56-.056-.393.167-2.684-1.342-4.19-1.51-1.51-3.466-3.355-3.8-3.913s0-1.9 0-1.9-1.23-3.298-1.398-8.217c-.166-4.917 2.46-15.683 4.08-15.648 2.74.056 5.98 4.025 7.153 5.085 1.176 1.063 3.073 2.532 6.652 2.18z"/></g><g fill="#FFF"><path d="M411.95 133.874l-2.4.12s0-11.64-2.52-17.282c-2.522-5.64-3.24-9.48-1.44-13.802 1.8-4.32 6-10.2 5.04-18.12-.96-7.923-2.4-17.644-5.16-32.525-2.76-14.88-4.32-26.043-3.84-34.924.48-8.88-1.32-10.32 1.44-11.52 2.76-1.2 10.8-1.32 16.8-1.32s18.963.96 19.564 3.72c.6 2.76-.36 38.166-.24 53.406.12 15.242.84 38.646 1.56 42.486.72 3.84 3.96 11.76 10.802 16.08 6.84 4.323 11.76 3.122 15.36 5.522 3.602 2.4 3.602 5.16 1.68 5.76-1.92.602-25.922 6.36-31.683 4.44-5.76-1.92-10.68-9.84-15.242-13.08-4.56-3.24-8.04-6.72-9.12-3.84-1.08 2.878-.6 14.88-.6 14.88zM415.392 210.632s12.264-21.568 19.734-21.003c7.472.562 16.774 9.302 29.038 14.096 12.264 4.792 19.03 11.276 15.79 15.506-3.243 4.23-3.103 4.51-9.587 5.356-6.484.847-20.3 1.128-30.167.563-9.868-.562-18.607-1.69-26.5-1.55-7.895.142-11.278.847-14.802.564-3.523-.28-5.216-1.55-6.484-2.96-1.27-1.41-2.68-4.37-1.128-6.483 1.55-2.113 8.034-4.228 13.532-4.228s10.574.14 10.574.14z"/></g></svg>