<svg id="Calque_1" xmlns="http://www.w3.org/2000/svg" xmlns:xlink="http://www.w3.org/1999/xlink" width="426.942" height="86" viewBox="0 0 426.942 86">
    <defs>
        <path id="SVGID_1_" d="M53.515,32.149c-0.381-2.539-2.44-6.849-8.998-6.849c-4.5,0-7.397,2.847-7.397,5.849 c0,2.617,1.601,4.54,5.338,5.233l7.245,1.385c10.295,1.924,15.632,8.619,15.632,16.392c0,8.542-7.092,17.238-19.979,17.238 c-14.947,0-21.353-9.773-22.115-17.469l11.057-2.693c0.458,5.001,3.813,9.388,11.21,9.388c4.729,0,7.626-2.309,7.626-5.694 c0-2.771-2.212-4.772-5.796-5.464l-7.397-1.385c-9.151-1.77-14.718-7.927-14.718-16.007c0-10.313,8.999-17.546,19.369-17.546 c13.498,0,18.608,8.157,19.752,14.545L53.515,32.149z M104.027,27.301v42.942H91.978V27.301H75.354V15.68h45.374v11.62H104.027z M134.252,50.542V15.68h12.049v33.861c0,6.619,3.66,9.928,9.379,9.928c5.719,0,9.38-3.309,9.38-9.928V15.68h12.049v34.861 c0,13.698-9.532,20.932-21.429,20.932C143.785,71.474,134.252,64.24,134.252,50.542z M190.708,70.242V15.68h19.599 c16.243,0,27.147,10.466,27.147,27.32c0,16.854-10.905,27.242-27.224,27.242H190.708z M209.773,58.776 c8.312,0,15.099-4.849,15.099-15.776s-6.787-15.853-15.099-15.853h-7.016v31.629H209.773z M252.353,70.242V15.68h12.201v54.562 H252.353z M306.666,14.526c15.176,0,28.064,11.159,28.064,28.474c0,17.239-12.888,28.397-28.064,28.397 c-15.251,0-28.139-11.158-28.139-28.397C278.527,25.685,291.416,14.526,306.666,14.526z M306.666,59.391 c7.473,0,15.557-5.079,15.557-16.468c0-11.389-8.084-16.546-15.557-16.546c-7.549,0-15.632,5.157-15.632,16.546 C291.034,54.313,299.118,59.391,306.666,59.391z M356.847,45.47l22.51-29.784h15.674v32.14h8.67v11.106h-8.67V70.29h-13.173 V58.932h-25.011V45.47z M381.858,29.821l-13.59,18.005h13.59V29.821z"/>
    </defs>
    <clipPath id="SVGID_2_">
        <use xlink:href="#SVGID_1_" overflow="visible"/>
    </clipPath>
    <g clip-path="url(#SVGID_2_)">
        <defs>
            <path id="SVGID_3_" d="M-38.07 -169.72H530.0039999999999V198.771H-38.07z"/>
        </defs>
        <clipPath id="SVGID_4_">
            <use xlink:href="#SVGID_3_" overflow="visible"/>
        </clipPath>
        <g clip-path="url(#SVGID_4_)">
            <image overflow="visible" width="3000" height="1946" xlink:href="/static/images/studio4_bg_optimized.jpg" transform="matrix(.189 0 0 .189 -38.07 -169.72)"></image>
        </g>
    </g>
</svg>