<svg xmlns="http://www.w3.org/2000/svg" width="110" height="100" viewBox="5 5 100 85"><path fill="#FFF" d="M104.22 19.47c-3.622 1.606-7.514 2.692-11.6 3.18 4.17-2.5 7.372-6.457 8.88-11.173-3.902 2.314-8.224 3.995-12.825 4.9C84.992 12.454 79.743 10 73.935 10c-11.155 0-20.198 9.043-20.198 20.196 0 1.583.18 3.124.523 4.603-16.785-.843-31.666-8.884-41.627-21.102C10.893 16.68 9.9 20.15 9.9 23.85c0 7.008 3.565 13.19 8.984 16.81-3.31-.104-6.425-1.012-9.148-2.525l-.002.254c0 9.784 6.962 17.947 16.2 19.802-1.694.46-3.478.708-5.32.708-1.3 0-2.567-.127-3.8-.362 2.57 8.024 10.03 13.863 18.866 14.026-6.912 5.417-15.62 8.645-25.082 8.645-1.63 0-3.238-.097-4.818-.283C14.718 86.657 25.334 90 36.74 90 73.886 90 94.2 59.226 94.2 32.537c0-.876-.02-1.747-.057-2.613 3.945-2.847 7.37-6.404 10.077-10.454z"/></svg>