<?xml version="1.0" encoding="utf-8"?><!DOCTYPE svg PUBLIC "-//W3C//DTD SVG 1.1//EN" "http://www.w3.org/Graphics/SVG/1.1/DTD/svg11.dtd"><svg xmlns="http://www.w3.org/2000/svg" xmlns:xlink="http://www.w3.org/1999/xlink"><symbol viewBox="0 0 561.33 168" id="1ere"><path d="M68.1 89.2c0 3.42-.32 6.63-.95 9.64-.63 3.02-1.8 5.67-3.5 7.97s-4.05 4.2-7.07 5.5c-3 1.4-6.9 2-11.7 2-4.25 0-7.84-.5-10.76-1.7-2.92-1.1-5.27-2.7-7.08-4.9-1.8-2.1-3.1-4.8-3.88-7.9-.8-3.1-1.18-6.7-1.18-10.7 0-8.5 1.9-14.8 5.7-18.9 3.8-4.1 9.83-6.2 18.1-6.2 4.18 0 7.7.6 10.56 1.8 2.85 1.2 5.14 2.9 6.88 5.1 1.73 2.3 2.98 5 3.73 8.1.76 3.2 1.14 6.6 1.14 10.4zm-8.18.4c0-3.2-.22-6.03-.68-8.45-.46-2.42-1.27-4.44-2.4-6.05-1.16-1.6-2.68-2.82-4.58-3.64-1.9-.8-4.33-1.22-7.27-1.22-3.3 0-5.9.5-7.8 1.52-2 1.02-3.5 2.4-4.5 4.18-1.1 1.77-1.8 3.82-2.2 6.14-.4 2.33-.6 4.8-.6 7.42 0 2.56.2 4.95.6 7.18.4 2.23 1.2 4.16 2.2 5.8 1 1.64 2.5 2.95 4.3 3.93 1.8 1 4.1 1.5 7 1.5 3.1 0 5.7-.3 7.7-1.1 2-.7 3.6-1.8 4.8-3.3 1.1-1.5 2-3.4 2.4-5.7.4-2.3.6-5 .6-8.1zM108 113v-7.27c-.46.98-1 1.98-1.63 3-.62 1-1.5 1.93-2.65 2.75-1.15.82-2.6 1.5-4.33 2-1.8.54-4 .8-6.6.8-4 0-7.1-.54-9.3-1.62-2.2-1.1-3.8-2.46-4.9-4.13-1.1-1.68-1.7-3.43-2-5.26-.3-1.84-.4-3.57-.4-5.2V65.1H84v29.8c0 2.02.1 3.82.25 5.4.16 1.57.53 2.9 1.12 4.03.6 1.1 1.5 1.98 2.8 2.6 1.26.63 3.02.93 5.24.93 3.2 0 5.8-.47 7.6-1.42s3.3-2.15 4.2-3.6c1-1.43 1.5-3 1.8-4.66.2-1.67.4-3.2.4-4.57V65.1h7.9V113H108zm27.72-41.4v29.8c0 1.24.03 2.24.1 3 .06.75.24 1.3.53 1.67.3.36.76.6 1.38.7.62.08 1.53.13 2.7.13.53 0 1.05 0 1.58-.05.6-.03 1.1-.08 1.6-.14v6.3c-1.9.2-3.9.3-6 .3-2.4 0-4.3-.3-5.6-1-1.3-.6-2.2-1.5-2.9-2.5-.6-1-1-2.2-1.1-3.6-.1-1.4-.1-2.8-.1-4.2V71.6h-6.8v-6.48h6.8V50.68h7.9v14.44h9.1v6.5h-9zm38.92-.08c-1.1 0-2.54.06-4.27.2-1.74.12-3.43.67-5.06 1.6-1.6.96-3 2.46-4.2 4.5-1.2 2.02-1.7 4.87-1.7 8.54V113h-7.8V65.12h7.7v9.34c.7-2.68 1.6-4.75 2.9-6.2 1.3-1.43 2.6-2.5 4-3.18 1.4-.7 2.8-1.07 4.2-1.13 1.4-.07 2.7-.1 3.7-.1.5 0 1.1 0 2 .05.9.03 1.7.08 2.4.14v7.48H175zm49.86 16.5c0 .6-.03 1.2-.06 1.83-.04.62-.05 1.23-.05 1.82h-36.1c0 1.77.1 3.6.4 5.5s.8 3.64 1.7 5.2c.9 1.58 2.3 2.9 4.3 3.94 1.9 1.1 4.6 1.6 8.1 1.6 2.3 0 4.2-.2 5.8-.6 1.5-.4 2.8-.9 3.8-1.7.9-.7 1.7-1.7 2.2-2.9s.9-2.5 1.3-4h7.3c-.1 1.9-.5 3.8-1.1 5.7-.7 1.9-1.8 3.6-3.3 5-1.6 1.5-3.7 2.7-6.4 3.6-2.7 1-6.1 1.4-10.3 1.4-3.4 0-6.4-.4-9.2-1.3-2.8-.8-5.1-2.2-7.1-4.1-2-1.9-3.5-4.3-4.6-7.4-1.1-3-1.7-6.8-1.7-11.2 0-4.8.5-8.9 1.4-12.3s2.44-6 4.44-8.1c2-2.1 4.5-3.6 7.4-4.5 2.9-.9 6.36-1.3 10.3-1.3.9 0 2.07.1 3.45.1 1.33.1 2.8.3 4.4.8 1.6.5 3.1 1.2 4.7 2.1 1.5 1 2.9 2.4 4.2 4.2 1.2 1.8 2.2 4.1 3 6.9.8 2.8 1.2 6.2 1.2 10.2zm-8.37-2.74c0-2.23-.17-4.28-.5-6.15-.32-1.87-.97-3.45-1.96-4.76-.98-1.32-2.35-2.33-4.13-3.05-1.76-.72-4.06-1.08-6.88-1.08-2.88 0-5.23.42-7.02 1.27-1.8.9-3.22 2-4.23 3.4-1 1.4-1.7 3-2.1 4.8-.4 1.8-.7 3.7-.9 5.6h27.9zm16.5 6.98V84.2h23.9v8.06h-23.9zM322.2 113V81.83c0-2.22-.13-4.06-.4-5.5-.26-1.44-.7-2.62-1.32-3.54-.63-1-1.48-1.6-2.56-2-1.08-.4-2.47-.6-4.18-.6-3.4 0-6.14 1-8.2 2.9-2.07 1.9-3.1 4.8-3.1 8.6V113h-7.86V80.36c0-1.18-.04-2.36-.1-3.54-.07-1.18-.35-2.26-.84-3.24-.5-.98-1.3-1.78-2.4-2.4-1.12-.63-2.66-.94-4.63-.94-1.6 0-3.1.3-4.6.93-1.4.63-2.7 1.52-3.8 2.7-1 1.18-1.8 2.56-2.4 4.13-.6 1.58-.9 3.3-.9 5.2V113H267V65.12h7.27v7.38c.45-1 1-2 1.67-3 .66-1.02 1.55-1.97 2.66-2.85 1.1-.9 2.46-1.57 4.07-2.07 1.6-.5 3.56-.73 5.85-.73 2.55 0 4.6.3 6.14.88 1.54.6 2.73 1.36 3.58 2.3.86.96 1.45 1.98 1.78 3.06.33 1 .56 2 .7 3 .25-1 .63-2.1 1.12-3.2.5-1.1 1.27-2.2 2.3-3.1 1.06-1 2.47-1.7 4.24-2.2 1.77-.6 4.03-.9 6.78-.9 3.08 0 5.6.3 7.57 1.1 1.97.7 3.5 1.8 4.57 3.2 1.1 1.4 1.8 3.2 2.16 5.3.36 2.1.54 4.6.54 7.3V113h-7.76zm60.06-24.97c0 .6 0 1.2-.05 1.82v1.82h-36.1c0 1.77.2 3.6.4 5.5s.9 3.64 1.8 5.2c.9 1.58 2.4 2.9 4.3 3.94 2 1.1 4.7 1.6 8.2 1.6 2.3 0 4.3-.2 5.8-.6 1.6-.4 2.9-.9 3.9-1.7 1-.7 1.7-1.7 2.3-2.9.5-1.2 1-2.5 1.3-4h7.4c-.1 1.9-.5 3.8-1.1 5.7-.6 1.9-1.7 3.6-3.3 5-1.6 1.5-3.7 2.7-6.3 3.6-2.6 1-6 1.4-10.2 1.4-3.3 0-6.4-.4-9.1-1.3-2.7-.8-5.1-2.2-7.1-4.1s-3.5-4.3-4.5-7.4c-1.1-3-1.6-6.8-1.6-11.2 0-4.8.5-8.9 1.44-12.3s2.4-6 4.4-8.1c2-2.1 4.46-3.6 7.4-4.5 2.9-.9 6.3-1.3 10.25-1.3.9 0 2.05.1 3.43.1 1.36.1 2.84.3 4.4.8 1.55.5 3.1 1.2 4.65 2.1 1.53 1 2.9 2.4 4.16 4.2 1.3 1.8 2.3 4.1 3.1 6.9.8 2.8 1.2 6.2 1.2 10.2zm-8.35-2.75c0-2.23-.1-4.28-.4-6.15s-1-3.45-1.9-4.76c-1-1.32-2.3-2.33-4.1-3.05-1.7-.72-4-1.08-6.9-1.08-2.9 0-5.2.42-7 1.27-1.8.9-3.2 2-4.2 3.4s-1.7 3-2.1 4.8c-.4 1.8-.7 3.7-.9 5.6H374zm40.2-13.76c-1.1 0-2.5.06-4.2.2-1.7.12-3.4.67-5 1.6-1.6.96-3 2.46-4.2 4.5-1.2 2.02-1.7 4.87-1.7 8.54V113h-8V65.12h7.7v9.34c.7-2.68 1.6-4.75 2.9-6.2 1.3-1.43 2.6-2.5 4-3.18 1.4-.7 2.8-1.07 4.2-1.13 1.4-.07 2.7-.1 3.7-.1.5 0 1.1 0 2 .05.9.03 1.7.08 2.4.14v7.48h-3.5z" fill="#8D7E74"/><path fill="#FDC600" d="M539.35 15.58c0-2.35-1.36-2.94-3.82-2.4l-82.9 17.9c-3.03.68-4.18 1.93-4.18 5.32v95.26c0 3.4 1.15 4.64 4.17 5.3l82.9 17.9c2.52.58 3.8-.63 3.83-2.82V15.58z"/><path fill="#FFF" d="M501.2 44.95c-2.63 6.06-5.8 7.65-9.5 9.38-2.53 1.18-7.47 1.86-14.77 2.06v15h20.85V114h-20.85v18.1h62.35V114h-21.6V44.9h-16.5zm6.04-6.92c0 .3.04.6.1.9.07.28.2.54.36.76.15.2.38.4.68.5.3.1.68.2 1.14.2 1.07 0 1.76-.5 2.1-1.5h3.57c-.1.4-.3.9-.4 1.4-.2.5-.5.9-.9 1.3-.4.3-1 .7-1.7.9-.7.2-1.7.3-2.9.3-2.1 0-3.5-.6-4.5-1.6-.9-1.1-1.4-2.6-1.4-4.7 0-.9.1-1.8.3-2.6.2-.8.5-1.5 1-2 .4-.6 1-1 1.8-1.3.7-.3 1.7-.5 2.8-.5 1.3 0 2.4.2 3.1.6.8.4 1.4 1 1.8 1.7.4.7.6 1.5.7 2.4.1.9.1 1.8.1 2.7h-8zm1.56-8.38l-2.1-3.57h3.3l1.23 3.57h-2.43zm2.8 6.14c.02-.4-.02-.7-.1-1-.08-.4-.2-.6-.38-.9s-.4-.5-.67-.6c-.26-.2-.58-.2-.95-.2-.36 0-.68 0-.95.2-.25.1-.46.3-.64.5-.1.2-.3.5-.4.8l-.1 1h4.3zm11.68-2c-.4 0-.73 0-.98.2-.27.1-.45.3-.6.5-.12.2-.22.5-.28.8-.04.3-.06.6-.06 1v6.4h-3.7V30.8h3.3v1.5c.2-.42.42-.74.64-.98.2-.25.4-.43.63-.54.22-.1.45-.18.68-.22.3-.03.5-.04.8-.04s.6 0 .8.03l1.1.1v3.17h-2.2zm6.47 4.2c0 .3.02.6.1.9.07.3.2.5.35.7.16.2.4.4.7.5.3.1.67.2 1.13.2 1.06 0 1.76-.5 2.1-1.5h3.56c-.1.4-.3.9-.4 1.4-.2.5-.5.9-.9 1.3-.4.3-1 .7-1.7.9-.7.2-1.7.3-2.9.3-2.1 0-3.5-.6-4.5-1.6-.9-1.1-1.4-2.6-1.4-4.7 0-.9.1-1.8.3-2.6.2-.8.5-1.5 1-2 .5-.6 1.1-1 1.8-1.3.7-.3 1.7-.5 2.8-.5 1.3 0 2.4.2 3.1.6.8.4 1.4 1 1.7 1.7.4.7.6 1.5.7 2.4.1.9.1 1.8.1 2.7h-8.1zm4.34-2.3c0-.4-.1-.7-.1-1-.1-.4-.3-.6-.4-.9-.2-.3-.4-.5-.7-.6-.3-.2-.6-.2-1-.2s-.7 0-1 .2-.5.3-.7.5c-.2.2-.3.5-.4.8-.1.3-.2.6-.2 1h4.3z"/></symbol><symbol viewBox="0 0 60 60" id="AccountPopIn"><g fill="none" stroke="#FFF" stroke-width="2" stroke-miterlimit="10"><path d="M48.042 47.88S43.757 38.857 30 38.857s-18.042 9.02-18.042 9.02"/><circle cx="30" cy="25.369" r="8.939"/><circle cx="30" cy="30" r="26"/></g></symbol><symbol viewBox="0 0 16 16" id="BT+"><path d="M8 .727v14.546M.727 8h14.546" fill="none" stroke="#FFF" stroke-width="2" stroke-miterlimit="10"/></symbol><symbol viewBox="0 0 110 100" id="BT+_Link"><path d="M58.486 66.288L36.493 88.28c-2.292 2.292-6.042 2.292-8.333 0L16.72 76.84c-2.293-2.293-2.293-6.043 0-8.334l21.99-21.993c2.292-2.292 6.042-2.292 8.335 0l11.44 11.442c2.292 2.29 2.292 6.04 0 8.333zM93.28 31.494L71.29 53.486c-2.292 2.29-6.042 2.29-8.332 0l-11.442-11.44c-2.292-2.293-2.292-6.043 0-8.334l21.99-21.992c2.292-2.293 6.042-2.293 8.333 0l11.44 11.44c2.29 2.292 2.29 6.042 0 8.334zM42.338 62.66L67.66 37.34" fill="none" stroke="#FFF" stroke-width="2" stroke-miterlimit="8"/></symbol><symbol viewBox="0 0 110 100" id="BT+_Link_full"><path d="M41.632 61.954l10.426-10.427-5.014-5.014c-2.292-2.292-6.042-2.292-8.333 0L16.72 68.507c-2.29 2.29-2.29 6.04 0 8.333l11.44 11.44c2.29 2.293 6.04 2.293 8.332 0l21.994-21.99c2.292-2.293 2.292-6.043 0-8.334l-5.014-5.015-10.426 10.43-1.414-1.414zm51.65-38.794L81.84 11.72c-2.292-2.293-6.042-2.293-8.334 0L51.512 33.713c-2.29 2.29-2.29 6.04 0 8.332l5.015 5.015 10.427-10.427 1.414 1.414-10.426 10.426 5.014 5.014c2.29 2.292 6.04 2.292 8.333 0l21.99-21.992c2.29-2.293 2.29-6.043 0-8.334z" fill="#FFF"/></symbol><symbol preserveAspectRatio="xMidYMid" viewBox="0 0 66 66" id="BT_Plus"><defs><style>.afcls-3{fill:#111105}.afcls-4{fill:#fff}</style></defs><circle class="afcls-3" cx="33" cy="33" r="33"/><path d="M32.12 24.66h1.4v17.37h-1.4V24.66z" class="afcls-4" fill-rule="evenodd"/><path d="M24.48 33.83v-1.38h17.37v1.38H24.48z" class="afcls-4" fill-rule="evenodd"/></symbol><symbol preserveAspectRatio="xMidYMid" viewBox="0 0 13 22" id="ChevronRetour"><path d="M12.7 20.27l-1.5 1.5a.54.54 0 0 1-.77.02L.15 11.3c-.2-.2-.2-.56 0-.78l1.52-1.5c.07-.08.18-.1.27-.12L10.4.15c.2-.2.55-.2.76 0l1.5 1.5c.2.22.2.56 0 .77l-8.27 8.6 8.3 8.47c.2.2.2.52 0 .74z" fill-rule="evenodd"/></symbol><symbol viewBox="0 0 203.31 44.37" id="Culturebox"><path fill="#0AA8E5" d="M183.5 13.05V24.5c0 .18-.1.24-.32.2l-6.74-1.46c-.25-.05-.34-.16-.34-.43v-8c0-.2.1-.3.34-.4l6.74-1.4c.2-.05.3 0 .3.2z"/><path fill="#017FAF" d="M184.54 12.85l6.74 1.44c.24 0 .34.1.34.4v8.1c0 .2-.1.4-.34.4l-6.74 1.4c-.2 0-.3-.06-.3-.2V13c0-.2.1-.24.3-.2z"/><path d="M20.67 31.8c-6.48 0-8.95-3.48-8.98-9.83-.1-5.87 2.7-9.4 8.7-9.4 6.2 0 7.4 3.3 7.8 5.98h-3.5c-.4-1.5-.9-3.06-4.1-3.06-4 0-5.3 1.9-5.3 6.9 0 5.2 2 6.3 5.14 6.3 3.43 0 3.72-2.1 4.13-3.7h3.64c-.35 3.4-2.02 6.66-7.7 6.66zm16.5 0c-5.4 0-7.46-2.4-7.46-6.4V12.95h3.7v12.58c.1 2.2 1 3.34 4.1 3.34 2.8 0 3.6-1.2 3.6-3.22v-12.7h3.7v12.52c0 4.53-2.7 6.35-7.5 6.35zm9.9-.4V12.94h3.7v15.4h9.15v3.06H47.06zm18.56-15.45V31.4h-3.7V15.95H56.4v-3h14.73v3h-5.5zM79.58 31.8c-5.4 0-7.45-2.4-7.45-6.4V12.95h3.7v12.58c0 2.2.93 3.34 4.04 3.34 2.72 0 3.57-1.2 3.57-3.22v-12.7h3.7v12.52c0 4.53-2.72 6.35-7.56 6.35zm21.55-.4c-.77-1.18-.44-4.8-1.13-6.4-.3-.67-.9-.98-1.9-.98h-4.92v7.38h-3.7V12.94h9.18c2.8 0 6.17.57 6.17 5.25 0 2.9-1.47 4.2-3.34 4.3 2.8.5 2.2 2.4 2.8 7 0 .6.3 1.3.5 1.8H101zm-2.7-15.45h-5.25v5.17h4.9c2.56 0 2.97-.98 2.97-2.8 0-2.04-.72-2.37-2.62-2.37zm8.22 15.45V12.94h14.2v3h-10.5v4.23h9.67v2.98h-9.66v5.2h10.77v3.05h-14.48zm23.9 0h-8.06V12.94h8.9c4.5 0 5.5 2.63 5.5 4.9-.1 2.35-1 3.48-3.1 3.72 2 0 3.8 1 3.8 4.26 0 4.86-3.7 5.58-7.1 5.58zm.9-15.45h-5.26v4.32h4.8c1.6 0 2.2-.95 2.2-2.34 0-1.4-.4-1.98-1.8-1.98zm.27 7.15h-5.53v5.24h5.1c1.8 0 2.6-.7 2.6-2.5 0-2.38-1.2-2.74-2.2-2.74zm15.75 8.7c-4.93 0-8.58-3.05-8.58-9.5 0-7.3 3.8-9.74 9.2-9.74 6 0 8.7 3.65 8.7 9.66 0 6.54-3.1 9.6-9.47 9.6zm.67-16.3c-4.47 0-5.52 2.46-5.52 6.8 0 4.04 1.54 6.58 5.1 6.58 4.95 0 5.5-3.4 5.5-6.8 0-4.9-1.94-6.6-5.08-6.6zm20.36 15.9l-3.87-6.68-3.9 6.68h-4.3l6.06-9.74-5.5-8.72h4.2l3.3 5.76 3.35-5.76h4.2l-5.4 8.72 6.05 9.74h-4.3z"/></symbol><symbol viewBox="0 0 39.69 39.69" id="Deconnecter"><path fill="#7B7B7B" d="M.165 1.123V38.57h28.793V27.503h-1.703v9.363H1.865V2.825h25.39v9.36h1.703V1.124H.165zm39.36 18.722l-5.106-8.51h-1.702l4.68 7.662H15.7v1.7h21.7l-4.68 7.66h1.7l5.107-8.512z"/></symbol><symbol viewBox="0 0 90 60" id="Devices"><g fill="#FFF"><path d="M88 35.525c0-.842-.683-1.525-1.525-1.525h-7.95c-.842 0-1.525.683-1.525 1.525v18.95c0 .842.683 1.525 1.525 1.525h7.95c.842 0 1.525-.683 1.525-1.525v-18.95zm-3.94 1.107a.24.24 0 0 1-.24.24h-1.353a.24.24 0 0 1-.24-.24v-.435a.24.24 0 0 1 .24-.24h1.353a.24.24 0 0 1 .24.24v.435zM87 53h-9V37h9v16z"/><path d="M86.21 25H45.123c-.53 0-.957.43-.957.957v25.086c0 .53.43.957.957.957h32.48c.402-1.08.402-1.92 0-3H47.166V28h37v7h3v-9.043A.958.958 0 0 0 86.21 25zM43.326 51.183s-1.088-.92-1.686-1.52c-.6-.598-.76-1.46-.76-1.46L40.405 43H27.218l-.475 5.205s-.163.84-.762 1.438c-.597.6-1.686 1.536-1.686 1.536s-.98.54.49.756c.84.125 4.593.064 7.607.064h2.847c3.076 0 6.763.067 7.604-.058 1.47-.217.486-.76.486-.76z"/><path d="M63.466 4H3.776c-.854 0-1.61.432-1.61 1.296V40.35c0 .863.756 2.65 1.61 2.65H46.167v-4h-41V7h57v19h3V5.296c0-.864-.846-1.296-1.7-1.296z"/></g></symbol><symbol viewBox="0 0 152 59.5" id="France0"><path fill="#F07F13" d="M134.4 22.66c-4.37 0-6.16 1.92-6.16 8.72 0 6.36 1.57 9 5.37 9 5.2 0 6.1-3.3 6.1-9.55 0-5.43-1.5-8.17-5.3-8.17z"/><path fill="#F07F13" d="M133.83 47.08c-9.36 0-14.34-4.85-14.34-15.37 0-12.2 6.3-15.8 14.6-15.8 4.9 0 8.5 1.3 10.9 4V4.4c0-.9-.5-1.1-1.5-.9l-31.1 6.72c-1.2.24-1.6.7-1.6 2v35.7c0 1.27.4 1.73 1.5 2l31.1 6.7c.9.22 1.4-.24 1.4-1.06V42.9c-2.3 2.63-5.9 4.18-11.2 4.18zm-1.9-37.47h3.76l6.5 5.1H137l-3.3-2.8-3.17 2.8h-5l6.32-5z"/><path fill="#FFF" d="M145.04 19.9v23-23zm-10.94-4c-8.22 0-14.6 3.56-14.6 15.8 0 10.53 4.97 15.38 14.33 15.38 5.33 0 8.92-1.55 11.2-4.2V19.92c-2.38-2.7-6-4-10.93-4zm-.5 24.47c-3.8 0-5.36-2.63-5.36-9 0-6.8 1.8-8.7 6.15-8.7 3.7 0 5.3 2.73 5.3 8.16 0 6.25-1 9.54-6.1 9.54zm.2-28.47l3.28 2.78h5.13l-6.5-5.07H132l-6.34 5.1h5z"/><path d="M23.93 22.96c-1.65 0-5.67 0-5.67 5.5v9.83h-2.9V20.6h2.83v3.44c1-3.94 3.9-3.9 5.4-3.9.3 0 1.1.02 1.6.1v2.72h-1.3zm17.25 15.36c-2.23 0-2.84-.5-3.25-2.22-.97 1.35-2.1 2.66-6.17 2.66-4.4 0-5.9-1.8-5.9-5.3 0-3.54 1.55-4.82 10.86-6.04 1-.13 1-1.65 1-2.16 0-2.36-1.13-2.77-4.04-2.77-3.78 0-4.32.9-4.32 3.5h-2.8c0-2.5 0-6 7.53-6 4.8 0 6.6 1.5 6.6 5.7v8.7c0 1.5.6 1.5 1.7 1.5v2.2h-1.3zm-3.38-9.08c-1.62.54-2.87.75-3.95.88-4.86.64-5 1.72-5 3.64 0 2.03 1.5 2.64 3.52 2.64 3.54 0 5.43-1.6 5.43-5.07v-2.1zm18.73 9.06V27.04c0-2.67-.23-4.5-3.58-4.5-2.7 0-5.13 1.12-5.13 5.48V38.3h-2.9V20.6h2.9v2.73c.6-1.38 1.7-3.2 5.67-3.2 5.8 0 5.9 3.55 5.9 6.1V38.3h-2.9zm14.14.46c-3.98 0-8.37-1.42-8.37-9.25 0-6.6 3.1-9.3 8.6-9.3 6.05 0 7.2 3.6 7.37 6H75.4c-.3-1.7-.9-3.6-4.6-3.6-3.97 0-5.53 2.2-5.53 7.1 0 4.5 1.22 6.8 5.5 6.8 4.32 0 4.5-2.2 4.73-4.2h2.87c0 2.3-1.02 6.6-7.7 6.6zm26.26-8.34h-13.3c0 2.57.3 5.98 5.4 5.98 3.45 0 4.46-1.15 4.86-3.4h2.7c-.2 2.76-1.6 5.76-7.8 5.76-5 0-8.3-2.33-8.3-8.88 0-7.2 2.9-9.75 8.7-9.75 2.1 0 7.7-.03 7.7 8.94l-.1 1.35zm-8-7.93c-4.32 0-5 2.7-5.3 5.5H93.9c0-3.4-.82-5.6-4.97-5.6zm-79.1 1v14.7h-2.9V23.5H4.5v-2.97h2.43V19.3c0-2.4.5-4.4 4.46-4.4.5 0 1.1.03 1.6.06v2.44c-.3 0-.6-.04-.9-.04-2.4 0-2.4.82-2.4 2.07v1.14H13v2.97H9.8z" fill="#F07F13"/></symbol><symbol viewBox="0 0 152 59.5" id="France2"><path fill="#E42313" d="M143.6 3.42l-31.1 6.73c-1.14.25-1.57.72-1.57 2v35.73c0 1.28.43 1.74 1.57 2l31.1 6.7c.95.23 1.43-.23 1.44-1.05v-8.7c-3.43 0-25.4.02-25.4 0 0-6.18.34-8.8 5.56-12.45 4.2-2.94 5.4-3.76 7.98-5.56 1.88-1.3 3.8-2.78 3.8-4.98 0-2.32-1.4-3.66-4.33-3.66-3.34 0-4.1 2.12-4.1 6.17-.13-.02-8.63 0-8.63 0-.47-9.83 6.07-12.6 12.9-12.6 6.9 0 10.98 2.73 12.22 7.04V4.3c0-.88-.5-1.1-1.43-.9zm-7.66 32.53l-5.57 3.2h14.67V27.12c-.8 2.66-3.05 5.37-9.1 8.83z"/><path fill="#FFF" d="M132.82 13.74c-6.83 0-13.37 2.78-12.9 12.6h8.62c0-4.04.77-6.16 4.1-6.16 2.93 0 4.34 1.34 4.34 3.66 0 2.2-1.92 3.68-3.8 4.98l-7.98 5.55c-5.22 3.66-5.57 6.28-5.57 12.47h25.4v-7.7h-14.66l5.57-3.2c6.05-3.45 8.3-6.16 9.1-8.82V20.8c-1.24-4.32-5.3-7.06-12.22-7.06z"/><path d="M23.93 22.96c-1.65 0-5.67 0-5.67 5.5v9.83h-2.9V20.6h2.83v3.44c1-3.94 3.9-3.9 5.4-3.9.3 0 1.1.02 1.6.1v2.72h-1.3zm17.25 15.36c-2.23 0-2.84-.5-3.25-2.22-.97 1.35-2.1 2.66-6.17 2.66-4.4 0-5.9-1.8-5.9-5.3 0-3.54 1.55-4.82 10.86-6.04 1-.13 1-1.65 1-2.16 0-2.36-1.13-2.77-4.04-2.77-3.78 0-4.32.9-4.32 3.5h-2.8c0-2.5 0-6 7.53-6 4.8 0 6.6 1.5 6.6 5.7v8.7c0 1.5.6 1.5 1.7 1.5v2.2h-1.3zm-3.38-9.08c-1.62.54-2.87.75-3.95.88-4.86.64-5 1.72-5 3.64 0 2.03 1.5 2.64 3.52 2.64 3.54 0 5.43-1.6 5.43-5.07v-2.1zm18.73 9.06V27.04c0-2.67-.23-4.5-3.58-4.5-2.7 0-5.13 1.12-5.13 5.48V38.3h-2.9V20.6h2.9v2.73c.6-1.38 1.7-3.2 5.67-3.2 5.8 0 5.9 3.55 5.9 6.1V38.3h-2.9zm14.14.46c-3.98 0-8.37-1.42-8.37-9.25 0-6.6 3.1-9.3 8.6-9.3 6.05 0 7.2 3.6 7.37 6H75.4c-.3-1.7-.9-3.6-4.6-3.6-3.97 0-5.53 2.2-5.53 7.1 0 4.5 1.22 6.8 5.5 6.8 4.32 0 4.5-2.2 4.73-4.2h2.87c0 2.3-1.02 6.6-7.7 6.6zm26.26-8.34h-13.3c0 2.57.3 5.98 5.4 5.98 3.45 0 4.46-1.15 4.86-3.4h2.7c-.2 2.76-1.6 5.76-7.8 5.76-5 0-8.3-2.33-8.3-8.88 0-7.2 2.9-9.75 8.7-9.75 2.1 0 7.7-.03 7.7 8.94l-.1 1.35zm-8-7.93c-4.32 0-5 2.7-5.3 5.5H93.9c0-3.4-.82-5.6-4.97-5.6zm-79.1 1v14.7h-2.9V23.5H4.5v-2.97h2.43V19.3c0-2.4.5-4.4 4.46-4.4.5 0 1.1.03 1.6.06v2.44c-.3 0-.6-.04-.9-.04-2.4 0-2.4.82-2.4 2.07v1.14H13v2.97H9.8z" fill="#E42313"/></symbol><symbol viewBox="0 0 152 59.5" id="France3"><path fill="#0078BF" d="M145.04 33.06V20.8c-3.8 3.1-8.1 6.25-8.1 6.25 4.12.46 7.07 2.4 8.1 6zM132.1 47.18c-8.97 0-12.75-4.42-12.58-10.6h8.73c0 1.82.73 4.36 4.28 4.36 2.94 0 4.4-1.4 4.4-4.6 0-2.93-1.23-4.23-4.33-4.23-1.76 0-3.7 1.1-3.7 1.1l-3.24-4.8 8.67-6.7H120.5v-7.6h24.54V4.4c0-.9-.5-1.13-1.43-.93l-31.1 6.73c-1.1.25-1.5.72-1.5 2v35.7c0 1.27.5 1.73 1.6 2l31.1 6.7c1 .22 1.5-.24 1.5-1.06v-16c-1.3 5.23-6 7.65-12.9 7.65z"/><path fill="#FFF" d="M145.04 14.04v6.77zm-24.54 0v7.53h13.83l-8.67 6.7 3.24 4.85s1.94-1 3.7-1c3.1 0 4.32 1.3 4.32 4.23 0 3.18-1.45 4.6-4.4 4.6-3.54 0-4.27-2.55-4.27-4.37h-8.73c-.17 6.18 3.6 10.6 12.6 10.6 6.94 0 11.58-2.42 12.92-7.64v-6.48c-1.02-3.62-3.98-5.55-8.1-6 0 0 4.3-3.16 8.1-6.26v-6.76H120.5z"/><path d="M23.93 22.96c-1.65 0-5.67 0-5.67 5.5v9.83h-2.9V20.6h2.83v3.44c1-3.94 3.9-3.9 5.4-3.9.3 0 1.1.02 1.6.1v2.72h-1.3zm17.25 15.36c-2.23 0-2.84-.5-3.25-2.22-.97 1.35-2.1 2.66-6.17 2.66-4.4 0-5.9-1.8-5.9-5.3 0-3.54 1.55-4.82 10.86-6.04 1-.13 1-1.65 1-2.16 0-2.36-1.13-2.77-4.04-2.77-3.78 0-4.32.9-4.32 3.5h-2.8c0-2.5 0-6 7.53-6 4.8 0 6.6 1.5 6.6 5.7v8.7c0 1.5.6 1.5 1.7 1.5v2.2h-1.3zm-3.38-9.08c-1.62.54-2.87.75-3.95.88-4.86.64-5 1.72-5 3.64 0 2.03 1.5 2.64 3.52 2.64 3.54 0 5.43-1.6 5.43-5.07v-2.1zm18.73 9.06V27.04c0-2.67-.23-4.5-3.58-4.5-2.7 0-5.13 1.12-5.13 5.48V38.3h-2.9V20.6h2.9v2.73c.6-1.38 1.7-3.2 5.67-3.2 5.8 0 5.9 3.55 5.9 6.1V38.3h-2.9zm14.14.46c-3.98 0-8.37-1.42-8.37-9.25 0-6.6 3.1-9.3 8.6-9.3 6.05 0 7.2 3.6 7.37 6H75.4c-.3-1.7-.9-3.6-4.6-3.6-3.97 0-5.53 2.2-5.53 7.1 0 4.5 1.22 6.8 5.5 6.8 4.32 0 4.5-2.2 4.73-4.2h2.87c0 2.3-1.02 6.6-7.7 6.6zm26.26-8.34h-13.3c0 2.57.3 5.98 5.4 5.98 3.45 0 4.46-1.15 4.86-3.4h2.7c-.2 2.76-1.6 5.76-7.8 5.76-5 0-8.3-2.33-8.3-8.88 0-7.2 2.9-9.75 8.7-9.75 2.1 0 7.7-.03 7.7 8.94l-.1 1.35zm-8-7.93c-4.32 0-5 2.7-5.3 5.5H93.9c0-3.4-.82-5.6-4.97-5.6zm-79.1 1v14.7h-2.9V23.5H4.5v-2.97h2.43V19.3c0-2.4.5-4.4 4.46-4.4.5 0 1.1.03 1.6.06v2.44c-.3 0-.6-.04-.9-.04-2.4 0-2.4.82-2.4 2.07v1.14H13v2.97H9.8z" fill="#0078BF"/></symbol><symbol viewBox="0 0 152 59.5" id="France4"><path d="M125.53 32.7c-.1.16-.18.36-.18.57h7.06v-9.85l-6.4 8.74-.4.55z"/><path d="M143.6 3.42l-31.1 6.73c-1.14.25-1.57.72-1.57 2v35.73c0 1.28.43 1.74 1.57 2l31.1 6.7c.95.23 1.43-.23 1.44-1.05V40.37h-5.5v6.47h-7.13l.1-6.4H118l-.03-6.24v-.12c0-.4.13-1.12.7-1.84l13.96-19h7V33.3l5.5-.04V4.32c0-.88-.52-1.1-1.44-.9z"/><path fill="#FFF" d="M139.55 13.23h-7l-13.95 19c-.58.73-.7 1.45-.7 1.85v6.36h14.5v6.4h7.15v-6.47h5.5v-7.1l-5.5.02V13.2zm-7.14 20.04h-7c0-.2.1-.4.2-.56l.4-.5 6.5-8.7v9.9z"/><path d="M23.93 22.96c-1.65 0-5.67 0-5.67 5.5v9.83h-2.9V20.6h2.83v3.44c1-3.94 3.9-3.9 5.4-3.9.3 0 1.1.02 1.6.1v2.72h-1.3zm17.25 15.36c-2.23 0-2.84-.5-3.25-2.22-.97 1.35-2.1 2.66-6.17 2.66-4.4 0-5.9-1.8-5.9-5.3 0-3.54 1.55-4.82 10.86-6.04 1-.13 1-1.65 1-2.16 0-2.36-1.13-2.77-4.04-2.77-3.78 0-4.32.9-4.32 3.5h-2.8c0-2.5 0-6 7.53-6 4.8 0 6.6 1.5 6.6 5.7v8.7c0 1.5.6 1.5 1.7 1.5v2.2h-1.3zm-3.38-9.08c-1.62.54-2.87.75-3.95.88-4.86.64-5 1.72-5 3.64 0 2.03 1.5 2.64 3.52 2.64 3.54 0 5.43-1.6 5.43-5.07v-2.1zm18.73 9.06V27.04c0-2.67-.23-4.5-3.58-4.5-2.7 0-5.13 1.12-5.13 5.48V38.3h-2.9V20.6h2.9v2.73c.6-1.38 1.7-3.2 5.67-3.2 5.8 0 5.9 3.55 5.9 6.1V38.3h-2.9zm14.14.46c-3.98 0-8.37-1.42-8.37-9.25 0-6.6 3.1-9.3 8.6-9.3 6.05 0 7.2 3.6 7.37 6H75.4c-.3-1.7-.9-3.6-4.6-3.6-3.97 0-5.53 2.2-5.53 7.1 0 4.5 1.22 6.8 5.5 6.8 4.32 0 4.5-2.2 4.73-4.2h2.87c0 2.3-1.02 6.6-7.7 6.6zm26.26-8.34h-13.3c0 2.57.3 5.98 5.4 5.98 3.45 0 4.46-1.15 4.86-3.4h2.7c-.2 2.76-1.6 5.76-7.8 5.76-5 0-8.3-2.33-8.3-8.88 0-7.2 2.9-9.75 8.7-9.75 2.1 0 7.7-.03 7.7 8.94l-.1 1.35zm-8-7.93c-4.32 0-5 2.7-5.3 5.5H93.9c0-3.4-.82-5.6-4.97-5.6zm-79.1 1v14.7h-2.9V23.5H4.5v-2.97h2.43V19.3c0-2.4.5-4.4 4.46-4.4.5 0 1.1.03 1.6.06v2.44c-.3 0-.6-.04-.9-.04-2.4 0-2.4.82-2.4 2.07v1.14H13v2.97H9.8z"/></symbol><symbol class="aofrance45rereer" viewBox="0 0 152 59.5" id="France5"><path d="M129.04 27.48c.02 0 .1.06.1.06 1.04-.92 3.48-1.67 5.35-1.67 4.5 0 9.1 1.63 10.5 6.77v-11.1h-15.4l-.7 5.94zM143.6 3.42l-31.1 6.73c-1.14.25-1.57.72-1.57 2v35.73c0 1.28.43 1.74 1.57 2l31.1 6.7c.95.23 1.43-.23 1.44-1.05V39.47C143.68 44.6 139.07 47 132.2 47c-9 0-12.55-4.35-12.55-9.76h8.6c.2 1.65 1.2 3.55 4.34 3.55 2.6 0 4.3-1.1 4.3-4.7 0-3.3-1.9-4.3-4.5-4.3-2 0-3.2.8-4.1 1.9l-7.4-1.2 1.9-18.6H145V4.3c0-.9-.5-1.1-1.42-.9z"/><path fill="#fff" d="M121 32.62l7.4 1.2c.92-1.1 2.1-1.9 4.1-1.9 2.64 0 4.47.93 4.47 4.25 0 3.55-1.77 4.62-4.38 4.62-3.2 0-4.2-1.9-4.4-3.6h-8.6c0 5.4 3.5 9.7 12.5 9.7 6.9 0 11.5-2.4 12.8-7.6v-6.8c-1.4-5.2-6.1-6.8-10.6-6.8-1.9 0-4.3.7-5.4 1.6 0 0-.1-.04-.1 0l.6-5.97H145V14h-22.1L121 32.6z"/><path d="M23.93 22.96c-1.65 0-5.67 0-5.67 5.5v9.83h-2.9V20.6h2.83v3.44c1-3.94 3.9-3.9 5.4-3.9.3 0 1.1.02 1.6.1v2.72h-1.3zm17.25 15.36c-2.23 0-2.84-.5-3.25-2.22-.97 1.35-2.1 2.66-6.17 2.66-4.4 0-5.9-1.8-5.9-5.3 0-3.54 1.55-4.82 10.86-6.04 1-.13 1-1.65 1-2.16 0-2.36-1.13-2.77-4.04-2.77-3.78 0-4.32.9-4.32 3.5h-2.8c0-2.5 0-6 7.53-6 4.8 0 6.6 1.5 6.6 5.7v8.7c0 1.5.6 1.5 1.7 1.5v2.2h-1.3zm-3.38-9.08c-1.62.54-2.87.75-3.95.88-4.86.64-5 1.72-5 3.64 0 2.03 1.5 2.64 3.52 2.64 3.54 0 5.43-1.6 5.43-5.07v-2.1zm18.73 9.06V27.04c0-2.67-.23-4.5-3.58-4.5-2.7 0-5.13 1.12-5.13 5.48V38.3h-2.9V20.6h2.9v2.73c.6-1.38 1.7-3.2 5.67-3.2 5.8 0 5.9 3.55 5.9 6.1V38.3h-2.9zm14.14.46c-3.98 0-8.37-1.42-8.37-9.25 0-6.6 3.1-9.3 8.6-9.3 6.05 0 7.2 3.6 7.37 6H75.4c-.3-1.7-.9-3.6-4.6-3.6-3.97 0-5.53 2.2-5.53 7.1 0 4.5 1.22 6.8 5.5 6.8 4.32 0 4.5-2.2 4.73-4.2h2.87c0 2.3-1.02 6.6-7.7 6.6zm26.26-8.34h-13.3c0 2.57.3 5.98 5.4 5.98 3.45 0 4.46-1.15 4.86-3.4h2.7c-.2 2.76-1.6 5.76-7.8 5.76-5 0-8.3-2.33-8.3-8.88 0-7.2 2.9-9.75 8.7-9.75 2.1 0 7.7-.03 7.7 8.94l-.1 1.35zm-8-7.93c-4.32 0-5 2.7-5.3 5.5H93.9c0-3.4-.82-5.6-4.97-5.6zm-79.1 1v14.7h-2.9V23.5H4.5v-2.97h2.43V19.3c0-2.4.5-4.4 4.46-4.4.5 0 1.1.03 1.6.06v2.44c-.3 0-.6-.04-.9-.04-2.4 0-2.4.82-2.4 2.07v1.14H13v2.97H9.8z"/></symbol><symbol viewBox="0 0 372.85 71.52" id="FrancetvInfo"><path d="M254.72 57.55v-35.1h5.77v35.1h-5.8zm36.88 0v-22.3c0-5.3-.5-8.92-7.12-8.92-5.36 0-10.2 2.2-10.2 10.85v20.37h-5.75v-35.1h5.76v5.42c1.2-2.75 3.3-6.37 11.2-6.37 11.5 0 11.8 7.04 11.8 12.13v23.92h-5.8zm20.02-29.23v29.23h-5.76V28.32h-4.83v-5.88h4.83V19.9c0-4.76 1-8.72 8.85-8.72 1.1 0 2.3.07 3.4.14v4.82c-.5 0-1.2-.07-1.7-.07-4.7 0-4.7 1.62-4.7 4.1v2.27h6.45v5.88h-6.44zM337.9 58.5c-12.47 0-16.83-6.84-16.83-18.5 0-12.54 5.36-18.5 17.5-18.5 12.26 0 16.35 7.3 16.35 18.63 0 10-3.02 18.36-17.03 18.36zm.06-32.3c-9.45 0-11 6.5-11 14.13 0 7.44 2.16 13.48 10.47 13.48 9.18 0 11.52-4.2 11.52-13.4 0-9.4-2.4-14.2-11-14.2z" fill="#0E51D1"/><path d="M55.9 27.15c-3.24 0-11.1 0-11.1 10.75v19.2h-5.67V22.55h5.55v6.72c1.96-7.72 7.64-7.65 10.62-7.65.65 0 2.1.07 3.16.2v5.33H55.9zm33.7 30c-4.38 0-5.56-1-6.36-4.34-1.9 2.7-4.08 5.3-12.06 5.3-8.57 0-11.54-3.5-11.54-10.35 0-6.92 3.04-9.42 21.23-11.8 1.98-.26 1.98-3.23 1.98-4.22 0-4.6-2.24-5.4-7.92-5.4-7.37 0-8.43 1.9-8.43 7h-5.47c0-4.8 0-11.6 14.7-11.6 9.43 0 12.93 2.95 12.93 11.2v17c0 2.9 1.18 2.95 3.3 2.95v4.3c-.8 0-1.6.06-2.37.06zm-6.62-17.73c-3.16 1.05-5.6 1.45-7.7 1.72-9.5 1.24-9.77 3.36-9.77 7.1 0 3.97 2.9 5.16 6.9 5.16 6.9 0 10.6-3.1 10.6-9.9v-4.08zm36.6 17.68V35.14c0-5.2-.47-8.78-7-8.78-5.27 0-10 2.18-10 10.7V57.1h-5.7V22.55h5.67v5.33c1.2-2.7 3.3-6.26 11.08-6.26 11.34 0 11.6 6.92 11.6 11.93V57.1h-5.67zm27.62.92c-7.78 0-16.35-2.77-16.35-18.07 0-13 6.06-18.33 16.8-18.33 11.82 0 14.06 6.92 14.4 11.73h-5.6c-.62-3.36-1.8-7.12-9-7.12-7.77 0-10.8 4.15-10.8 13.85 0 8.7 2.38 13.32 10.74 13.32 8.4 0 8.7-4.35 9.2-8.25h5.6c0 4.55-2 12.87-15 12.87zm51.3-16.3h-26c0 5.02.6 11.68 10.57 11.68 6.72 0 8.7-2.23 9.5-6.66h5.33c-.4 5.4-3.04 11.28-15.17 11.28-9.7 0-16.2-4.55-16.2-17.35 0-14.05 5.72-19.05 16.94-19.05 4.08 0 15.1-.07 15.1 17.48 0 .85-.08 1.77-.08 2.62zm-15.63-15.5c-8.44 0-9.77 5.3-10.36 10.9h20.1c0-6.53-1.6-10.9-9.7-10.9zm32.5 30.88c-2.5 0-5.87-.07-7.65-1.72-1.78-1.65-1.85-4.88-1.85-7V28.62h-4.54v-6.05h4.54V11.6h9.17v10.95h5.67v6.06h-5.6v17.9c0 1.7 0 2.5.6 3.1.5.6 1.3.6 2.1.6h3v7h-5.33zm24.2 0h-8.7l-12.53-34.55h9.95l7 24.52 7-24.52h9.7L239.52 57.1zM28.37 28.27v28.8h-5.7v-28.8h-4.74V22.5h4.75v-2.52c0-4.7 1-8.6 8.7-8.6 1.06 0 2.26.08 3.3.15v4.75c-.52 0-1.17-.07-1.7-.07-4.62 0-4.62 1.6-4.62 4.1v2.27h6.33v5.8h-6.4z" fill="#231F20"/><path fill="#0E51D1" d="M254.72 11.42h5.77v5.77h-5.8z"/></symbol><symbol viewBox="0 0 160 25" id="FrancetvSport"><path d="M101.03 19.95c-6.25 0-5.9-3.5-5.5-5.54h4.18c0 .5-.1 1.2.1 1.6.2.3.6.8 2 .8 1.1 0 2.4-.2 2.6-1.5.1-.4-.1-.7-.5-.8-.8-.2-1.8-.4-2.6-.6-3.2-.7-4.7-1.6-4.2-4.3.7-3.6 3.9-4.4 6.9-4.4 2.8 0 5.3.9 5.3 3.8 0 .5 0 .3-.1 1H105c.06-1.02-.15-1.42-1.65-1.42-.76 0-1.72.2-1.9 1-.04.34-.1.55.36.7.9.36 2.2.63 3.1.84 2.9.6 4.5 1.6 3.9 4.4-.6 3.3-3.4 4.7-7.5 4.7zm15.35-.08c-1.45 0-2.44-.34-2.95-1.26l-1.05 5.4h-4.34l3.65-18.7h4.1l-.3 1.4c.7-1 2.1-1.7 3.8-1.7 4.4 0 5.3 3.5 4.4 7.7-.8 3.9-2.8 7.3-7.5 7.3zm1.6-11.6c-1.63 0-2.9 1.1-3.45 4.08-.5 2.6-.16 4.34 1.82 4.34 1.42 0 2.55-1.8 3.03-4.3.5-2.6-.1-4.2-1.4-4.2zm12.56 11.68c-4.64 0-6.65-2.33-5.65-7.4 1.1-5.9 4.6-7.6 8.7-7.6 4.7 0 6.6 2.38 5.6 7.48-.9 4.4-3.3 7.52-8.7 7.52zm2.57-11.8c-2 0-3.1.93-3.7 4.25-.6 3.1-.1 4.4 1.7 4.4 2.5 0 3.3-1.62 3.9-4.67.5-2.65.1-4-1.7-4z" fill="#E80E8A"/><path d="M16.28 7.4c-1.3 0-4.5 0-4.5 4.38v7.78h-2.3V5.53h2.24v2.73c.8-3.13 3.1-3.1 4.32-3.1.27 0 .86.02 1.28.08V7.4h-1.04zm13.7 12.2c-1.78 0-2.26-.4-2.58-1.77-.78 1.07-1.66 2.12-4.9 2.12-3.5 0-4.7-1.42-4.7-4.2 0-2.82 1.24-3.84 8.63-4.8.8-.1.8-1.32.8-1.72 0-1.88-.9-2.2-3.2-2.2-3 0-3.44.78-3.44 2.84h-2.3c0-1.95 0-4.7 5.9-4.7 3.8 0 5.2 1.2 5.2 4.54v7c0 1.2.5 1.2 1.3 1.2v1.8l-1 .1zm-2.7-7.2c-1.3.42-2.3.58-3.14.7-3.85.5-3.96 1.35-3.96 2.88 0 1.6 1.17 2.1 2.78 2.1 2.8 0 4.3-1.27 4.3-4.03V12.4zm14.88 7.16v-8.9c0-2.13-.2-3.57-2.84-3.57-2.15 0-4.08.8-4.08 4.3v8.1h-2.3v-14h2.3v2.2c.5-1.1 1.34-2.6 4.5-2.6 4.6 0 4.72 2.8 4.72 4.8v9.6h-2.3zm11.22.4c-3.16 0-6.64-1.14-6.64-7.35 0-5.2 2.46-7.4 6.83-7.4 4.8 0 5.7 2.8 5.84 4.8h-2.2c-.2-1.3-.7-2.9-3.6-2.9-3.1 0-4.4 1.7-4.4 5.7 0 3.6 1 5.4 4.4 5.4 3.5 0 3.6-1.7 3.8-3.3h2.3c0 1.9-.8 5.3-6.1 5.3zm20.84-6.63H63.67c0 2.04.24 4.74 4.28 4.74 2.74 0 3.54-.9 3.86-2.7H74c-.16 2.2-1.23 4.58-6.16 4.58-3.94 0-6.6-1.85-6.6-7.05 0-5.7 2.34-7.74 6.9-7.74 1.65 0 6.13-.03 6.13 7.1l-.03 1.07zm-6.35-6.3c-3.43 0-3.96 2.15-4.2 4.42h8.14c0-2.65-.6-4.42-3.9-4.42zm13.2 12.54c-1 0-2.4-.02-3.1-.7-.72-.66-.75-1.98-.75-2.84V8h-1.85V5.53h1.85V1.08h3.73v4.45h2.3V8h-2.3v7.26c0 .7 0 1.02.24 1.26.2.2.5.2.8.2h1.2v2.85h-2.1zm9.83 0h-3.53l-5.1-14.04h4.06l2.87 9.97 2.83-9.97h3.94L90.9 19.56z" fill="#231F20"/><path d="M149.25 5.33c-1.2 0-2.78.24-3.65 1.74l.35-1.77h-3.9l-2.8 14.28h4.42l1.5-7.7c.32-1.68.94-2.98 2.9-2.98h.86l.7-3.57h-.38zm7.27 3.57h2.2l.7-3.6h-2.2l.8-4.23h-4.4l-.8 4.25h-1.96l-.68 3.58h1.9l-1.36 6.96c-.6 3.16.35 3.8 3.38 3.8h2.5l.66-3.46h-1.58c-.56 0-.56-.13-.4-1l1.22-6.3z" fill="#E80E8A"/><path fill="#231F20" d="M4.83 7.9v11.65H2.5V7.9H.58V5.52H2.5V4.5c0-1.9.42-3.5 3.57-3.5.43 0 .9.03 1.35.05V3l-.7-.03c-1.9 0-1.9.64-1.9 1.64v1h2.6v2.3h-2.6z"/></symbol><symbol viewBox="0 0 43 32" id="FullscreenEnter"><path fill="#FFF" d="M7.228 6.778h28.58v18.42H7.228z"/><path fill="none" stroke="#FFF" stroke-width="2.576" stroke-miterlimit="10" d="M7.228 1.328H1.38v6.89m34.427 22.418h5.86v-6.89m0-15.708v-6.71h-6.002M1.38 23.926v6.723h6.016"/></symbol><symbol viewBox="0 0 43 32" id="FullscreenExit"><path fill="#FFF" d="M14.367 11.442h14.356v9.16H14.367z"/><path fill="none" stroke="#FFF" stroke-width="2.561" stroke-miterlimit="10" d="M7.28 1.518H1.44v6.82m34.37 22.19h5.852v-6.82m0-15.55V1.52H35.67M1.44 23.886v6.654h6.006"/></symbol><symbol viewBox="0 0 193.5 189" id="HP_ChargementReco"><path fill="none" stroke="#FFF" stroke-width="2" stroke-linecap="round" stroke-linejoin="round" stroke-miterlimit="10" d="M164.87 154.1c-16.5 18.7-40.64 30.5-67.54 30.5-49.72 0-90.03-40.3-90.03-90.04v-22.5l33.76 33.76m-33.06 0h33.06H8zM28.63 35.1C45.13 16.4 69.27 4.6 96.17 4.6c49.73 0 90.03 40.3 90.03 90.04v22.5L152.45 83.4m33.05-.02h-33.06 33.06z"/></symbol><symbol viewBox="0 0 20 20" id="Lien_DesktopPlayer"><path d="M10.697 13.258L6.3 17.656c-.46.46-1.21.46-1.668 0l-2.288-2.288a1.18 1.18 0 0 1 0-1.667l4.398-4.396a1.18 1.18 0 0 1 1.667 0l2.286 2.29c.46.456.46 1.206 0 1.665zm6.96-6.958l-4.4 4.397c-.46.46-1.21.46-1.665 0L9.302 8.41a1.184 1.184 0 0 1 0-1.668l4.4-4.398a1.177 1.177 0 0 1 1.665 0l2.29 2.288a1.183 1.183 0 0 1 0 1.667zm-10.19 6.232l5.065-5.064" fill="none" stroke="#FFF" stroke-width="2" stroke-miterlimit="8"/></symbol><symbol preserveAspectRatio="xMidYMid" viewBox="0 0 13 8" id="Player_ChevronTemps_Bas"><path fill-rule="evenodd" d="M6.25 8.04L0 1.67 1.5.2l4.82 4.9 4.7-5.1 1.53 1.57-6.3 6.47z"/></symbol><symbol viewBox="5.433 -0.386 113.386 113.386" id="Player_Loading"><g fill="none" stroke="#FFF" stroke-linecap="round" stroke-linejoin="round" stroke-miterlimit="10"><path d="M99.97 89.366c-9.164 10.385-22.577 16.94-37.522 16.94-27.625 0-50.018-22.393-50.018-50.02V43.777l18.755 18.76M12.822 62.54h18.365-18.365z"/><path d="M99.97 89.366c-9.164 10.385-22.577 16.94-37.522 16.94-27.625 0-50.018-22.393-50.018-50.02V43.777l18.755 18.76M24.28 23.25C33.445 12.86 46.86 6.307 61.804 6.307c27.625 0 50.018 22.392 50.018 50.022v12.506l-18.755-18.76M111.43 50.074H93.064h18.366z"/></g></symbol><symbol viewBox="0 0 170 100" id="RelatedPlaceHolder"><path fill="#e4e4e4" d="M0 0h170v100H0z"/><path fill="#FFF" d="M38.404 31.2v-3.3H35.5v17.82h2.97v-9.9c0-5.61 4.092-5.61 5.742-5.61h1.32v-2.772l-1.65-.132c-1.518 0-4.488 0-5.478 3.96M61.24 42.024V33.18c0-4.356-1.782-5.94-6.732-5.94-7.59 0-7.59 3.63-7.59 6.072h2.838c0-2.64.528-3.63 4.356-3.63 2.97 0 4.158.462 4.158 2.838 0 .528 0 1.98-1.056 2.178-9.504 1.32-11.088 2.64-11.088 6.138 0 3.564 1.518 5.412 5.94 5.412 4.224 0 5.28-1.32 6.336-2.64.396 1.65.99 2.178 3.3 2.178h1.188v-2.178c-1.056 0-1.65 0-1.65-1.584m-2.904-3.3c0 3.564-1.98 5.148-5.544 5.148-1.98 0-3.564-.528-3.564-2.64 0-1.98.132-3.036 5.082-3.696 1.122-.132 2.376-.33 3.96-.858v2.178zm15.84-11.352c-3.96 0-5.082 1.98-5.676 3.3V27.9h-2.97v17.82h2.97V35.358c0-4.422 2.442-5.61 5.28-5.61 3.3 0 3.564 1.98 3.564 4.62V45.72h3.036V33.51c0-2.64-.264-6.204-6.138-6.204m17.556 16.5c-4.356 0-5.61-2.31-5.61-6.798 0-5.082 1.584-7.26 5.676-7.26 3.696 0 4.29 1.98 4.62 3.696h2.904c-.132-2.442-1.32-6.072-7.458-6.072-5.61 0-8.712 2.838-8.712 9.57 0 7.92 4.422 9.438 8.448 9.438 6.864 0 7.92-4.356 7.92-6.732h-2.904c-.264 1.98-.462 4.29-4.818 4.29m18.744-16.5c-5.808 0-8.844 2.64-8.844 9.9 0 6.732 3.432 9.108 8.448 9.108 6.402 0 7.722-3.036 7.92-5.94h-2.772c-.396 2.376-1.32 3.498-4.884 3.498-5.28 0-5.478-3.3-5.478-5.94h13.53v-1.32c0-9.24-5.676-9.24-7.788-9.24m-5.94 7.92c.33-2.904.99-5.676 5.412-5.676 4.224 0 5.016 2.31 5.016 5.676H104.8zm36.3-7.59l-3.63 12.606-3.63-12.54h-6.864v-5.808h-4.818v5.676h-2.31v3.168h2.31v10.296c0 1.122 0 2.772.99 3.63.924.858 2.64.858 3.96.858h2.772v-3.63h-1.518c-.396 0-.858 0-1.122-.264-.264-.264-.264-.66-.264-1.518v-9.24h2.838l5.28 14.718h4.62l6.402-17.952H141.1zm-114.51-1.32v1.32h-2.442v3.036h2.442v14.85h2.97V30.804h3.3v-3.036h-3.3V26.58c0-1.32 0-1.98 2.442-1.98h.858v-2.64h-1.716c-3.96 0-4.62 1.98-4.62 4.488m24.42 30.888v-6.6H26.59v6.6h14.19L26.26 71.46v6.6h24.618v-6.6h-14.52M143.74 59.448c0-5.148-4.356-9.24-9.504-9.24-4.158 0-7.656 1.848-9.24 4.62-1.584-2.772-4.62-4.62-8.184-4.62s-6.732 1.98-8.25 4.95v-4.422H101.5V78.06h7.062V61.956c0-2.904 2.376-5.28 5.28-5.28s5.28 2.442 5.28 5.28V78.06h7.062V61.89c0-2.838 2.376-5.148 5.28-5.148s5.28 2.376 5.28 5.28v15.84h6.996V59.58zm-57.42-9.24h-1.716l-1.518.33-1.452.462c-.528.132-.99.33-1.452.66-.462.132-.924.396-1.32.66l-1.32.924-1.188 1.056-.66.792-.792.99-.66 1.122-.66 1.122-.462 1.32-.462 1.32-.198 1.32-.132 1.32v.66c0 .264 0 .66-.132 1.056l-.198 1.056-.462.99-.528.924c-.198.396-.396.66-.66.924l-.792.66-.858.66-.99.462c-.33.198-.66.33-1.056.396l-1.122.132h-1.122c-.396 0-.792-.132-1.122-.198-.33 0-.66-.198-.99-.33l-.99-.528c-.264-.198-.66-.396-.858-.66-.264-.198-.528-.396-.66-.66l-.66-.858-.66-1.056c0-.33-.198-.66-.33-.99 0-.462-.198-.792-.198-1.188-.132-.33-.132-.66-.132-1.122 0-.396 0-.66.132-1.122 0-.33.132-.66.264-1.056l.462-.99.66-.924c.132-.264.396-.66.66-.792l.792-.66.924-.66c.33 0 .66-.264.99-.33l1.122-.33 1.122-.132h1.32l1.32.396c.462.198.858.33 1.32.66.198 0 .462.264.66.462a16.248 16.248 0 0 1 4.224-5.28l-1.32-.858c-.264-.264-.66-.462-1.056-.66L70.216 51c-.462 0-.858-.198-1.32-.33l-1.32-.33-1.32-.132h-2.64c-.264 0-.66 0-.99.132-.33 0-.66.132-1.056.264-.33 0-.66.198-1.056.33l-.99.33-.99.462-.924.528c-.33.198-.66.396-.858.66l-.792.726-.792.66-.66.858-.66.858-.66.924-.462.924c-.264.33-.396.66-.528.99l-.396.99c0 .33-.198.66-.264 1.056 0 .396-.132.792-.198 1.122l-.198 1.122v2.376l.198 1.056c0 .396.132.66.264 1.056 0 .396.198.66.264 1.056s.264.66.462 1.056l.462.99.528.858c.198.264.396.66.66.858.198.264.396.66.66.858l.66.66.858.66c.264.33.528.528.858.66l.924.66.924.528.99.462.924.33 1.122.33c.396 0 .792.132 1.122.198h1.122c.462.132.858.132 1.32.132s.99 0 1.518-.132c.528 0 1.056-.198 1.584-.33l1.518-.462 1.452-.66a5.395 5.395 0 0 0 1.32-.792l1.32-.924 1.122-1.056.462-.528.66-1.056c.33-.33.528-.66.792-1.122l.66-1.122c0-.396.264-.858.396-1.32l.396-1.188c0-.462.198-.924.264-1.32v-1.32c.132-.264.132-.462.132-.66V62.88l.33-.99.396-.99.66-.99c.132-.264.396-.528.66-.792.198-.264.462-.528.792-.66.264-.33.528-.528.858-.66l.99-.462 1.056-.33c.33 0 .66 0 1.122-.132h1.122c.396 0 .66.132 1.122.198l1.056.462.924.462c.33.198.66.396.858.66l.792.66.66.924.528.924.396 1.056.198 1.056v.924c0 .462 0 .858-.132 1.188 0 .396-.198.66-.264 1.122l-.462.99c-.132.264-.33.66-.66.858-.132.33-.33.66-.66.858s-.462.462-.66.66l-.99.66-.99.396-1.056.264-1.056.132h-1.32l-1.32-.396-1.32-.528-.66-.528a16.248 16.248 0 0 1-4.224 5.28l1.122.66c.33.264.66.528 1.122.66l1.188.66c.462 0 .858.264 1.32.396.396 0 .858.198 1.32.264l1.32.198h2.64l.99-.264c.396 0 .66-.132 1.122-.198l1.056-.33.99-.396.99-.462.924-.528.858-.66.858-.66.792-.66.66-.924.66-.792.66-.858.462-.924.396-.99.396-1.056c0-.33.198-.66.264-1.056 0-.396.132-.66.198-1.122V64.86l.132-1.122v-1.122l-.264-1.122-.198-1.056-.33-1.056-.396-.99-.528-.99-.528-.924c-.198-.264-.396-.66-.66-.858-.132-.264-.396-.528-.66-.792l-.66-.792-.858-.66-.858-.66-.858-.66-1.056-.462c-.33-.264-.66-.396-.99-.528l-1.056-.396c-.396 0-.66-.198-1.056-.264-.396 0-.66-.132-1.122-.198a2.736 2.736 0 0 0-1.056-.198h-.792"/></symbol><symbol viewBox="0 0 426.942 86" id="Studio4"><defs><path id="aya" d="M53.515 32.15c-.38-2.54-2.44-6.85-8.998-6.85-4.5 0-7.397 2.847-7.397 5.85 0 2.616 1.6 4.54 5.338 5.232l7.245 1.385c10.295 1.924 15.632 8.62 15.632 16.392 0 8.54-7.092 17.237-19.98 17.237-14.946 0-21.352-9.773-22.114-17.47L34.3 51.236c.458 5 3.813 9.388 11.21 9.388 4.73 0 7.626-2.31 7.626-5.694 0-2.772-2.212-4.773-5.796-5.465L39.94 48.08c-9.15-1.77-14.717-7.927-14.717-16.007 0-10.313 9-17.546 19.37-17.546 13.497 0 18.607 8.157 19.75 14.545L53.516 32.15zm50.512-4.85v42.943h-12.05V27.3H75.355V15.68h45.374V27.3h-16.7zm30.225 23.242V15.68h12.05v33.86c0 6.62 3.66 9.93 9.378 9.93 5.72 0 9.38-3.31 9.38-9.93V15.68h12.05v34.86c0 13.7-9.533 20.933-21.43 20.933-11.895 0-21.428-7.233-21.428-20.93zm56.456 19.7V15.68h19.6c16.242 0 27.146 10.466 27.146 27.32S226.55 70.242 210.23 70.242h-19.522zm19.065-11.466c8.312 0 15.1-4.85 15.1-15.776s-6.788-15.853-15.1-15.853h-7.016v31.63h7.016zm42.58 11.466V15.68h12.2v54.562h-12.2zm54.313-55.716c15.176 0 28.064 11.16 28.064 28.474 0 17.24-12.888 28.397-28.064 28.397-15.25 0-28.14-11.158-28.14-28.397 0-17.315 12.89-28.474 28.14-28.474zm0 44.865c7.473 0 15.557-5.078 15.557-16.467 0-11.39-8.084-16.546-15.557-16.546-7.55 0-15.632 5.157-15.632 16.546 0 11.39 8.084 16.468 15.632 16.468zm50.18-13.92l22.51-29.784h15.675v32.14h8.67v11.106h-8.67V70.29H381.86V58.932h-25.01V45.47zm25.012-15.65l-13.59 18.006h13.59V29.82z"/></defs><clipPath id="ayb"><use xlink:href="#aya" overflow="visible"/></clipPath><g clip-path="url(#ayb)"><defs><path id="ayc" d="M-38.07-169.72h568.074v368.49H-38.07z"/></defs><clipPath id="ayd"><use xlink:href="#ayc" overflow="visible"/></clipPath><g clip-path="url(#ayd)"><image overflow="visible" width="3000" height="1946" xlink:href="/static/images/studio4_bg_optimized.jpg" transform="matrix(.19 0 0 .19 -38.07 -169.72)"/></g></g></symbol><symbol viewBox="0 0 300 240" id="VignettePlaceHolder"><path fill="transparent" d="M0 0h300v240H0z"/><path fill-opacity=".25" d="M79.4 90v-5H75v27h4.5V97c0-8.5 6.2-8.5 8.7-8.5h2v-4.2l-2.5-.2c-2.3 0-6.8 0-8.3 6m34.6 16.3V93c0-6.6-2.7-9-10.2-9-11.5 0-11.5 5.5-11.5 9.2h4.3c0-4 .8-5.5 6.6-5.5 4.5 0 6.3.7 6.3 4.3 0 .8 0 3-1.6 3.3-14.4 2-16.8 4-16.8 9.3 0 5.4 2.3 8.2 9 8.2 6.4 0 8-2 9.6-4 .6 2.5 1.5 3.3 5 3.3h1.8v-3.3c-1.6 0-2.5 0-2.5-2.4m-4.4-5c0 5.4-3 7.8-8.4 7.8-3 0-5.4-.8-5.4-4 0-3 .2-4.6 7.7-5.6 1.7-.2 3.6-.5 6-1.3v3.3zm24-17.2c-6 0-7.7 3-8.6 5V85h-4.5v27h4.5V96.3c0-6.7 3.7-8.5 8-8.5 5 0 5.4 3 5.4 7V112h4.6V93.5c0-4-.4-9.4-9.3-9.4m26.6 25c-6.6 0-8.5-3.5-8.5-10.3 0-7.7 2.4-11 8.6-11 5.6 0 6.5 3 7 5.6h4.4c-.2-3.7-2-9.2-11.3-9.2-8.5 0-13.2 4.3-13.2 14.5 0 12 6.7 14.3 12.8 14.3 10.4 0 12-6.6 12-10.2h-4.4c-.4 3-.7 6.5-7.3 6.5m28.4-25c-8.8 0-13.4 4-13.4 15 0 10.2 5.2 13.8 12.8 13.8 9.7 0 11.7-4.6 12-9H196c-.6 3.6-2 5.3-7.4 5.3-8 0-8.3-5-8.3-9h20.5v-2c0-14-8.6-14-11.8-14m-9 12c.5-4.4 1.5-8.6 8.2-8.6 6.4 0 7.6 3.5 7.6 8.6H180zm55-11.5l-5.5 19.1-5.5-19h-10.4v-8.8h-7.3v8.6h-3.5v4.8h3.5v15.6c0 1.7 0 4.2 1.5 5.5 1.4 1.3 4 1.3 6 1.3h4.2v-5.5h-2.3c-.6 0-1.3 0-1.7-.4-.4-.4-.4-1-.4-2.3v-14h4.3l8 22.3h7l9.7-27.2H235zm-173.5-2v2h-3.7v4.6h3.7V112H66V89.4h5v-4.6h-5V83c0-2 0-3 3.7-3H71v-4h-2.6c-6 0-7 3-7 6.8m37 46.8v-10H61.5v10H83L61 151v10h37.3v-10h-22M239 132.8c0-7.8-6.6-14-14.4-14-6.3 0-11.6 2.8-14 7-2.4-4.2-7-7-12.4-7s-10.2 3-12.5 7.5v-6.7H175V161h10.7v-24.4c0-4.4 3.6-8 8-8s8 3.7 8 8V161h10.7v-24.5c0-4.3 3.6-7.8 8-7.8s8 3.6 8 8v24H239V133zm-87-14h-2.6l-2.3.5-2.2.7c-.8.2-1.5.5-2.2 1-.7.2-1.4.6-2 1l-2 1.4-1.8 1.6-1 1.2-1.2 1.5-1 1.7-1 1.7-.7 2-.7 2-.3 2-.2 2v1c0 .4 0 1-.2 1.6l-.3 1.6-.7 1.5-.8 1.4c-.3.6-.6 1-1 1.4l-1.2 1-1.3 1-1.5.7c-.5.3-1 .5-1.6.6l-1.7.2h-1.7c-.6 0-1.2-.2-1.7-.3-.5 0-1-.3-1.5-.5l-1.5-.8c-.4-.3-1-.6-1.3-1-.4-.3-.8-.6-1-1l-1-1.3-1-1.6c0-.5-.3-1-.5-1.5 0-.7-.3-1.2-.3-1.8-.2-.5-.2-1-.2-1.7 0-.6 0-1 .2-1.7 0-.5.2-1 .4-1.6l.7-1.5 1-1.4c.2-.4.6-1 1-1.2l1.2-1 1.4-1c.5 0 1-.4 1.5-.5l1.7-.5 1.7-.2h2l2 .6c.7.3 1.3.5 2 1 .3 0 .7.4 1 .7 1.5-3 3.7-5.8 6.4-8l-2-1.3c-.4-.4-1-.7-1.6-1l-1.8-1c-.7 0-1.3-.3-2-.5l-2-.5-2-.2h-4c-.4 0-1 0-1.5.2-.5 0-1 .2-1.6.4-.5 0-1 .3-1.6.5l-1.5.5-1.5.7-1.4.8c-.5.3-1 .6-1.3 1L106 124l-1.2 1-1 1.3-1 1.3-1 1.4-.7 1.4c-.4.5-.6 1-.8 1.5l-.6 1.5c0 .5-.3 1-.4 1.6 0 .6-.2 1.2-.3 1.7l-.3 1.7v3.6l.3 1.6c0 .6.2 1 .4 1.6 0 .6.3 1 .4 1.6s.4 1 .7 1.6l.7 1.5.8 1.3c.3.4.6 1 1 1.3.3.4.6 1 1 1.3l1 1 1.3 1c.4.5.8.8 1.3 1l1.4 1 1.4.8 1.5.7 1.4.5 1.7.5c.6 0 1.2.2 1.7.3h1.7c.7.2 1.3.2 2 .2s1.5 0 2.3-.2c.8 0 1.6-.3 2.4-.5l2.3-.7 2.2-1c.7-.3 1.4-.7 2-1.2l2-1.4 1.7-1.6.7-.8 1-1.6c.5-.5.8-1 1.2-1.7l1-1.7c0-.6.4-1.3.6-2l.6-1.8c0-.7.3-1.4.4-2v-2c.2-.4.2-.7.2-1V138l.5-1.5.6-1.5 1-1.5c.2-.4.6-.8 1-1.2.3-.4.7-.8 1.2-1 .4-.5.8-.8 1.3-1l1.5-.7 1.6-.5c.5 0 1 0 1.7-.2h1.7c.6 0 1 .2 1.7.3l1.6.7 1.4.7c.5.3 1 .6 1.3 1l1.2 1 1 1.4.8 1.4.6 1.6.3 1.6v1.4c0 .7 0 1.3-.2 1.8 0 .6-.3 1-.4 1.7l-.7 1.5c-.2.4-.5 1-1 1.3-.2.5-.5 1-1 1.3s-.7.7-1 1l-1.5 1-1.5.6-1.6.4-1.6.2h-2l-2-.6-2-.8-1-.8c-1.5 3-3.7 5.8-6.4 8l1.7 1c.5.4 1 .8 1.7 1l1.8 1c.7 0 1.3.4 2 .6.6 0 1.3.3 2 .4l2 .3h4l1.5-.4c.6 0 1-.2 1.7-.3l1.6-.5 1.5-.6 1.5-.7 1.4-.8 1.3-1 1.3-1 1.2-1 1-1.4 1-1.2 1-1.3.7-1.4.6-1.5.6-1.6c0-.5.3-1 .4-1.6 0-.6.2-1 .3-1.7V141l.2-1.7v-1.7l-.4-1.7-.3-1.6-.5-1.6-.6-1.5-.8-1.5-.8-1.4c-.3-.4-.6-1-1-1.3-.2-.4-.6-.8-1-1.2l-1-1.2-1.3-1-1.3-1-1.3-1-1.6-.7c-.5-.4-1-.6-1.5-.8l-1.6-.6c-.6 0-1-.3-1.6-.4-.6 0-1-.2-1.7-.3-.5-.2-1-.3-1.6-.3H152"/></symbol><symbol viewBox="-486 486 29 29" id="clock"><path fill="#111105" d="M-471 515c-7.7 0-14-6.3-14-14s6.3-14 14-14 14 6.3 14 14-6.3 14-14 14zm0-26.8c-7.1 0-12.8 5.8-12.8 12.8s5.8 12.8 12.8 12.8 12.8-5.8 12.8-12.8-5.7-12.8-12.8-12.8zm-7 14h7v-10.5h1.2v11.6h-8.2v-1.1z"/></symbol><symbol viewBox="5 5 95 85" id="facebook"><path fill="none" stroke="#FFF" stroke-width="2" d="M45.484 90V52.46h-9.926V38.947h9.926V27.402c0-9.07 5.864-17.402 19.374-17.402 5.47 0 9.516.524 9.516.524l-.32 12.62s-4.124-.04-8.626-.04c-4.872 0-5.652 2.246-5.652 5.972v9.87h14.667l-.638 13.515h-14.03V90h-14.29z"/></symbol><symbol viewBox="5 5 95 85" id="facebook_full"><path fill="#FFF" d="M45.484 90V52.46h-9.926V38.947h9.926V27.402c0-9.07 5.864-17.402 19.374-17.402 5.47 0 9.516.524 9.516.524l-.32 12.62s-4.124-.04-8.626-.04c-4.872 0-5.652 2.246-5.652 5.972v9.87h14.667l-.638 13.515h-14.03V90h-14.29z"/></symbol><symbol viewBox="0 0 20 20" id="fermer"><path d="M1 13.3L13.5.5 175 162 336.4.4 348.8 13l-161 161.6L349 336l-12.6 12.8L175 187.4 13.6 348.8 1 336l161.3-161.4z"/></symbol><symbol viewBox="0 0 110.000000 131.000000" id="flash"><path d="M100.4 1c-8 1.2-17.7 4.8-24.1 8.9C63.2 18.4 54.2 32.2 44 59.1c-10.2 27-19.5 40.4-31.3 44.7-3.2 1.2-7.3 2.2-9.2 2.2H0v25h5.8c12.8 0 27.1-5.9 36.2-15 6.4-6.4 13.7-17.7 19-29.3l3.5-7.6 15.3-.1H95V53h-9.5c-6.3 0-9.5-.4-9.5-1.1 0-2.1 6.8-12.4 11.1-16.6 4.9-5 11.1-8.2 17.6-9.1l4.8-.7.3-12.8c.3-14.5 1.3-13.3-9.4-11.7z"/></symbol><symbol viewBox="0 0 70 70" id="irl"><path d="M25.4 64.7h9l-9-24.6-.2.3.2 8.7v15.7zm7.8-39.3c0-5.2-3.2-7.4-7.8-7.2V33h1c4.5 0 6.8-3.8 6.8-7.6zM9 64.7c1 0 2-.8 2-1.6V7c0-1-1-1.7-2-1.7H6.8c-1 0-2 .8-2 1.6v56c0 1 1 1.7 2 1.7H9zm37.7-51.4v-6c0-1.2-.8-2-2-2H26.5c9 .2 16.4 2.2 20.3 8zM40.2 40l6 12.4V35.2c-1.4 2-3.2 3.8-6 5zm23.5 24.7c1 0 1.6-.7 1.6-1.6v-9c0-.8-.6-1.4-1.4-1.6H46l6.3 12.3h11.2z"/></symbol><symbol viewBox="0 0 585 400" id="loader"><style>.bgloader-circle{stroke:#e4e2db;stroke-dasharray:540;stroke-dashoffset:1;stroke-width:120;fill:transparent}.bgloader-grey{-webkit-animation:draw-grey 3.8s infinite;animation:draw-grey 3.8s infinite}.bgloader-colored{stroke:#ff5b51;-webkit-animation:draw-colored 3.8s infinite;animation:draw-colored 3.8s infinite}@-webkit-keyframes draw-grey{0%}@keyframes draw-grey{0%}@-webkit-keyframes draw-colored{0%,50%}@keyframes draw-colored{0%,50%}</style><script><![CDATA[
        setTimeout(function() {
            var TOTAL_DURATION = 3800;

            var loader = document.getElementById('zoomLoader');
            var greyElements = loader.querySelectorAll('.loader-grey');
            var coloredElements = loader.querySelectorAll('.loader-colored');

            function isAnimated() {
                return parseInt(window.getComputedStyle(greyElements[0]).strokeDashoffset, 10) !== 1;
            }

            function setDashoffsetToClass(elements, dashoffset) {
                for (var i = 0; i < elements.length; i++) {
                    elements[i].style.strokeDashoffset = dashoffset;
                }
            }

            function moveThings(percent) {
                if (percent < 40) {
                    setDashoffsetToClass(greyElements, easeInOutCubic(percent, 0, 40, 0, 540));
                } else {
                    setDashoffsetToClass(greyElements, 540);
                }

                if (percent < 50) {
                    setDashoffsetToClass(coloredElements, 0);
                } else if(percent > 90) {
                    setDashoffsetToClass(coloredElements, 540);
                } else {
                    setDashoffsetToClass(coloredElements, easeInOutCubic(percent, 50, 90, 0, 540));
                }
            }

            var start = null;
            function step(timestamp) {
                if (start === null) {
                    start = timestamp;
                }

                var totalTime = timestamp - (start || timestamp);
                var percent = (totalTime % TOTAL_DURATION) * 100 / TOTAL_DURATION;

                moveThings(percent);

                window.requestAnimationFrame(step);
            }

            function easeInOutCubic(x, xMin, xMax, yMin, yMax) {
                x = (x - xMin) / (xMax - xMin);
                var y = x<0.5 ? 4*x*x*x : (x-1)*(2*x-2)*(2*x-2)+1;
                return (y * (yMax - yMin)) - yMin;
            }

            if (!isAnimated()) {
                window.requestAnimationFrame(step);
            }

        }, 100);
    ]]></script><defs><mask id="bglogo" width="585" height="400"><path fill="#FFF" fill-rule="evenodd" d="M514.5 229.76l-1.9 10.45-2.85 9.88c-.95 3.42-1.9 6.65-3.23 9.88l-4.18 9.5-4.75 8.93c-1.52 3.23-3.23 6.08-5.13 8.93-1.9 2.66-3.8 5.7-6.08 7.98-1.9 2.47-3.8 4.94-6.27 7.6-2.28 2.28-4.56 4.75-7.03 6.84-2.28 2.28-4.94 4.56-7.6 6.65-2.47 2.28-5.13 4.18-7.6 6.08-2.85 1.9-5.7 3.42-8.74 5.13l-8.74 4.37c-3.04 1.33-6.08 2.66-9.5 3.8-2.85 1.14-6.08 1.9-9.5 3.04-3.04.76-6.27 1.52-9.5 1.9-3.42.95-6.84 1.33-10.26 1.9L391 343c-4.37 0-8.36 0-12.54-.38s-8.36-.95-12.54-1.9c-3.8-.57-8.17-1.52-12.16-2.66l-11.4-3.8-11.4-5.32c-3.42-1.9-6.84-3.8-10.26-6.27-3.42-2.28-6.65-4.56-9.5-7.22 15.96-13.3 29.07-30.4 37.62-50.16 2.28 1.9 4.75 3.8 7.22 5.13 3.42 1.9 7.22 3.8 11.02 5.32 3.8 1.52 7.98 2.47 12.16 3.23 4.18.76 8.17.95 12.35.76l10.07-1.33c3.42-.57 6.46-1.52 9.5-2.66 3.42-1.33 6.46-2.85 9.5-4.37 2.85-1.9 5.7-3.42 8.17-5.7 2.47-1.9 4.94-3.8 7.22-6.46 2.28-2.47 4.56-4.94 6.46-7.6 1.9-2.85 3.8-5.7 5.32-8.74 1.52-3.04 2.85-6.27 3.8-9.5 1.33-3.42 1.9-6.84 2.66-10.26.76-3.42 1.14-7.03 1.14-10.64 0-3.8 0-7.22-.38-10.83l-1.9-10.45c-1.14-3.42-2.28-6.65-3.8-9.5-1.14-3.42-2.85-6.27-4.56-9.12-1.9-2.85-3.8-5.7-6.08-7.98-2.28-2.66-4.56-4.94-7.03-7.22s-5.13-4.37-7.98-6.08c-3.04-1.9-5.7-3.42-8.93-4.75-3.04-1.33-6.27-2.47-9.5-3.23-3.23-.95-6.65-1.52-10.07-1.9h-10.45c-3.42 0-6.84.76-10.07 1.52-3.23.95-6.46 1.9-9.5 3.23s-6.08 2.85-8.93 4.56l-8.17 5.7c-2.66 2.28-4.94 4.56-7.22 7.03s-4.37 5.13-6.27 7.98c-1.9 2.66-3.8 5.7-4.94 8.74-1.52 3.04-2.66 6.27-3.8 9.5-.76 3.42-1.52 6.84-1.9 10.26-.57 3.42-.95 7.03-.95 10.64v5.7c0 4.18-.57 8.55-1.14 12.92-.57 4.37-1.33 8.55-2.28 12.73-.95 4.18-1.9 8.36-3.42 12.35l-4.56 11.78c-1.9 3.8-3.42 7.6-5.7 11.4-1.9 3.42-3.8 6.84-6.27 10.26-2.28 3.42-4.75 6.84-7.22 9.88-1.33 1.9-2.85 3.42-4.37 5.13l-10.45 9.88-11.4 9.12c-3.8 2.66-8.17 5.13-12.35 7.6-4.18 1.9-8.55 4.18-13.3 5.7-4.18 1.9-8.93 3.8-13.3 4.75s-9.5 2.28-14.25 2.85c-4.94.76-9.5 1.14-14.44 1.33-3.8 0-7.6 0-11.4-.38-3.8 0-7.03-.57-10.64-1.14l-9.88-1.9-9.5-2.85c-3.42-1.14-6.65-2.28-9.5-3.8l-9.5-3.8-8.55-5.13-8.36-5.7c-2.66-1.9-5.13-3.8-7.6-6.27-2.66-1.9-5.13-4.37-7.6-6.84-1.9-2.47-4.37-4.94-6.65-7.6l-6.27-7.98-5.7-8.55-4.75-8.74c-1.52-3.04-3.04-6.08-4.37-9.5l-3.8-9.5-2.66-10.07c-.95-3.42-1.9-6.84-2.28-10.26l-1.14-10.64-.57-10.83c0-3.8 0-7.22.38-11.02l1.14-10.83 1.9-10.45 2.66-10.26c.95-3.23 1.9-6.46 3.42-9.5l3.8-9.5c1.9-3.23 3.42-6.27 4.94-9.5l5.7-8.36 5.7-8.17 6.65-7.6 7.22-7.03 7.6-6.46 8.17-5.7c2.85-1.9 5.7-3.8 8.55-5.32 3.04-1.9 5.7-3.23 8.93-4.56 3.04-1.33 6.08-2.66 9.5-3.8 2.85-1.14 6.08-1.9 9.5-3.04 3.23-.95 6.46-1.9 9.88-2.28l10.26-1.52 10.45-.57c4.18 0 8.36 0 12.35.57 4.18.38 8.36.95 12.54 1.9 3.8.57 8.17 1.52 12.16 2.66 3.8 1.14 7.6 2.66 11.4 4.18l11.4 5.32c3.8 1.9 7.03 4.18 10.45 6.46 3.42 1.9 6.65 4.56 9.88 7.22-16.15 13.3-29.26 30.4-38 49.97-1.9-1.9-4.56-3.42-7.03-4.94-3.8-1.9-7.22-3.8-11.02-5.13s-7.98-2.47-12.16-3.04c-3.8-.57-7.98-.76-12.16-.76-3.42 0-6.84.57-10.26 1.33-3.23.76-6.65 1.52-9.5 2.85-3.42 1.14-6.27 2.47-9.5 4.18-2.66 1.52-5.7 3.42-8.17 5.7-2.66 1.9-5.13 3.8-7.6 6.46-1.9 2.66-4.18 5.13-6.08 7.98-1.9 2.66-3.8 5.7-5.32 8.74-1.52 3.04-2.85 6.08-3.8 9.5-1.14 3.23-1.9 6.46-2.66 10.07-.57 3.8-.76 7.6-.95 10.83 0 3.8 0 7.22.38 10.83l1.9 10.45c1.14 3.04 2.28 6.46 3.8 9.5 1.33 3.04 2.85 6.08 4.75 8.93l5.7 8.17c2.28 2.66 4.75 4.94 7.22 7.03 2.47 1.9 5.13 4.18 7.98 5.7 2.66 1.9 5.7 3.42 8.74 4.75 3.04 1.52 6.27 2.47 9.5 3.42 3.23.95 6.65 1.52 10.07 1.9 3.8 0 7.22.38 10.64 0 3.42 0 6.84-.57 10.07-1.33 3.04-.76 6.27-1.9 9.5-3.04 2.85-1.33 5.7-2.66 8.74-4.56 2.85-1.9 5.7-3.8 7.98-5.7l7.22-7.03c2.28-2.47 4.18-5.13 6.08-7.98 1.9-2.66 3.8-5.7 4.94-8.74 1.52-3.23 2.66-6.46 3.8-9.5.95-3.8 1.9-7.03 2.28-10.45.57-3.8.76-7.22.76-10.83v-5.7l1.33-12.92c.57-4.18 1.33-8.55 2.28-12.73.76-3.8 1.9-7.98 3.23-11.97l4.37-11.4c1.9-3.8 3.42-7.6 5.7-11.4 1.9-3.42 3.8-6.84 6.27-10.26 1.9-3.42 4.56-6.65 7.22-9.88l6.46-6.84c3.23-3.42 6.84-6.84 10.45-10.07l11.4-8.55c4.18-2.66 8.17-4.94 12.54-7.22 4.37-2.28 8.74-4.18 13.3-5.7 4.56-1.9 9.12-3.23 13.87-4.37 4.37-1.14 9.5-1.9 14.06-2.66 4.75-.57 9.5-.95 14.44-.95 2.85 0 5.7 0 8.36.38l10.26 1.14 10.07 1.9 9.88 3.04c3.04.95 6.27 1.9 9.5 3.42l8.74 4.37 8.74 5.13 8.17 5.7c2.66 1.9 5.32 3.8 7.6 6.27l7.6 6.84 6.65 7.6 6.27 7.6 5.7 8.55 4.75 9.12 4.37 9.12 3.8 9.5 2.66 10.26c.76 3.42 1.52 6.84 1.9 10.26l1.9 10.64.38 10.83c0 3.8 0 7.6-.38 11.02 0 3.8-.57 7.22-1.14 10.64z"/></mask></defs><g mask="url(#bglogo)"><path class="bgloader-circle" d="M300 200a100 100 0 1 1-29.29-70.71"/><path class="bgloader-circle bgloader-colored" d="M300 200a100 100 0 1 1-29.29-70.71"/><path class="bgloader-circle bgloader-grey" d="M300 200a100 100 0 1 1-29.29-70.71"/><g transform="rotate(180 298 200)"><path class="bgloader-circle" d="M300 200a100 100 0 1 1-29.29-70.71"/><path class="bgloader-circle bgloader-colored" d="M300 200a100 100 0 1 1-29.29-70.71"/><path class="bgloader-circle bgloader-grey" d="M300 200a100 100 0 1 1-29.29-70.71"/></g></g></symbol><symbol class="bhloaderSpin" viewBox="0 0 120 80" id="loader_spin"><path class="bhloaderSpin__path" fill="#FFF" fill-rule="evenodd" d="M117.5 45.2l-.5 2.75-.75 2.6c-.25.9-.5 1.75-.85 2.6l-1.1 2.5-1.25 2.35c-.4.85-.85 1.6-1.35 2.35-.5.7-1 1.5-1.6 2.1-.5.65-1 1.3-1.65 2-.6.6-1.2 1.25-1.85 1.8-.6.6-1.3 1.2-2 1.75-.65.6-1.35 1.1-2 1.6-.75.5-1.5.9-2.3 1.35L98 72.1c-.8.35-1.6.7-2.5 1-.75.3-1.6.5-2.5.8-.8.2-1.65.4-2.5.5-.9.25-1.8.35-2.7.5L85 75c-1.15 0-2.2 0-3.3-.1-1.1-.1-2.2-.25-3.3-.5-1-.15-2.15-.4-3.2-.7l-3-1-3-1.4c-.9-.5-1.8-1-2.7-1.65-.9-.6-1.75-1.2-2.5-1.9 4.2-3.5 7.65-8 9.9-13.2.6.5 1.25 1 1.9 1.35.9.5 1.9 1 2.9 1.4 1 .4 2.1.65 3.2.85 1.1.2 2.15.25 3.25.2L87.8 58c.9-.15 1.7-.4 2.5-.7.9-.35 1.7-.75 2.5-1.15.75-.5 1.5-.9 2.15-1.5.65-.5 1.3-1 1.9-1.7.6-.65 1.2-1.3 1.7-2 .5-.75 1-1.5 1.4-2.3.4-.8.75-1.65 1-2.5.35-.9.5-1.8.7-2.7.2-.9.3-1.85.3-2.8 0-1 0-1.9-.1-2.85l-.5-2.75c-.3-.9-.6-1.75-1-2.5-.3-.9-.75-1.65-1.2-2.4-.5-.75-1-1.5-1.6-2.1-.6-.7-1.2-1.3-1.85-1.9s-1.35-1.15-2.1-1.6c-.8-.5-1.5-.9-2.35-1.25-.8-.35-1.65-.65-2.5-.85-.85-.25-1.75-.4-2.65-.5h-2.75c-.9 0-1.8.2-2.65.4-.85.25-1.7.5-2.5.85s-1.6.75-2.35 1.2l-2.15 1.5c-.7.6-1.3 1.2-1.9 1.85s-1.15 1.35-1.65 2.1c-.5.7-1 1.5-1.3 2.3-.4.8-.7 1.65-1 2.5-.2.9-.4 1.8-.5 2.7-.15.9-.25 1.85-.25 2.8v1.5c0 1.1-.15 2.25-.3 3.4s-.35 2.25-.6 3.35-.5 2.2-.9 3.25l-1.2 3.1c-.5 1-.9 2-1.5 3-.5.9-1 1.8-1.65 2.7-.6.9-1.25 1.8-1.9 2.6-.35.5-.75.9-1.15 1.35L55.15 67l-3 2.4c-1 .7-2.15 1.35-3.25 2-1.1.5-2.25 1.1-3.5 1.5-1.1.5-2.35 1-3.5 1.25s-2.5.6-3.75.75c-1.3.2-2.5.3-3.8.35-1 0-2 0-3-.1-1 0-1.85-.15-2.8-.3l-2.6-.5-2.5-.75c-.9-.3-1.75-.6-2.5-1l-2.5-1-2.25-1.35-2.2-1.5c-.7-.5-1.35-1-2-1.65-.7-.5-1.35-1.15-2-1.8-.5-.65-1.15-1.3-1.75-2L6.6 61.2l-1.5-2.25-1.25-2.3c-.4-.8-.8-1.6-1.15-2.5l-1-2.5L1 49c-.25-.9-.5-1.8-.6-2.7l-.3-2.8-.15-2.85c0-1 0-1.9.1-2.9l.3-2.85.5-2.75.7-2.7c.25-.85.5-1.7.9-2.5l1-2.5c.5-.85.9-1.65 1.3-2.5l1.5-2.2 1.5-2.15 1.75-2 1.9-1.85 2-1.7 2.15-1.5c.75-.5 1.5-1 2.25-1.4.8-.5 1.5-.85 2.35-1.2.8-.35 1.6-.7 2.5-1 .75-.3 1.6-.5 2.5-.8.85-.25 1.7-.5 2.6-.6l2.7-.4L33.2 5c1.1 0 2.2 0 3.25.15 1.1.1 2.2.25 3.3.5 1 .15 2.15.4 3.2.7 1 .3 2 .7 3 1.1l3 1.4c1 .5 1.85 1.1 2.75 1.7.9.5 1.75 1.2 2.6 1.9-4.25 3.5-7.7 8-10 13.15-.5-.5-1.2-.9-1.85-1.3-1-.5-1.9-1-2.9-1.35-1-.35-2.1-.65-3.2-.8-1-.15-2.1-.2-3.2-.2-.9 0-1.8.15-2.7.35-.85.2-1.75.4-2.5.75-.9.3-1.65.65-2.5 1.1-.7.4-1.5.9-2.15 1.5-.7.5-1.35 1-2 1.7-.5.7-1.1 1.35-1.6 2.1-.5.7-1 1.5-1.4 2.3-.4.8-.75 1.6-1 2.5-.3.85-.5 1.7-.7 2.65-.15 1-.2 2-.25 2.85 0 1 0 1.9.1 2.85l.5 2.75c.3.8.6 1.7 1 2.5.35.8.75 1.6 1.25 2.35l1.5 2.15c.6.7 1.25 1.3 1.9 1.85.65.5 1.35 1.1 2.1 1.5.7.5 1.5.9 2.3 1.25.8.4 1.65.65 2.5.9.85.25 1.75.4 2.65.5 1 0 1.9.1 2.8 0 .9 0 1.8-.15 2.65-.35.8-.2 1.65-.5 2.5-.8.75-.35 1.5-.7 2.3-1.2.75-.5 1.5-1 2.1-1.5l1.9-1.85c.6-.65 1.1-1.35 1.6-2.1.5-.7 1-1.5 1.3-2.3.4-.85.7-1.7 1-2.5.25-1 .5-1.85.6-2.75.15-1 .2-1.9.2-2.85v-1.5l.35-3.4c.15-1.1.35-2.25.6-3.35.2-1 .5-2.1.85-3.15l1.15-3c.5-1 .9-2 1.5-3 .5-.9 1-1.8 1.65-2.7.5-.9 1.2-1.75 1.9-2.6l1.7-1.8c.85-.9 1.8-1.8 2.75-2.65l3-2.25c1.1-.7 2.15-1.3 3.3-1.9 1.15-.6 2.3-1.1 3.5-1.5 1.2-.5 2.4-.85 3.65-1.15 1.15-.3 2.5-.5 3.7-.7 1.25-.15 2.5-.25 3.8-.25.75 0 1.5 0 2.2.1l2.7.3 2.65.5 2.6.8c.8.25 1.65.5 2.5.9L99.45 9l2.3 1.35 2.15 1.5c.7.5 1.4 1 2 1.65l2 1.8 1.75 2 1.65 2 1.5 2.25 1.25 2.4 1.15 2.4 1 2.5.7 2.7c.2.9.4 1.8.5 2.7l.5 2.8.1 2.85c0 1 0 2-.1 2.9 0 1-.15 1.9-.3 2.8z"/></symbol><symbol viewBox="0 0 200.485 97.087" id="logoBlock"><g fill="#FFF"><path class="biplacehoderTop" d="M29.383 20.13v-5.3H25.02v27.195h4.465v-15.09c0-8.467 6.182-8.467 8.727-8.467h2.025V14.26a24.735 24.735 0 0 0-2.493-.156c-2.335 0-6.806-.05-8.36 6.026m34.64 16.207V22.935c0-6.494-2.752-8.83-10.18-8.83-11.583 0-11.583 5.35-11.583 9.142h4.308c0-4 .834-5.508 6.652-5.508 4.468 0 6.23.624 6.23 4.26 0 .78 0 3.116-1.556 3.323-14.336 1.87-16.727 3.845-16.727 9.298 0 5.4 2.34 8.157 9.092 8.157 6.28 0 7.996-2.027 9.502-4.104.624 2.65 1.557 3.428 4.987 3.428.623 0 1.246-.052 1.87-.052v-3.376c-1.66 0-2.597-.05-2.597-2.337m-4.47-4.987c0 5.35-2.907 7.794-8.36 7.794-3.115 0-5.4-.938-5.4-4.054 0-2.96.208-4.623 7.687-5.61 1.66-.207 3.583-.52 6.075-1.352v3.222zm24.154-17.243c-6.13 0-7.792 2.804-8.727 4.932v-4.205h-4.47v27.194h4.47V26.26c0-6.702 3.738-8.417 7.897-8.417 5.143 0 5.506 2.807 5.506 6.913v17.27h4.465v-18.52c0-3.95-.21-9.4-9.14-9.4m26.59 25.037c-6.598 0-8.47-3.637-8.47-10.493 0-7.638 2.39-10.91 8.522-10.91 5.66 0 6.595 2.962 7.063 5.61h4.416c-.26-3.792-2.027-9.244-11.33-9.244-8.46 0-13.243 4.208-13.243 14.44 0 12.05 6.753 14.232 12.882 14.232 10.285 0 11.842-6.544 11.842-10.13h-4.414c-.364 3.067-.626 6.495-7.273 6.495m28.41-25.04c-8.83 0-13.35 3.95-13.35 15.013 0 10.076 5.14 13.662 12.773 13.662 9.56 0 11.64-4.625 11.95-8.88h-4.207c-.622 3.478-2.18 5.245-7.48 5.245-7.84 0-8.31-5.246-8.31-9.197h20.463c0-.674.055-1.4.055-2.077 0-13.817-8.673-13.767-11.893-13.767m-8.62 12.208c.467-4.415 1.503-8.572 8.153-8.572 6.386 0 7.636 3.43 7.636 8.572h-15.79zm54.997-11.478l-5.503 19.323-5.56-19.323h-10.44V6.208h-7.22v8.624h-3.582v4.78h3.582v15.58c0 1.665.053 4.21 1.454 5.505 1.403 1.3 4.056 1.35 6.024 1.35h4.21v-5.504h-2.34c-.62 0-1.244 0-1.657-.415-.47-.466-.47-1.09-.47-2.44V19.61h4.333l8.134 22.416h6.856l9.82-27.194h-7.64zm-173.56-1.998v1.987H7.766v4.58h3.758V42.02h4.493V19.4h5.014v-4.58h-5.014v-1.776c0-1.933 0-3.186 3.652-3.186.424 0 .94.05 1.362.05V6.15c-.84-.054-1.78-.104-2.613-.104-6.108 0-6.894 3.085-6.894 6.79"/><path d="M48.253 59.606v-9.918h-36.62v9.918H32.92l-22.044 21.41h-.01v9.92h37.387v-9.92H26.2z"/><path class="biplacehoderBottom" d="M189.108 62.84c0-7.82-6.676-14.15-14.492-14.15-6.298 0-11.582 2.92-14.013 7.25-2.424-4.33-7.052-7.25-12.357-7.25-5.46 0-10.198 3.096-12.56 7.627v-6.74h-10.674V90.93h10.675V66.657c.083-4.36 3.637-7.868 8.013-7.868 4.427 0 8.018 3.587 8.018 8.012l.004 24.136h10.68v-24.29c.085-4.354 3.633-7.86 8.006-7.86a8.014 8.014 0 0 1 8.018 7.992v24.157h10.682V62.84zm-87.253-14.09a21.48 21.48 0 0 0-4.78.542 21.6 21.6 0 0 0-2.294.668c-.75.272-1.49.578-2.207.93a21.85 21.85 0 0 0-3.99 2.542 19.853 19.853 0 0 0-1.76 1.597c-.36.363-.71.74-1.046 1.13-.424.5-.83 1.016-1.206 1.554-.38.538-.73 1.094-1.066 1.667a23.473 23.473 0 0 0-.905 1.767 21.026 21.026 0 0 0-1.87 7.882c-.01.29-.02.578-.02.867 0 .575-.045 1.142-.133 1.713-.084.55-.215 1.1-.387 1.633a10.708 10.708 0 0 1-1.448 2.934c-.31.448-.652.867-1.02 1.263a11.315 11.315 0 0 1-2.544 2.01 10.944 10.944 0 0 1-3.076 1.194c-.55.125-1.12.2-1.684.24-.58.032-1.16.03-1.737-.02-.56-.06-1.116-.153-1.665-.29-.54-.133-1.067-.31-1.577-.528-.503-.21-.99-.46-1.456-.744-.465-.28-.904-.6-1.323-.948a10.42 10.42 0 0 1-1.167-1.127 11.767 11.767 0 0 1-.99-1.29 11.39 11.39 0 0 1-.792-1.433 10.605 10.605 0 0 1-.58-1.548 11.718 11.718 0 0 1-.34-1.65 12.296 12.296 0 0 1-.083-1.727 10.94 10.94 0 0 1 .615-3.318c.18-.52.4-1.02.655-1.51.257-.48.547-.943.872-1.378a10.94 10.94 0 0 1 3.66-3.172c.482-.26.983-.485 1.497-.672.53-.182 1.07-.33 1.614-.437a11.274 11.274 0 0 1 3.732-.075c.685.105 1.355.27 2.007.5.636.225 1.253.51 1.837.847.415.242.817.505 1.2.797a21.196 21.196 0 0 1 6.282-7.954c-.53-.41-1.073-.8-1.637-1.153a20.283 20.283 0 0 0-1.74-1 22.59 22.59 0 0 0-1.843-.834 21.867 21.867 0 0 0-1.93-.65 19.85 19.85 0 0 0-2.008-.466 19.7 19.7 0 0 0-2.08-.275 21.18 21.18 0 0 0-8.714 1.106c-.518.182-1.034.38-1.535.604-.503.22-.99.462-1.476.715-.483.26-.95.538-1.41.835a21.55 21.55 0 0 0-1.337.93c-.43.326-.85.673-1.26 1.03-.405.36-.794.73-1.174 1.12-.376.39-.742.79-1.087 1.204-.35.422-.678.848-.995 1.29a22.4 22.4 0 0 0-1.682 2.8c-.24.494-.47.99-.675 1.5a20.18 20.18 0 0 0-.56 1.56c-.172.532-.317 1.07-.442 1.615a22.07 22.07 0 0 0-.494 3.362c-.04.58-.053 1.16-.042 1.74.01.58.042 1.153.1 1.726a20.423 20.423 0 0 0 .595 3.334 20.284 20.284 0 0 0 1.095 3.13 20.897 20.897 0 0 0 1.55 2.882c.293.46.6.903.93 1.335.33.432.672.85 1.03 1.257.362.406.73.797 1.122 1.173a21.795 21.795 0 0 0 2.498 2.082 21.044 21.044 0 0 0 4.297 2.352 24.92 24.92 0 0 0 1.565.562 21.86 21.86 0 0 0 3.27.748 21.174 21.174 0 0 0 3.59.216 21.15 21.15 0 0 0 7.028-1.375 19.57 19.57 0 0 0 2.172-.973c.698-.356 1.377-.76 2.025-1.19a23.228 23.228 0 0 0 1.9-1.43 21.756 21.756 0 0 0 2.45-2.436c.428-.497.832-1.02 1.214-1.552a22.1 22.1 0 0 0 1.058-1.667c.33-.575.635-1.164.907-1.768a21.86 21.86 0 0 0 .743-1.86c.217-.637.404-1.287.564-1.94.156-.664.283-1.334.378-2.01a20.223 20.223 0 0 0 .202-2.944h.004a11.134 11.134 0 0 1 .517-3.343c.17-.525.373-1.04.62-1.528.238-.49.517-.957.83-1.405a10.65 10.65 0 0 1 2.22-2.358 10.684 10.684 0 0 1 2.826-1.624c.52-.202 1.054-.365 1.592-.485a11.04 11.04 0 0 1 5.09.07c.54.136 1.068.31 1.573.525a11.145 11.145 0 0 1 2.785 1.698 10.724 10.724 0 0 1 2.154 2.417c.304.455.57.93.798 1.427.228.498.424 1.017.575 1.548.154.545.272 1.09.343 1.65.074.574.098 1.154.082 1.73a10.927 10.927 0 0 1-.613 3.317 11.06 11.06 0 0 1-1.525 2.887 11.062 11.062 0 0 1-2.29 2.296 10.778 10.778 0 0 1-2.878 1.544 10.852 10.852 0 0 1-3.31.63 11.5 11.5 0 0 1-2.038-.116 10.998 10.998 0 0 1-3.836-1.34c-.42-.243-.816-.513-1.2-.805a21.243 21.243 0 0 1-6.283 7.963c.527.406 1.072.795 1.636 1.153.564.358 1.144.69 1.74.997a21.752 21.752 0 0 0 3.774 1.485 21.682 21.682 0 0 0 4.09.745 22.03 22.03 0 0 0 3.787-.026 22.067 22.067 0 0 0 1.69-.235 25.31 25.31 0 0 0 1.643-.355 22.725 22.725 0 0 0 3.13-1.097c.5-.217.994-.46 1.475-.72.48-.255.95-.53 1.408-.826.46-.293.906-.605 1.338-.935.43-.326.854-.67 1.256-1.03.404-.355.802-.73 1.177-1.114a21.874 21.874 0 0 0 2.08-2.5 20.688 20.688 0 0 0 1.68-2.8c.245-.49.47-.99.682-1.5.205-.508.392-1.03.557-1.558.166-.53.315-1.065.44-1.61.127-.55.228-1.105.314-1.662.084-.567.145-1.13.178-1.704a20.654 20.654 0 0 0-.053-3.467 21.048 21.048 0 0 0-1.69-6.463c-.222-.5-.46-.99-.723-1.473a21.375 21.375 0 0 0-.826-1.407 21.828 21.828 0 0 0-1.963-2.593c-.36-.402-.734-.795-1.127-1.173-.385-.378-.79-.738-1.205-1.085a23.8 23.8 0 0 0-1.29-.994 20.81 20.81 0 0 0-1.365-.895 21.44 21.44 0 0 0-1.436-.78 21.22 21.22 0 0 0-1.5-.68 21.24 21.24 0 0 0-1.557-.56 18.902 18.902 0 0 0-1.616-.435 19.04 19.04 0 0 0-1.66-.315 21.5 21.5 0 0 0-3.084-.225"/></g></symbol><symbol preserveAspectRatio="xMidYMid" viewBox="0 0 57 14" id="logoZoom"><path fill-rule="evenodd" d="M53.14 13.98v-8c0-1.46-1.14-2.65-2.54-2.65-1.38 0-2.5 1.16-2.54 2.6V14h-3.38V6c0-1.46-1.14-2.65-2.54-2.65-1.4 0-2.5 1.17-2.54 2.6V14h-3.4V.28h3.4v2.24C40.33 1.02 41.83 0 43.57 0c1.7 0 3.15.96 3.92 2.4C48.28.95 49.95 0 51.95 0c2.48 0 4.6 2.1 4.6 4.68v9.3h-3.4zM35.5 8.04l-.1.55-.15.52c-.05.18-.1.35-.17.52l-.22.5-.25.47c-.08.17-.17.32-.27.47-.1.14-.2.3-.32.42-.1.13-.2.26-.33.4-.12.12-.24.25-.37.36-.12.12-.26.24-.4.35-.13.12-.27.22-.4.32-.15.1-.3.18-.46.27l-.46.23c-.16.07-.32.14-.5.2-.15.06-.32.1-.5.16-.16.04-.33.08-.5.1-.18.05-.36.07-.54.1L29 14c-.23 0-.44 0-.66-.02-.22-.02-.44-.05-.66-.1-.2-.03-.43-.08-.64-.14l-.6-.2-.6-.28c-.18-.1-.36-.2-.54-.33-.18-.12-.35-.24-.5-.38.84-.7 1.53-1.6 1.98-2.64.12.1.25.2.38.27.18.1.38.2.58.28.2.08.42.13.64.17.22.04.43.05.65.04l.53-.07c.18-.03.34-.08.5-.14.18-.07.34-.15.5-.23.15-.1.3-.18.43-.3.13-.1.26-.2.38-.34.12-.13.24-.26.34-.4.1-.15.2-.3.28-.46.08-.16.15-.33.2-.5.07-.18.1-.36.14-.54.04-.18.06-.37.06-.56 0-.2 0-.38-.02-.57l-.1-.55c-.06-.18-.12-.35-.2-.5-.06-.18-.15-.33-.24-.48-.1-.15-.2-.3-.32-.42-.12-.14-.24-.26-.37-.38s-.27-.23-.42-.32c-.16-.1-.3-.18-.47-.25-.16-.07-.33-.13-.5-.17a3.1 3.1 0 0 0-.53-.1h-.55c-.18 0-.36.04-.53.08-.17.05-.34.1-.5.17-.16.07-.32.15-.47.24l-.43.3c-.14.12-.26.24-.38.37s-.23.27-.33.42c-.1.14-.2.3-.26.46-.08.16-.14.33-.2.5-.04.18-.08.36-.1.54-.03.18-.05.37-.05.56v.3c0 .22-.03.45-.06.68-.03.23-.07.45-.12.67-.05.22-.1.44-.18.65l-.24.62c-.1.2-.18.4-.3.6-.1.18-.2.36-.33.54-.12.18-.25.36-.38.52-.07.1-.15.18-.23.27l-.55.52-.6.48c-.2.14-.43.27-.65.4-.22.1-.45.22-.7.3-.22.1-.47.2-.7.25s-.5.12-.75.15c-.26.04-.5.06-.76.07-.2 0-.4 0-.6-.02-.2 0-.37-.03-.56-.06l-.52-.1-.5-.15c-.18-.06-.35-.12-.5-.2l-.5-.2-.45-.27-.44-.3c-.14-.1-.27-.2-.4-.33-.14-.1-.27-.23-.4-.36-.1-.13-.23-.26-.35-.4l-.33-.42-.3-.45-.25-.46a5.79 5.79 0 0 1-.23-.5l-.2-.5-.14-.53c-.05-.18-.1-.36-.12-.54l-.06-.56-.03-.57c0-.2 0-.38.02-.58l.06-.57.1-.55.14-.54c.05-.17.1-.34.18-.5l.2-.5c.1-.17.18-.33.26-.5l.3-.44.3-.43.35-.4.38-.37.4-.34.43-.3c.15-.1.3-.2.45-.28.16-.1.3-.17.47-.24.16-.07.32-.14.5-.2.15-.06.32-.1.5-.16.17-.05.34-.1.52-.12l.54-.08.55-.03c.22 0 .44 0 .65.03.22.02.44.05.66.1.2.03.43.08.64.14.2.06.4.14.6.22l.6.28c.2.1.37.22.55.34.18.1.35.24.52.38-.85.7-1.54 1.6-2 2.63-.1-.1-.24-.18-.37-.26-.2-.1-.38-.2-.58-.27-.2-.07-.42-.13-.64-.16a4.4 4.4 0 0 0-.64-.04c-.18 0-.36.03-.54.07-.17.04-.35.08-.5.15-.18.06-.33.13-.5.22-.14.08-.3.18-.43.3-.14.1-.27.2-.4.34-.1.14-.22.27-.32.42-.1.14-.2.3-.28.46-.08.16-.15.32-.2.5-.06.17-.1.34-.14.53-.03.2-.04.4-.05.57 0 .2 0 .38.02.57l.1.55c.06.16.12.34.2.5.07.16.15.32.25.47l.3.43c.12.14.25.26.38.37.13.1.27.22.42.3.14.1.3.18.46.25.16.08.33.13.5.18.17.05.35.08.53.1.2 0 .38.02.56 0 .18 0 .36-.03.53-.07.16-.04.33-.1.5-.16.15-.07.3-.14.46-.24.15-.1.3-.2.42-.3l.38-.37c.12-.13.22-.27.32-.42.1-.14.2-.3.26-.46.08-.17.14-.34.2-.5.05-.2.1-.37.12-.55.03-.2.04-.38.04-.57v-.3l.07-.68c.03-.22.07-.45.12-.67.04-.2.1-.42.17-.63l.23-.6c.1-.2.18-.4.3-.6.1-.18.2-.36.33-.54.1-.18.24-.35.38-.52l.34-.36c.17-.18.36-.36.55-.53l.6-.45c.22-.14.43-.26.66-.38.23-.12.46-.22.7-.3.24-.1.48-.17.73-.23.23-.06.5-.1.74-.14.25-.03.5-.05.76-.05.15 0 .3 0 .44.02l.54.06.53.1.52.16c.16.05.33.1.5.18l.46.23.46.27.43.3c.14.1.28.2.4.33l.4.36.35.4.33.4.3.45.25.48.23.48.2.5.14.54c.04.18.08.36.1.54l.1.56.02.57c0 .2 0 .4-.02.58 0 .2-.03.38-.06.56zM0 10.7l7-7.1H.23V.32h11.62V3.6l-7 7.1h7v3.28H0V10.7z" class="bjcls-2"/></symbol><symbol viewBox="0 0 311.921 47.02" id="logo_inline"><path fill="#0B0817" class="bklogoPartFranceTv" d="M30.992 19.49v-4.974h-4.1v25.532h4.195v-14.17c0-7.95 5.803-7.95 8.194-7.95h1.9v-3.95a22.87 22.87 0 0 0-2.34-.145c-2.19 0-6.38-.05-7.84 5.657m32.52 15.217V22.123c0-6.097-2.58-8.29-9.56-8.29-10.87 0-10.87 5.022-10.87 8.582h4.05c0-3.755.78-5.17 6.25-5.17 4.2 0 5.86.585 5.86 4 0 .732 0 2.927-1.467 3.12-13.46 1.757-15.705 3.61-15.705 8.73 0 5.072 2.2 7.66 8.54 7.66 5.9 0 7.51-1.903 8.927-3.854.588 2.49 1.46 3.22 4.68 3.22.588 0 1.17-.05 1.76-.05V36.9c-1.56 0-2.44-.047-2.44-2.193m-4.195-4.683c0 5.023-2.73 7.317-7.85 7.317-2.927 0-5.07-.88-5.07-3.8 0-2.78.19-4.34 7.214-5.27 1.56-.19 3.36-.48 5.7-1.26v3.03zM82 13.834c-5.756 0-7.316 2.633-8.194 4.63v-3.95H69.61V40.05h4.196V25.245c0-6.29 3.51-7.903 7.415-7.903 4.83 0 5.17 2.636 5.17 6.49v16.216h4.19V22.66c0-3.706-.19-8.827-8.58-8.827m24.97 23.507c-6.19 0-7.95-3.414-7.95-9.85 0-7.17 2.25-10.244 8-10.244 5.32 0 6.2 2.78 6.64 5.267h4.15c-.24-3.56-1.9-8.68-10.64-8.68-7.94 0-12.43 3.95-12.43 13.558 0 11.32 6.34 13.37 12.1 13.37 9.66 0 11.12-6.14 11.12-9.51h-4.15c-.34 2.88-.582 6.1-6.823 6.1m26.67-23.51c-8.29 0-12.534 3.71-12.534 14.1 0 9.46 4.82 12.83 11.99 12.83 8.97 0 10.923-4.34 11.22-8.34h-3.95c-.59 3.27-2.05 4.93-7.027 4.93-7.366 0-7.805-4.92-7.805-8.63h19.217c0-.63.05-1.31.05-1.95 0-12.97-8.15-12.92-11.17-12.92m-8.095 11.46c.44-4.14 1.413-8.05 7.656-8.05 6 0 7.17 3.22 7.17 8.05h-14.82zm51.64-10.78l-5.17 18.14-5.22-18.14H157v-8.1h-6.78v8.1h-3.36v4.49h3.362v14.63c0 1.565.05 3.955 1.368 5.17 1.32 1.22 3.81 1.27 5.66 1.27h3.954v-5.2H159c-.585 0-1.17 0-1.56-.39-.44-.436-.44-1.02-.44-2.29V19.004h4.066l7.636 21.046h6.437l9.22-25.533h-7.18zM14.23 12.65v1.87H10.7v4.3h3.53v21.23h4.22V18.81h4.703v-4.3h-4.71v-1.67c0-1.816 0-2.994 3.43-2.994.397 0 .88.048 1.276.048v-3.53c-.79-.05-1.67-.098-2.457-.098-5.732 0-6.47 2.895-6.47 6.374"/><path fill="#FF5B50" fill-rule="evenodd" class="bklogoPartZoom" d="M294.862 40.22V25.1c0-2.76-2.234-5.01-4.978-5.01-2.705 0-4.9 2.193-4.978 4.915v15.252h-6.625v-15.12c0-2.76-2.234-5.008-4.978-5.008-2.744 0-4.9 2.21-4.978 4.913v15.214h-6.664v-25.93h6.664v4.233a8.683 8.683 0 0 1 7.78-4.763c3.333 0 6.175 1.814 7.684 4.536 1.55-2.74 4.822-4.536 8.742-4.536 4.86 0 9.016 3.97 9.016 8.845V40.22h-6.664zm-34.574-11.227l-.196 1.04-.294.982a8.32 8.32 0 0 1-.333.983l-.43.945-.49.888a6.73 6.73 0 0 1-.53.89c-.197.264-.393.566-.628.793-.196.246-.392.492-.647.756-.235.226-.47.472-.725.68-.235.226-.51.453-.784.66-.254.228-.528.417-.783.606-.294.19-.588.34-.9.51l-.903.435c-.314.133-.627.265-.98.38-.294.112-.627.188-.98.3a8.14 8.14 0 0 1-.98.19c-.353.095-.706.132-1.058.19l-1.098.037c-.45 0-.862 0-1.294-.038-.43-.04-.862-.095-1.293-.19-.39-.057-.842-.15-1.254-.264l-1.176-.378-1.176-.53c-.352-.19-.705-.378-1.058-.623a7.552 7.552 0 0 1-.98-.72c1.646-1.322 3-3.023 3.88-4.988.236.19.49.378.746.51.352.19.744.378 1.136.53.392.15.824.245 1.255.32.43.076.843.095 1.274.076l1.04-.132c.35-.056.665-.15.98-.264.35-.132.665-.283.98-.434.293-.19.587-.34.84-.567.256-.19.51-.378.746-.643.235-.246.47-.49.667-.756.196-.283.392-.567.548-.87a5.68 5.68 0 0 0 .392-.944c.138-.34.196-.68.275-1.02.078-.34.117-.7.117-1.06 0-.377 0-.718-.04-1.077l-.195-1.04a6.03 6.03 0 0 0-.392-.944c-.117-.34-.294-.623-.47-.906-.196-.284-.392-.567-.627-.794-.236-.265-.47-.492-.726-.718s-.53-.435-.823-.605a6.026 6.026 0 0 0-.922-.473 5.922 5.922 0 0 0-.98-.32 6.278 6.278 0 0 0-1.04-.19h-1.077c-.352 0-.704.076-1.038.15-.333.096-.666.19-.98.323a8.264 8.264 0 0 0-.92.453l-.844.567c-.274.227-.51.454-.744.7s-.45.51-.647.793c-.196.265-.392.567-.51.87-.157.302-.274.623-.392.945-.078.34-.157.68-.196 1.02-.06.34-.1.7-.1 1.06v.566c0 .416-.058.85-.116 1.286-.06.435-.138.85-.236 1.266-.098.416-.196.832-.352 1.23l-.47 1.17c-.197.378-.354.756-.59 1.134-.195.34-.39.68-.646 1.02-.235.34-.49.68-.744.984-.138.19-.294.34-.45.51l-1.08.983-1.175.907c-.39.265-.842.51-1.273.756-.43.19-.882.416-1.372.567-.43.19-.92.378-1.372.473s-.98.226-1.47.283c-.51.075-.98.113-1.49.13-.392 0-.784 0-1.176-.036-.392 0-.725-.057-1.097-.114l-1.02-.19-.98-.282a6.522 6.522 0 0 1-.98-.378l-.98-.378-.882-.51-.862-.568a5.923 5.923 0 0 1-.784-.623c-.274-.188-.53-.434-.784-.68-.196-.245-.45-.49-.686-.756l-.647-.793-.588-.85-.49-.87c-.157-.302-.313-.604-.45-.944l-.393-.945-.274-1c-.098-.34-.196-.68-.235-1.022l-.118-1.058-.06-1.077c0-.378 0-.718.04-1.096l.118-1.078.196-1.04.276-1.02c.098-.322.196-.644.352-.946l.392-.945c.196-.322.353-.625.51-.946l.588-.832.588-.812.686-.756.745-.7.784-.642.844-.567c.294-.19.588-.378.882-.53.313-.188.588-.32.92-.453.314-.132.628-.265.98-.378.295-.113.628-.19.98-.302.334-.095.667-.19 1.02-.227l1.058-.15 1.078-.058c.432 0 .863 0 1.274.057.432.037.863.094 1.294.19.392.055.843.15 1.254.263.392.114.784.265 1.176.416l1.176.53c.392.188.726.415 1.078.642.353.19.686.453 1.02.718a13.727 13.727 0 0 0-3.92 4.97c-.196-.188-.47-.34-.726-.49-.392-.19-.744-.38-1.136-.51a6.727 6.727 0 0 0-1.255-.303 8.936 8.936 0 0 0-1.254-.076 5.07 5.07 0 0 0-1.06.132c-.332.076-.685.152-.98.284a6.323 6.323 0 0 0-.98.416 4.68 4.68 0 0 0-.84.567c-.276.19-.53.378-.785.642-.196.265-.432.51-.628.794a6.617 6.617 0 0 0-.548.868 5.084 5.084 0 0 0-.392.945 7.53 7.53 0 0 0-.275 1.002c-.06.378-.078.756-.098 1.077 0 .378 0 .72.04 1.078l.195 1.04c.118.302.236.642.392.944.138.303.294.605.49.89l.588.81c.236.266.49.493.745.7.255.19.53.416.823.568.275.19.588.34.902.472.314.15.647.246.98.34.333.095.686.15 1.04.19.39 0 .744.037 1.096 0 .353 0 .706-.057 1.04-.133.313-.075.646-.188.98-.3.293-.134.587-.266.9-.455.295-.19.59-.378.824-.567l.745-.7c.235-.245.43-.51.627-.793.196-.265.392-.567.51-.87.156-.32.274-.642.392-.945.098-.378.196-.7.235-1.04a6.8 6.8 0 0 0 .08-1.076v-.567l.136-1.286c.06-.414.138-.85.236-1.265.078-.378.196-.794.333-1.19l.45-1.135c.197-.378.353-.756.59-1.134.195-.34.39-.68.645-1.02.196-.34.47-.662.745-.983l.667-.68c.333-.34.705-.68 1.078-1.002l1.176-.85c.43-.264.842-.49 1.293-.718a9.51 9.51 0 0 1 1.37-.567c.472-.19.942-.32 1.432-.434.45-.113.98-.188 1.45-.264.49-.057.98-.095 1.49-.095.294 0 .588 0 .862.04l1.06.113 1.038.19 1.02.3c.312.096.646.19.98.34l.9.436.902.51.843.566c.274.19.55.378.784.624l.785.68.686.756.648.756.588.85.49.908.45.907.392.945.275 1.02c.078.34.157.68.196 1.02l.195 1.06.04 1.077c0 .377 0 .755-.04 1.095 0 .378-.06.72-.118 1.06zm-69.58 5.027l13.72-13.42h-13.27v-6.198h22.776v6.2l-13.72 13.418h13.72v6.2h-23.226v-6.2z"/></symbol><symbol viewBox="0 0 110 100" id="mail_full"><path fill="#FFF" d="M106.5 32.024V76.97L77.532 52.995l28.968-20.97zM3.5 26.03v-8.99h103v8.99L55 64.98 3.5 26.03zm0 50.94V32.023l28.968 20.972L3.5 76.97zM55 70.972l19.312-14.98L106.5 82.96H3.5l32.188-26.967L55 70.973z"/></symbol><symbol viewBox="0 0 110 100" id="mail_light"><path fill="none" stroke="#FFF" stroke-width="2" stroke-miterlimit="10" d="M3.5 17.04h103v65.92H3.5zM18.278 27.458l37.185 31.97m36.26-31.97l-37.186 31.97m-10.38-8.785l-24.27 21.9m44.83-21.9l24.273 21.9"/></symbol><symbol viewBox="0 0 26 20" id="opinion"><g fill="none" stroke="#7B7B7B" stroke-miterlimit="10" stroke-linecap="round" stroke-linejoin="round"><path d="M2.5 12.6l.7 2.8 20.2 1.5-4-14.8L2.5 12.6zm11.1 3.7l-.1 1.3c-.1.9-.8 1.6-1.7 1.5L9.7 19c-.9-.1-1.6-.8-1.5-1.7l.1-1.2m15.2.8c.1.5.7.8 1.2.7.5-.1.8-.7.7-1.2l-4-14.8c-.1-.5-.7-.8-1.2-.7-.5.1-.8.7-.7 1.2l4 14.8z"/><path d="M1.4 15.8c.1.5.7.8 1.2.7.5-.1.8-.7.7-1.2l-.7-2.8c-.1-.5-.7-.8-1.2-.7-.5.1-.8.7-.7 1.2l.7 2.8z"/></g></symbol><symbol preserveAspectRatio="xMidYMid" viewBox="0 0 23 24" id="oups"><defs><style>.bocls-3{fill:#828282}</style></defs><g id="booups_onsvg"><path fill-rule="evenodd" d="M6 12l17 12V0L6 12z" class="bocls-3"/><path d="M0 0h4v24H0z" class="bocls-3"/></g></symbol><symbol preserveAspectRatio="xMidYMid" viewBox="0 0 16 24" id="pause"><defs><style>.bpblock{fill:#828282}</style></defs><g id="bppause"><path d="M10 0h6v24h-6zM0 0h6v24H0z" class="bpblock"/></g></symbol><symbol preserveAspectRatio="xMidYMid" viewBox="0 0 16 24" id="play"><defs><style>.bqblock{fill:#828282}</style></defs><path fill-rule="evenodd" d="M17 12L0 24V0l17 12z" class="bqblock" id="bqplaysvg"/></symbol><symbol viewBox="0 0 31 31" id="playerDontLike"><path fill="none" stroke="#828282" stroke-miterlimit="10" d="M30.5 25.8c0 2.5-2 4.6-4.6 4.6H5.2c-2.5 0-4.6-2-4.6-4.6V5.2C.6 2.7 2.6.6 5.2.6h20.7c2.5 0 4.6 2 4.6 4.6v20.6z" class="brback"/><g fill="#828282"><circle cx="8" cy="9.9" r="1.9"/><circle cx="23.1" cy="9.9" r="1.9"/></g><path fill="none" stroke="#828282" stroke-miterlimit="10" d="M7 23.7c0-9 16.9-8.9 16.9 0" stroke-linecap="round" stroke-linejoin="round"/></symbol><symbol viewBox="0 0 31 31" id="playerLike"><path fill="none" stroke="#828282" stroke-miterlimit="10" d="M30.5 25.8c0 2.5-2 4.6-4.6 4.6H5.2c-2.5 0-4.6-2-4.6-4.6V5.2C.6 2.7 2.6.6 5.2.6h20.7c2.5 0 4.6 2 4.6 4.6v20.6z" class="bsback"/><g fill="#828282"><circle cx="8" cy="9.9" r="1.9"/><circle cx="23.1" cy="9.9" r="1.9"/></g><path fill="none" stroke="#828282" stroke-miterlimit="10" d="M7 16.9c0 9 16.9 8.9 16.9 0" stroke-linecap="round" stroke-linejoin="round"/></symbol><symbol preserveAspectRatio="xMidYMid" viewBox="0 0 21 18" id="playerSpeaker"><path class="btspeaker" d="M18.12 16.163c-9.9 1.243-10.23.97-10.66.612l-3.73-3.1H1.245C.56 13.676 0 13.116 0 12.433v-7.46c0-.685.56-1.244 1.244-1.244H3.73l3.73-3.1C7.89.27 8.22 0 8.706 0c.757 0 1.243.61 1.243 1.243v14.923c0 .63-.486 1.243-1.243 1.243z"/><path class="btwave" d="M18.12 16.163c-.52 1.1-1.012 1.243-1.45 1.243-.738 0-1.243-.62-1.243-1.243 0-1.04 1.982-2.818 1.982-7.46 0-4.645-1.983-6.422-1.983-7.462C15.427.62 15.932 0 16.67 0c.438 0 .93.142 1.452 1.243.57 1.206 1.774 3.634 1.774 7.462 0 3.827-1.205 6.256-1.776 7.46zm-5.685-1.244z"/><path class="btwave" d="M18.12 16.163c-6.462-1.244-6.93-1.895-6.93-2.487 0-.884 1.245-1.73 1.245-4.974 0-3.245-1.244-4.09-1.244-4.974 0-.593.468-1.243 1.245-1.243.63 0 1.01.34 1.418 1.243a11.782 11.782 0 0 1 1.07 4.974c0 1.66-.306 3.282-1.07 4.974-.408.903-.787 1.243-1.418 1.243zm-9.415 1.243z"/><g><path class="btcross" d="M20.293 3.2l1.414 1.413-9 9-1.414-1.414 9-9"/><path class="btcross" d="M11.293 4.613L12.707 3.2l9 9-1.414 1.413-9-9"/></g></symbol><symbol viewBox="0 0 483.1 483.1" id="recherche"><path d="M332.7 315.4C363.7 282 383 237.2 383 188 383 84.3 298.6 0 195 0S7.2 84.4 7.2 187.8s84 188 187.8 188c42.3 0 81-14 112.5-37.5L447.2 478c3.4 3.4 7.7 5 12 5s8.7-1.6 11.8-5c6.5-6.5 6.5-17.3 0-24L332.7 315.3zM41.2 188C41.2 103 110 34 195 34c84.8 0 154 68.8 154 153.8s-69 154-154 154-153.8-69.2-153.8-154z"/></symbol><symbol viewBox="0 0 110 100" id="seelater"><path fill="none" stroke-width="2" stroke-miterlimit="10" d="M77.912 58.644a6.696 6.696 0 0 0-1.895 5.84L80.292 90 58.375 78.207a7.092 7.092 0 0 0-3.376-.85c-1.16 0-2.325.284-3.375.85L29.703 90l4.278-25.515a6.683 6.683 0 0 0-1.89-5.84L13.667 40.252l25.14-3.746c2.295-.34 4.272-1.775 5.26-3.827L55.002 10l10.93 22.685c.99 2.05 2.963 3.483 5.26 3.826l25.142 3.745-18.42 18.39z"/></symbol><symbol viewBox="0 0 490.695 236.965" id="shoes"><path d="M225.288 128.92c-1.092-.82-14.38-.454-14.38-.454s-1.186-1.184-2.186-2.73c-1-1.547-4.277-4.097-9.648-6.918-5.37-2.82-14.836-3.914-22.027-2.548-7.19 1.365-15.11 11.195-15.11 11.195s-6.28-.546-13.014-1.092c-6.736-.546-12.652-1.184-13.29-.364-.637.816-1 5.46-.818 6.55.182 1.094 6.098 1.82 15.29 2.37 9.195.543 29.49 1.727 46.422 1.27 16.93-.454 29.218-2.91 29.582-3.003.36-.09.27-3.457-.823-4.278zm-42.69-12.013c5.646 0 13.29 3.914 13.29 3.914s-8.738-1.455-12.924-1.545c-4.188-.09-11.925 3.276-11.925 3.276s5.916-5.642 11.56-5.642zm6.008 11.65c-9.1 0-21.207-.638-21.207-.638s3.912-1.64 7.28-3.37c3.37-1.73 8.92-3.458 12.742-3.64 3.822-.183 12.472 2.55 15.84 3.914 3.366 1.365 4.275 3.73 4.275 3.73l-18.932.002zm-38.77 74.56s-10.83-7.094-10.448-8.438c.383-1.344.862-.19 1.63-2.014.767-1.82 1.438-2.78 1.438-3.163 0-.385.767-2.108 1.724-2.108.96 0 6.998 2.49 11.31 5.174 4.315 2.685 5.465 4.89 7.958 4.41 2.49-.48 18.21-8.915 20.512-7.286 2.3 1.63 8.914 8.627 11.695 9.778l2.778 1.15s16.392 1.533 19.842 2.395c3.45.864 7.19 2.78 7.573 6.614.382 3.835.48 5.465-.096 7.573-.574 2.108-2.588 4.217-3.067 4.314-.48.095-1.15-.192-1.15.287s-1.054 1.055-1.726 1.247c-.674.19-1.344.48-1.344.19s-.48-.67-.672-.095c-.19.574-1.055.862-2.204.862s-1.245-.957-1.628-.575c-.384.385.096 1.055-1.054 1.15-1.15.097-1.534.097-1.534.097s-.48-.673-.767-.673-.575.96-.575.96l-2.398.094s-.382-.86-.765-.86c-.387 0-.578 1.15-.578 1.15l-2.204-.097s0-.67-.288-.67-1.055.862-1.055.862l-2.014-.097s0-.863-.48-.863c-.476 0-1.053.672-1.053.672l-2.3-.1s0-.86-.48-.86-.575.767-.575.767l-2.972-.095s.098-.48-.19-.48c-.29 0-.863.382-.863.382l-3.45-.862s-.096-.574-.48-.574h-.382l-2.014-.193s.193-.575-.094-.575c-.29 0-.673.288-.673.288l-2.014-1.247s-3.644-.383-8.148-.48c-4.505-.095-6.52 1.055-7.955 2.11-1.437 1.055-2.97 1.15-2.97 1.15l-.29.574-2.778.095s0-.575-.67-.575-.67.67-.67.67h-3.55s-.095-.478-.48-.478c-.382 0-.86.67-.86.67h-3.26s.288-.67-.574-.67c-.865 0-.865.67-.865.67l-3.45-.096s.288-.956-.094-.956c-.385 0-.864.574-.864.574l-3.45-1.44s-.096-.573-.383-.573-1.055.288-1.055.288-3.164-2.49-4.41-4.89c-1.247-2.396-1.535-9.68.095-11.31 1.63-1.63 6.71-2.876 9.873-3.066 3.16-.192 3.928-.766 3.928-.766zM17.89 133.93l3.316.214s-.642-30.183 2.248-32.11c2.89-1.927 7.92-.32 12.63 8.134 4.71 8.455 10.595 21.084 16.803 24.19 6.208 3.103 12.522 2.032 22.797 0 10.274-2.036 22.154-4.07 21.727-7.923-.426-3.852-6.634-5.993-13.162-7.92-6.53-1.925-9.205-2.996-11.346-2.996-2.14 0-11.13 2.03-16.16-1.607-5.03-3.64-16.91-20.764-22.69-31.253-5.78-10.487-12.95-18.408-13.914-18.408-.963 0-5.993 6.1-8.99 12.843s-2.89 10.168-2.354 11.452c.535 1.284 5.672 8.776 6.85 15.626 1.176 6.852 2.247 29.756 2.247 29.756zm-8.282 76.978s-2.133 1.133-2.133 1.932c0 .8.333 1.732.333 1.732s0 6.46.268 6.926c.266.466 3.462 1.532 4.128 1.532s.268-.8 1-.8 1.398 1 1.398 1l2.796.2s.135-.6.934-.6.866.866.866.866h.73s.068-.732 1.067-.732c.998 0 .998.666.998.666s3.93.2 5.462.133c1.532-.067 4.13-.067 4.13-.067s.066.533.532.533c.465 0 3.264-.468 3.264-.468s.135.733.934.733 3.93-.467 3.93-.467-.2.732.333.732.932-.733 1.465-.733.734.6 1.267.798c.53.2 1.53.2 2.13.133.6-.065 1.933-.865 2.6-.732.664.133 0 1.066.53 1.066.532 0 2.53.133 2.6-.067s-.2-.8.664-.8 2.064-.2 2.33 0c.268.2-.065.934.333 1 .4.066 2.266-.066 2.266-.066s.2-1.066.867-1.066 1 .866 1.332.866c.33 0 1.596-.2 1.863-.2.266 0 .4-.332.4-.332s.864.333 1.863.333 2.465-.397 2.73-.397 1.4.066 2.466.066c1.064 0 1.064-.334 1.064-.334s2.132 0 5.13-.267c2.995-.267 5.126-.667 5.394-1 .266-.333.73 0 .73 0s1.467.133 2-.067c.53-.2.6-.8.932-.732.333.067.6.534 1.2.534s3.195-.466 3.46-.732c.27-.266.47-1.198 1.135-1.065.665.134.8.8 1.063.8.27 0 7.86-2.33 7.926-4.462.066-2.132-.134-3.13-.134-3.13s.666-1.666-.133-2.597c-.798-.933-1.53-.8-1.53-.8s-.667-5.394-5.328-7.525c-4.664-2.13-14.12-4.328-22.244-8.324-8.125-3.998-14.92-6.66-14.92-6.66s.068-.867-.33-1.066c-.4-.2-1.266-.266-1.266-.266s.532-10.59.665-13.32c.134-2.73.467-5.793.066-5.793-.398 0-4.73-1.264-9.988-1.264-5.263 0-11.19 3.064-15.253 2.13-4.062-.93-13.318-3.73-15.05-3.195-1.733.534-2.4 3.264-2.4 4.862s1.067 8.392 1.333 11.455c.268 3.064 1.2 6.194 1 8.06-.2 1.863-3.728 14.65-3.596 17.248.134 2.596.4 3.793.4 3.793zM295.057 87.09s2.28-.598 3.475.326c1.192.924 1.192 2.388 1.192 2.388s.49.325.49 1.195v2.655s1.573-.378 2.116.544c.543.922.543 2.062.543 2.062s1.084.054 1.084.65c0 .6-.434 1.304-.434 1.304l1.194 1.79s2.28-.325 2.495.162c.22.488.11 1.412.11 1.412s.977 0 1.194.54c.216.544.216 2.39.216 2.39s1.465-.597 2.226-.38c.76.217 1.736 1.574 1.736 1.574s.868-.108 1.41.597.163 1.793.163 1.793l.435.106s1.412-.434 2.172-.16c.76.27 1.03 2.17 1.03 2.17s1.195.162 1.195.65c0 .49 1.082.434 1.082.434s.543-.76 1.52-.434c.978.327 1.846 1.52 1.846 1.52s.27-.107 1.465.382c1.193.487 1.14.868 1.14.868s1.193-1.193 1.846-.922c.65.27 1.03 2.062 1.03 2.062s1.792.977 2.93 1.464c1.14.49 1.737 1.033 1.737 1.033l.978.053s-.543-.92 1.248-.92c1.792 0 6.62.16 8.52.54 1.9.38 2.606.76 2.878.76.27 0 1.52.217 2.715 1.085 1.192.87 2.93 2.39 3.038 4.938.108 2.553 1.14 3.854-1.03 5.646-2.17 1.79-13.243 5.805-21.113 6.673-7.867.868-17.147-.705-18.83-.814s-15.47-1.25-24.313-.653c-8.847.6-16.227.38-19.376-.487-3.145-.867-4.285-1.572-4.5-2.334-.22-.76-1.41-6.348-1.033-7.65.38-1.303.543-2.17.76-2.28.217-.108.217-.434.217-.434s.163-8.52 1.63-12.59c1.464-4.07 4.177-8.414 4.07-11.94-.11-3.528-2.01-11.724-1.63-12.05.38-.324 2.66.436 4.343.76 1.683.327 5.75.22 8.086.272 2.335.055 3.583 0 3.583 0s3.092-3.744 3.853-3.744c.76 0 3.472 3.42 3.472 3.42s.706-.055 1.74.27c1.027.324 2.057 1.3 2.057 1.3zM280.64 197.644c5.702-.56 10.508-4.526 10.508-4.526s.28-1.286 2.29-2.516c2.013-1.23 3.02-1.452 3.97-.95.95.503 3.465 1.117 4.694 1.454 1.23.335 6.764 2.96 9.613 4.86s13.357 4.64 19.002 6.204c5.645 1.565 16.32 4.19 19.897 6.764 3.575 2.57 3.017 6.428 2.402 6.93-.614.502-6.93 2.85-7.6 3.855-.67 1.005-.394 2.347-.895 2.682-.502.335-2.513 1.173-3.072.783-.56-.393-.894-2.85-1.677-2.795-.78.057-.726.057-2.962.503-2.235.447-3.688.168-4.526.95-.837.783-1.006 3.41-1.285 3.465-.28.058-4.19.28-4.47 0-.28-.277-.727-2.515-1.564-3.13-.84-.614-4.862-1.117-5.366-.503-.503.616-.894 2.852-1.063 3.074-.165.222-3.24-.113-3.352-.616-.11-.504-.056-2.347-1.06-2.96-1.008-.617-5.703-2.126-13.695-2.126-7.99 0-12.464.334-13.245 1.452-.782 1.117-.614 3.073-.782 3.466-.17.39-.95.502-1.677.56-.73.055-1.9-.336-1.9-.895s-.226-2.962-.95-3.465c-.728-.504-4.75-.56-5.924.335-1.177.894-1.735 2.124-1.735 2.738s.224 1.453-.224 1.566c-.445.11-4.637-.17-4.692-.56-.056-.393.167-2.684-1.342-4.19-1.51-1.51-3.466-3.355-3.8-3.913s0-1.9 0-1.9-1.23-3.297-1.398-8.216c-.166-4.917 2.46-15.683 4.08-15.648 2.74.056 5.98 4.025 7.153 5.085 1.177 1.064 3.074 2.533 6.653 2.18zM411.95 133.874l-2.4.12s0-11.64-2.52-17.282c-2.522-5.64-3.24-9.48-1.44-13.802 1.8-4.32 6-10.2 5.04-18.12-.96-7.923-2.4-17.644-5.16-32.525-2.76-14.88-4.32-26.043-3.84-34.924.48-8.88-1.32-10.32 1.44-11.52 2.76-1.2 10.8-1.32 16.8-1.32s18.963.96 19.564 3.72c.6 2.76-.36 38.167-.24 53.407.12 15.242.84 38.646 1.56 42.486.72 3.84 3.96 11.76 10.802 16.08 6.84 4.323 11.76 3.122 15.36 5.522 3.602 2.4 3.602 5.16 1.68 5.76-1.92.602-25.922 6.36-31.683 4.44-5.76-1.92-10.68-9.84-15.242-13.08-4.56-3.24-8.04-6.72-9.12-3.84-1.08 2.878-.6 14.88-.6 14.88zm3.442 76.758s12.264-21.568 19.734-21.003c7.472.56 16.774 9.3 29.038 14.095 12.264 4.792 19.03 11.276 15.79 15.506-3.243 4.23-3.103 4.51-9.587 5.357-6.484.847-20.3 1.128-30.167.563-9.868-.562-18.607-1.69-26.5-1.55-7.895.142-11.278.847-14.802.564-3.523-.28-5.216-1.55-6.484-2.96-1.27-1.41-2.68-4.37-1.128-6.483 1.55-2.112 8.034-4.227 13.532-4.227s10.574.14 10.574.14z" fill="#FFF"/></symbol><symbol viewBox="0 0 35.8 31" id="subscribe_full"><path fill="#828282" stroke="#828282" stroke-miterlimit="10" d="M33.9 3H5.1v4.3h25.6v16.4h3.2z"/><g stroke-miterlimit="10"><path fill="#828282" stroke="#828282" d="M5.1 7.3H1.9V28h28.8v-4.3"/><path fill="#828282" stroke="#828282" d="M5.1 7.3h25.5v17.6H5.1z"/><path fill="#FFF" stroke="#FFF" d="M16.4 13.8v7.8M12.5 17.7h7.8"/><path fill="none" stroke="#FFF" d="M4.5 6.3h27.7M31.7 6v18.9"/></g></symbol><symbol viewBox="0 0 35.8 31" id="subscribe_light"><g fill="none" stroke-miterlimit="10"><path class="bypath" d="M5.1 7.3H1.9V28h28.8v-4.3"/><path class="bypath" d="M33.9 3H5.1v4.3h25.6v16.4h3.2zM16.4 13.8v7.8M12.5 17.7h7.8"/></g></symbol><symbol viewBox="0 0 19 25" id="taste"><path fill="none" stroke="#7B7B7B" stroke-miterlimit="10" d="M12.2 11.9l-4.5 4.5-2-2m9.3 6.7l3-16.8-13.7-3-.7 3.8H15zM3.6 5.1H1v14.5m0 0v4.1h14v-2.6"/></symbol><symbol viewBox="5 5 100 85" id="twitter"><path fill="none" stroke="#FFF" stroke-width="2" stroke-miterlimit="10" d="M104.22 19.47a40.38 40.38 0 0 1-11.6 3.18c4.17-2.5 7.372-6.457 8.88-11.173a40.42 40.42 0 0 1-12.825 4.9A20.173 20.173 0 0 0 73.935 10c-11.155 0-20.198 9.043-20.198 20.196 0 1.583.18 3.124.523 4.603-16.785-.844-31.666-8.885-41.627-21.103A20.087 20.087 0 0 0 9.9 23.85c0 7.008 3.565 13.19 8.984 16.81a20.103 20.103 0 0 1-9.148-2.525l-.002.254c0 9.783 6.962 17.946 16.2 19.8a20.278 20.278 0 0 1-9.12.347c2.57 8.024 10.03 13.863 18.866 14.026a40.52 40.52 0 0 1-25.082 8.645 41.2 41.2 0 0 1-4.818-.283A57.153 57.153 0 0 0 36.74 90C73.886 90 94.2 59.226 94.2 32.537a61.2 61.2 0 0 0-.057-2.613A41.036 41.036 0 0 0 104.22 19.47z"/></symbol><symbol viewBox="5 5 100 85" id="twitter_full"><path fill="#FFF" d="M104.22 19.47a40.38 40.38 0 0 1-11.6 3.18c4.17-2.5 7.372-6.457 8.88-11.173a40.42 40.42 0 0 1-12.825 4.9A20.173 20.173 0 0 0 73.935 10c-11.155 0-20.198 9.043-20.198 20.196 0 1.583.18 3.124.523 4.603-16.785-.844-31.666-8.885-41.627-21.103A20.087 20.087 0 0 0 9.9 23.85c0 7.008 3.565 13.19 8.984 16.81a20.103 20.103 0 0 1-9.148-2.525l-.002.254c0 9.783 6.962 17.946 16.2 19.8a20.278 20.278 0 0 1-9.12.347c2.57 8.024 10.03 13.863 18.866 14.026a40.52 40.52 0 0 1-25.082 8.645 41.2 41.2 0 0 1-4.818-.283A57.153 57.153 0 0 0 36.74 90C73.886 90 94.2 59.226 94.2 32.537a61.2 61.2 0 0 0-.057-2.613A41.036 41.036 0 0 0 104.22 19.47z"/></symbol><symbol preserveAspectRatio="xMidYMid" viewBox="0 0 23 24" id="zappe"><defs><style>.cccls-4{fill:#828282}</style></defs><g id="ccjezappe_onsvg"><g id="ccgroupe-4"><path fill-rule="evenodd" d="M17 12L0 24V0l17 12z" class="cccls-4"/><path d="M19 0h4v24h-4z" class="cccls-4"/></g></g></symbol></svg>